<?xml version="1.0" encoding="UTF-8" standalone="no"?>
<!-- Generator: Adobe Illustrator 23.0.3, SVG Export Plug-In . SVG Version: 6.00 Build 0)  -->

<svg
   xmlns:dc="http://purl.org/dc/elements/1.1/"
   xmlns:cc="http://creativecommons.org/ns#"
   xmlns:rdf="http://www.w3.org/1999/02/22-rdf-syntax-ns#"
   xmlns:svg="http://www.w3.org/2000/svg"
   xmlns="http://www.w3.org/2000/svg"
   xmlns:sodipodi="http://sodipodi.sourceforge.net/DTD/sodipodi-0.dtd"
   xmlns:inkscape="http://www.inkscape.org/namespaces/inkscape"
   version="1.1"
   id="Layer_1"
   x="0px"
   y="0px"
   viewBox="0 0 260.00001 79.999997"
   xml:space="preserve"
   sodipodi:docname="logo-yucatan_.svg"
   width="260"
   height="80"
   inkscape:version="0.92.4 (5da689c313, 2019-01-14)"><metadata
   id="metadata51"><rdf:RDF><cc:Work
       rdf:about=""><dc:format>image/svg+xml</dc:format><dc:type
         rdf:resource="http://purl.org/dc/dcmitype/StillImage" /><dc:title /></cc:Work></rdf:RDF></metadata><defs
   id="defs49" /><sodipodi:namedview
   pagecolor="#ffffff"
   bordercolor="#666666"
   borderopacity="1"
   objecttolerance="10"
   gridtolerance="10"
   guidetolerance="10"
   inkscape:pageopacity="0"
   inkscape:pageshadow="2"
   inkscape:window-width="1366"
   inkscape:window-height="705"
   id="namedview47"
   showgrid="false"
   inkscape:zoom="1.467003"
   inkscape:cx="55.910919"
   inkscape:cy="65.800003"
   inkscape:window-x="-8"
   inkscape:window-y="-8"
   inkscape:window-maximized="1"
   inkscape:current-layer="Layer_1" />
<style
   type="text/css"
   id="style2">
	.st0{fill-rule:evenodd;clip-rule:evenodd;fill:#2C6245;}
	.st1{fill-rule:evenodd;clip-rule:evenodd;fill:#DDBC46;}
	.st2{fill:#50504F;}
</style>





















<g
   id="g72"
   transform="matrix(0.81632652,0,0,0.81632652,-2.9999999,-13.224489)"
   style="stroke-width:1.22500002"
   inkscape:export-filename="C:\Users\mpsan\Documents\g72.png"
   inkscape:export-xdpi="96"
   inkscape:export-ydpi="96"><g
     id="g14"
     style="stroke-width:1.22500002"><rect
       x="9.8000002"
       y="16.200001"
       class="st0"
       width="73.400002"
       height="98"
       id="rect4"
       style="clip-rule:evenodd;fill:none;fill-rule:evenodd;stroke-width:1.22500002" /><path
       class="st1"
       d="M 83.2,16.2 V 63.8 64 C 83.2,76.1 77,87.3 66.9,93.9 52.6,103.2 33.8,101.6 21.2,90 14,83.3 9.8,73.9 9.8,64 v 0 -0.2 -47.6 z"
       id="path6-9"
       inkscape:connector-curvature="0"
       style="clip-rule:evenodd;fill:#2c6245;fill-rule:evenodd;stroke-width:1.22500002" /><path
       class="st2"
       d="m 43.9,86.8 h -1.1 v 1.3 h 0.5 l -1.5,3.6 v 5.1 h 2.7 v -4.5 h 0.6 l 1.2,-2.9 v -0.7 h 1.5 v 0.7 l 1,2.9 h 0.6 v 4.5 h 2.7 v -5.1 l -1.5,-3.6 h 0.5 v -1.3 h -0.9 v -0.5 h -6.3 z m 0,-67.4 h -1.1 v 1.2 h 0.5 l -1.5,3.6 v 5.1 h 2.7 v -4.4 h 0.6 L 46.3,22 v -0.9 h 1.5 V 22 l 1,2.9 h 0.6 v 4.4 h 2.7 v -5.1 l -1.5,-3.6 h 0.5 V 19.4 H 50.2 V 19 H 43.9 Z M 61,35.1 c 0.5,0.5 -0.2,0.9 -0.3,0.9 -0.3,0 -0.4,-0.1 -0.7,0 -0.2,0.1 -0.5,0.1 -0.8,0.1 -0.3,0 -0.6,-0.1 -0.9,-0.3 -0.3,-0.2 -0.9,0 -0.9,0 0,0 0.5,-0.3 0.8,-0.5 0.3,0 0.5,0.1 1,0.1 0.5,0.2 0.5,-0.1 0.9,-0.5 0.4,0.1 0.7,0.1 0.9,0.2 m 2.7,2.7 c -0.2,0 -0.5,0.3 -0.5,0.7 0,0.5 0.2,0.6 -0.2,1.1 -0.3,0.3 -0.6,0.5 -0.7,0.8 v 0.7 c 0,0 0.1,-0.6 0.4,-0.7 0.3,-0.2 0.6,-0.3 0.8,-0.5 0.2,-0.3 0.3,-0.6 0.3,-0.8 0,-0.3 0.3,-0.5 0.5,-0.6 0,-0.3 0,-0.8 -0.6,-0.7 M 62,36.4 c 0.9,0 0.6,0.9 0.3,1.2 -0.2,0.2 -0.6,0.3 -0.8,0.6 -0.2,0.3 -0.5,0.6 -0.9,0.8 -0.3,0.2 -0.7,0.3 -1.2,0.3 -0.5,0.2 -1,0.8 -1,0.8 0,0 0.2,-0.8 0.4,-1.1 0.3,-0.3 0.8,-0.3 1.4,-0.6 0.6,-0.3 0.4,-0.6 0.7,-1.3 0.5,-0.7 0.8,-0.8 1.1,-0.7 m 3.5,1.8 c -0.3,0.2 -0.5,0.5 -0.3,1.2 0.3,0.6 0.6,0.8 0.5,1.5 -0.2,0.6 -0.5,0.9 -0.5,1.4 0,0.4 0.3,0.9 0.3,0.9 0,0 -0.2,-0.7 0.3,-1 0.3,-0.5 0.4,-0.8 0.6,-1.2 0.2,-0.3 0.2,-0.7 0,-1.2 -0.2,-0.3 0.2,-0.6 0.2,-0.9 -0.1,-0.3 -0.5,-1.2 -1.1,-0.7 m -4.7,-5.5 c -0.2,-0.2 -0.4,-0.3 -1.2,-0.2 -0.6,0.2 -0.8,0.6 -1.3,0.3 -0.8,-0.2 -1.1,-0.5 -1.5,-0.5 -0.5,0 -0.9,0.3 -0.9,0.3 0,0 0.8,0 1.1,0.3 0.4,0.3 0.7,0.5 1.2,0.6 0.3,0.2 0.7,0.3 1.2,0.2 0.3,-0.2 0.6,0.2 0.9,0.2 0.2,0 1.1,-0.6 0.5,-1.2 m 6.8,-0.9 v 6.1 c -3.3,-0.1 -6,-2.8 -6,-6.1 z m -9.5,22.5 c 0.5,0.5 1.2,0.8 1.5,0.9 0.3,0.2 0.8,0.2 1.1,0.2 0.2,0.2 0.5,0.7 0.5,1.3 0.2,0.5 0.6,1.4 0.9,1.9 0.5,0.5 0.5,0.8 0.8,1 0.3,0 0.6,0.1 0.6,0.1 0.2,0.3 0,0.8 -0.3,1.2 -0.2,0.5 -0.7,0.3 -1.2,-0.3 -0.3,-0.7 -1.1,-2.4 -1.3,-2.7 -0.2,-0.3 -1,-0.5 -1.4,-0.8 -0.6,-0.3 -1.2,-1.2 -1.2,-2.8 m -0.9,-3.6 c 0.2,-0.2 0.3,-0.2 0.8,-0.2 0.7,0 0.5,0.3 0.3,0.7 -0.5,0.2 -0.5,0 -0.8,0 -0.2,-0.3 -0.3,-0.3 -0.3,-0.5 M 36.3,39.1 c -0.3,0.2 -0.4,0 -0.8,0.7 -0.3,0.7 0.2,1.4 0.5,1.3 0.3,0 1.4,0.1 2.1,0.1 0.8,0 1.8,-0.4 1.8,-0.4 0,0 0,1.3 -0.2,2.3 v 2.4 c -0.3,0 -1.9,0.2 -3.1,0.4 -1.3,0.3 -1.3,1.6 -1.3,2.1 -0.2,0.6 -0.2,1.9 -0.3,2.9 -0.3,0.8 0.2,1.6 0.8,1.8 0.6,0 0.6,-1.3 0.6,-1.3 0,0 -0.3,-0.2 -0.3,-0.5 0,-0.5 0.3,-1.4 0.3,-1.9 0,-0.7 0.3,-1.1 0.3,-1.1 0,0 1.8,-0.2 2.4,-0.2 0.5,-0.2 0.9,-0.3 0.9,-0.3 0,0 0.3,0 0,0.2 -0.3,0.2 -1.6,2.1 -1.8,2.7 -0.2,0.8 0,1.4 0.7,2.3 0.7,0.8 1.6,1.9 2.4,2.1 0.6,0 0.9,-0.3 0.9,-1 0,-0.5 -0.6,-0.7 -0.6,-0.7 0,0 -0.5,0.3 -0.7,0.3 -0.3,-0.2 -1,-0.8 -1.1,-1.3 -0.2,-0.3 -0.3,-1.3 -0.3,-1.3 0,0 0.3,-0.6 1.1,-0.8 1.3,-0.3 0.8,-1.5 1.8,-0.3 0.3,0.3 0.7,0.8 2.2,1.8 1.6,1 5.3,1.6 6.4,1.6 0.9,0 1.6,0.7 2.1,2 0.3,1.3 1.6,2.4 2.7,3 1.3,0.8 3.1,1.6 3.2,2.1 0.2,0.3 1.1,1.8 1.6,3.1 0.3,1.3 0.9,1.4 1.4,1.1 0.5,-0.3 0.2,-1.1 0.2,-1.3 0,-0.2 -0.5,0 -0.8,-0.5 -0.3,-0.3 -0.6,-1.4 -0.8,-2.1 -0.2,-0.7 -0.7,-2.1 -1,-2.2 C 59.4,57.9 58.5,58 58,57.5 57.5,56.9 57.4,55 57.4,54 c 0,-1.2 -0.3,-2.1 -0.8,-2.9 -0.7,-0.9 -2.2,-1.8 -5.1,-3.2 -3.1,-1.3 -5.3,-3.2 -5.9,-3.6 -0.5,-0.5 -1,-1.4 -1.3,-2.1 C 44,41.5 42.5,39.1 41.9,38.7 41.5,38 41,37.7 41,37.2 c 0,-0.3 0.3,-0.8 0.8,-1.3 0.6,-0.3 1.4,-1.1 1.6,-1.6 0.3,-0.3 0.2,-0.6 -0.5,0 -0.5,0.8 -0.2,-0.1 -0.2,-0.4 0,-0.2 -0.2,-0.8 -0.3,-1.3 -0.2,-0.5 -0.3,-0.2 -0.3,0.2 -0.2,0.5 -0.2,1 -0.2,1.3 0,0.4 -0.4,0.4 -0.6,0 -0.3,-0.3 -0.5,-1 -0.8,-0.7 -0.2,0.2 0.2,0.8 0.3,1.4 0.2,0.7 -0.3,1.3 -0.5,1.8 -0.2,0.3 -0.6,0.7 -0.9,0.8 -0.3,0.2 -0.8,-0.2 -0.8,-0.2 0,0 -0.4,0.3 -0.6,0.8 -0.4,0.5 -1.4,0.9 -1.7,1.1 m 5.3,-1.9 c 0,-0.2 0.6,-0.9 1.4,-0.8 0.7,0.1 0.5,0.1 0.8,0.3 0.1,0.3 0.1,0.5 0.3,0.7 0,0.2 -0.3,0.2 -0.9,0 -0.5,-0.2 -0.8,0.5 -1,0.3 -0.2,0 -0.4,-0.3 -0.6,-0.5 m -2.2,1.3 c 0.3,0 0.2,0.3 -0.2,0.4 -0.2,0.2 -0.7,0 -0.3,-0.1 0.2,-0.1 0.3,-0.3 0.5,-0.3 m -1.2,-1.3 -0.4,0.5 c -0.3,0 -0.2,-0.8 -1,-0.8 -0.9,0 -0.5,-0.3 -0.5,-0.3 0,0 0.3,-0.3 0.8,-0.1 0.7,0 1.3,0.5 1.1,0.7 m 0,-2.9 c -0.1,-0.3 -0.1,-0.9 -0.3,-1.4 -0.2,-0.5 -0.2,-0.8 0.2,-0.3 0.4,0.3 0.4,1.9 0.8,0.7 0.3,-1.2 0.5,-0.2 0.3,0 0,0.3 -0.2,0.8 -0.2,1.4 0,0.5 -0.2,1.2 0.7,1.5 0.9,0.3 -0.8,1.3 -0.8,0.6 -0.2,-0.6 -0.5,-0.9 -0.7,-1.4 -0.1,-0.5 -0.4,-0.5 -0.6,-0.8 -0.3,-0.3 -0.5,-0.6 -0.3,-0.6 0.3,-0.2 0.9,0.6 0.9,0.3 M 81.9,17.4 v 46.3 0.2 c 0,11.6 -6,22.5 -15.8,28.8 -13.8,9 -32,7.5 -44.1,-3.7 C 15,82.5 11,73.4 11,63.9 V 63.7 17.4 Z M 68.5,30.8 v 32.8 0.1 c 0,7.1 -3.7,13.7 -9.6,17.6 C 50.2,87 38.8,86 31.2,79 27,75.1 24.5,69.6 24.5,63.8 V 63.7 30.8 Z M 23,54.1 h -0.4 v -0.3 c 0,-0.3 -0.3,-0.6 -0.6,-0.6 -0.3,0 -0.6,0.3 -0.6,0.6 v 0.3 h -0.3 v 0.2 h -0.4 v -0.5 0 -3.3 h -0.1 v -0.3 c 0,-0.3 -0.2,-0.5 -0.5,-0.5 -0.3,0 -0.5,0.2 -0.5,0.5 v 0.3 h -0.2 v 0.6 L 19.2,51 V 50.5 50.2 L 18.4,49.8 V 49.3 L 17.9,49 v -1.2 h 0.5 v -0.3 h -0.5 v -0.3 h -0.3 v 0.3 h -0.5 v 0.3 h 0.5 V 49 l -0.5,0.3 v 0.5 l -0.8,0.4 V 50.5 51 L 16,51.1 v -0.6 h -0.2 v -0.3 c 0,-0.3 -0.2,-0.5 -0.5,-0.5 -0.3,0 -0.5,0.2 -0.5,0.5 v 0.3 h -0.2 v 3.3 0.5 H 14.2 V 54.1 H 14 v -0.3 c 0,-0.3 -0.3,-0.6 -0.6,-0.6 -0.3,0 -0.6,0.3 -0.6,0.6 v 0.3 h -0.4 v 5.2 h 10.5 z m -4.2,-1.8 c 0,-0.6 -0.5,-1.1 -1.1,-1.1 -0.6,0 -1.1,0.5 -1.1,1.1 v 1.3 h 2.1 v -1.3 z m -2.2,4.5 c 0,-0.7 -0.5,-1.2 -1.1,-1.2 -0.6,0 -1.1,0.6 -1.1,1.2 v 1.5 h 2.2 z m 4.5,0 c 0,-0.7 -0.5,-1.2 -1.1,-1.2 -0.6,0 -1.1,0.6 -1.1,1.2 v 1.5 h 2.2 z m 59.4,-2.7 h -0.4 v -0.3 c 0,-0.3 -0.3,-0.6 -0.6,-0.6 -0.3,0 -0.6,0.3 -0.6,0.6 v 0.3 h -0.3 v 0.2 h -0.4 v -0.5 0 -3.3 h -0.1 v -0.3 c 0,-0.3 -0.2,-0.5 -0.5,-0.5 -0.3,0 -0.5,0.2 -0.5,0.5 v 0.3 H 77 v 0.6 L 76.7,51 V 50.5 50.2 L 75.9,49.8 V 49.3 L 75.4,49 v -1.2 h 0.5 v -0.3 h -0.5 v -0.3 h -0.3 v 0.3 h -0.5 v 0.3 h 0.5 V 49 l -0.5,0.3 v 0.5 l -0.8,0.4 v 0.3 0.5 l -0.3,0.2 v -0.6 h -0.2 v -0.3 c 0,-0.3 -0.2,-0.5 -0.5,-0.5 -0.3,0 -0.5,0.2 -0.5,0.5 v 0.3 h -0.2 v 3.3 0.5 h -0.4 v -0.2 h -0.2 v -0.3 c 0,-0.3 -0.3,-0.6 -0.6,-0.6 -0.3,0 -0.6,0.3 -0.6,0.6 v 0.3 h -0.4 v 5.2 h 10.5 v -5.3 z m -4.2,-1.7 c 0,-0.6 -0.5,-1.1 -1.1,-1.1 -0.6,0 -1.1,0.5 -1.1,1.1 v 1.3 h 2.1 z m -2.1,4.4 c 0,-0.7 -0.5,-1.2 -1.1,-1.2 -0.6,0 -1.1,0.6 -1.1,1.2 v 1.5 h 2.2 z m 4.4,0 c 0,-0.7 -0.5,-1.2 -1.1,-1.2 -0.6,0 -1.1,0.6 -1.1,1.2 v 1.5 h 2.2 z m -33,21.2 2.1,0.5 c 0.5,-0.2 0.8,-0.5 1.1,-0.9 L 47.7,78 Z m -0.1,-0.6 c 0.1,0 0,0 2.2,0.3 0,0 0,0 0.6,-0.2 0.1,-0.1 -0.1,0.1 0.6,-0.7 -0.2,0.4 -3,0.7 -3.4,0.6 m 0.1,-0.8 2.1,0.3 c 0.5,-0.1 0.9,-0.4 1.1,-0.8 l -1.1,0.5 z m 0,-0.8 2.1,0.5 0.6,-0.3 0.5,-0.6 -1.1,0.4 z m 0.9,3.4 1.5,-0.7 c -0.8,0.3 -1.7,0.4 -2.5,0.3 0.3,0.2 0.7,0.3 1,0.4 m 2.3,-4.6 -1.1,0.4 c 0.1,0 0.3,0 0.4,-0.1 -0.8,0 -1.7,0.1 -2.5,0.2 l 2.1,0.3 c 0.5,0 0.9,-0.3 1.1,-0.8 m -1.3,3.9 C 46.7,78.4 46,78.3 45.2,78.2 l -1.1,-0.6 c 0.3,0.5 0.7,0.9 1.3,1.1 z m 0,-0.6 c -1.2,0 -2.4,-0.4 -3.4,-1.1 l 0.4,0.8 c 1,0.3 2,0.4 3,0.3 m 0,-0.8 v 0 c -1.2,-0.1 -2.3,-0.5 -3.4,-1 0.3,0.5 0.7,0.9 1.3,1.2 z m 0,-0.8 c -1.2,0.1 -2.4,-0.3 -3.4,-0.9 0.3,0.5 0.7,0.9 1.3,1.1 z m 0,-0.7 v 0 c -1.2,0 -2.4,-0.4 -3.4,-1.1 l 0.4,0.8 c 1,0.3 2,0.4 3,0.3 m 14.9,2.3 h -0.6 v 0.3 H 62 C 62,78 62.2,78 62.4,77.9 m -0.8,0.6 c -0.2,-0.3 -0.2,-0.7 -0.2,-0.7 0,0 0,0.1 -1.4,-0.1 0,0.5 -1.5,0.9 -1,1.1 0.3,0.5 0.3,0.5 0.6,0.6 0.1,0.1 0.3,0.2 0.6,0.2 0.4,-0.2 0.9,-0.6 1.4,-1.1 M 59.8,80 c -0.3,-0.2 -0.5,-0.2 -0.7,-0.2 -0.2,-0.2 -0.3,-0.5 -0.7,-0.5 -0.2,-0.2 -1.4,0 -1.4,0 0,0 0.2,0.5 0.3,0.8 0,0.3 0.8,0.1 0.9,0.1 0,0 0.2,0.2 0.3,0.3 0.5,0 1,-0.3 1.3,-0.5 m -1.5,0.8 c -0.2,0 -0.3,-0.2 -0.6,-0.2 -0.3,-0.2 -0.2,0.3 -0.2,0.3 0,0 -0.2,0.3 -0.2,0.5 0.4,-0.1 0.7,-0.4 1,-0.6 m -2.7,1.5 c 0.8,-0.1 2.1,-1.3 1,-2.2 0.2,0.2 0,0.2 -0.4,0.1 -0.1,0.9 -1.4,0.9 -1.8,0.8 -0.2,-0.1 -0.5,0.6 -0.3,1 0.2,0.4 0.3,0 0.8,0.2 0.1,0 0.2,0 0.3,0 0.1,0 0.2,0.1 0.4,0.1 m -0.5,0.2 c -0.2,0 -0.5,-0.2 -0.5,-0.1 -0.7,-0.2 -0.7,0.5 -1.1,0.8 0.5,-0.3 1.1,-0.4 1.6,-0.7 m -2.6,0.9 c 0.1,-0.3 0.4,-0.5 0.3,-0.5 0.2,0 1.1,-0.4 1,-0.9 0.1,-0.3 0,-0.6 -0.1,-0.6 -0.3,-0.5 -1.1,-0.5 -1.3,0 -0.3,0.1 -1.3,0.2 -1.5,0.5 0,-0.1 0,0 -0.6,0.1 0,0 -0.1,0.3 0,0.5 0,0.1 0.2,0.3 0.3,0.5 0.7,-0.1 1,0.2 1.3,0.6 0.2,-0.2 0.4,-0.2 0.6,-0.2 m -0.9,0.2 c -0.2,-0.2 -0.2,-0.2 -0.2,-0.3 h -0.5 c 0,0 0,0.3 0.2,0.5 h 0.2 c -0.1,-0.1 0.1,-0.2 0.3,-0.2 m -0.7,0.3 c -0.2,-1.2 -1.3,-0.6 -0.4,0.1 0,-0.2 0.3,-0.4 0.4,-0.1 m -1,0 c -0.2,-0.2 -0.3,-0.4 -0.4,-0.3 0.1,-1.1 -1.1,-0.8 -1.8,-1.1 0,0.2 -0.7,0.2 -0.8,0.2 -0.2,0.2 -0.6,0.3 -0.7,0.3 0,0 0,0.3 0,0.5 -0.1,0.2 -0.4,0.3 -0.6,0.3 -0.1,0.1 -0.2,0.1 -0.4,0.2 1.7,0.4 3.2,0.1 4.7,-0.1 m -6,0.2 c -0.3,-0.3 -0.7,-0.5 -0.8,-0.5 -0.2,0.2 -0.2,0 -0.3,0.2 0,0.2 -0.2,0.2 -0.2,0.2 0.5,-0.1 1,0.1 1.3,0.1 M 41,83.6 c 0.6,0 0.9,0.1 1.4,0.2 C 42.3,83.4 41,82.5 41,83.6 m -0.2,-0.2 c 0,-0.2 -0.2,-0.3 -0.3,-0.5 -0.2,0 -0.3,-0.3 -0.6,-0.4 -0.2,-0.2 -0.5,-0.3 -0.8,-0.4 -0.7,0.4 -0.9,0 -1.7,0 0.1,0.1 0,0.2 -0.1,0.2 1.1,0.4 2.3,0.8 3.5,1.1 M 37.1,82.1 C 37,82.1 37,82 37,82 h -0.3 c 0.1,0 0.3,0.1 0.4,0.1 M 34.9,81 c 0.6,-0.3 1.9,1.4 2.4,-0.1 -0.1,0 -0.1,-0.3 -0.2,-0.4 -0.1,0 0,-0.4 -0.3,-0.1 0.6,-1.1 0.2,-2.3 -0.9,-2.2 -1.1,0.1 -1.9,0.7 -1.6,2 -0.4,0 -0.2,0.3 -0.3,0.2 0.4,0.3 0.4,0.4 0.9,0.6 m -1.5,-0.9 c 0.3,-1 -0.5,-1.3 -1.3,-1.1 0.3,0.5 0.8,0.6 1.3,1.1 m -1.6,-1.2 c 0.1,-0.4 -0.5,-0.5 -0.7,-0.5 0.3,0.1 0.5,0.3 0.7,0.5 m 6.1,1.8 c 0.2,0.1 0.6,0.1 0.8,0.2 0.5,0.1 0.4,-0.6 0.5,-1 0.2,-0.1 0.4,-0.2 0.6,-0.4 0.2,-0.2 0.3,-0.3 0.5,-0.6 C 40,78 38.8,78.6 38.1,78 c -0.8,0 -1.1,0.4 -0.7,0.7 0.4,0.3 0,1.3 -0.1,1.4 0,0.1 0.4,0.5 0.6,0.6 m 0.6,1.3 c -0.5,-0.1 0.4,-0.1 0.6,0 0.2,0 0.6,0.1 0.7,0.2 0.4,0.2 1.3,-0.5 1.4,-0.5 -0.2,-0.7 0.1,-1.3 0.3,-2.1 0.1,-0.4 -0.5,-0.3 -0.8,-0.1 -0.3,0.2 -0.7,0.3 -0.9,0.4 0.1,-0.1 -0.2,0.6 -0.1,1.2 0,0.3 -0.1,0.3 -0.2,0.3 -0.1,0 -0.6,0.1 -0.7,0 -0.4,-0.4 -2.2,0.2 -0.3,0.6 m 1.9,-3.2 c 0,0.2 0.2,0.5 0.9,0.4 1.3,-0.3 -0.2,1.7 0.5,1.9 0,-0.2 0.7,-0.5 1.1,-0.6 0.5,-0.1 0.6,-0.6 0.6,-1 0.1,-0.4 -0.6,-0.6 -0.9,-0.8 -0.3,-0.2 -0.8,-0.4 -1.1,-0.3 -0.1,0 -1.1,0.1 -1.1,0.4 m -6.8,0.4 c 0.3,0.7 0.6,-0.5 0.7,-0.5 -0.1,-0.6 -0.3,-0.5 -0.6,-0.5 -0.3,0 -0.7,0 -1.2,-0.4 -1.9,0 -1.9,0 -1.9,0 0,0 0.2,0.1 0.3,0.2 0.1,0.3 1.3,0.1 1,0.1 0.2,0.5 0.3,0.5 0.2,0.5 0.4,0.3 1.1,-0.1 1.5,0.6 m 7.8,3.6 c 0.3,-0.2 0.7,0.3 1,0.5 0.3,0.2 0.7,0.1 0.7,-0.2 C 43,82.8 43,82.4 43.2,82 c 0.2,-0.4 0.3,-0.6 0,-0.9 -0.4,-0.3 -0.4,-0.1 -0.9,0 -0.5,0 -0.9,0 -0.9,0.5 0,0.4 -1,0.4 -0.9,0.8 0.1,0.4 0.6,0.6 0.9,0.4 m 3.5,1.1 c 0,0 0.1,0 0.2,-0.1 0.1,-0.1 0.2,-0.1 0.4,-0.2 0.5,-0.2 0.4,-0.5 0.4,-0.5 0.1,0 0.6,-0.4 0.8,-0.5 0.4,-0.4 -0.6,-0.9 -1.1,-0.6 -0.5,0.3 -1.1,0.1 -1.6,0 -0.6,-0.2 -0.7,0.7 -0.5,1.1 0.2,0.5 1.1,1 1.4,0.8 m -1.5,-3.2 c -0.3,0.1 0.2,0.5 0.5,0.6 0.3,0.2 0.4,0.3 0.8,0.5 0.2,-0.1 0.3,-0.1 0.4,-0.2 0.1,0 0.3,-0.1 0.4,-0.2 0.7,-0.1 1,0.2 1.2,-0.5 -0.1,-0.2 -0.3,-0.5 -0.5,-0.7 -0.2,-0.1 -0.5,-0.3 -0.5,-0.3 0,0 -0.2,0 -0.4,0 -0.2,0 -0.4,-0.2 -0.4,0 -1,-0.9 -0.8,0.5 -1.5,0.8 M 46.3,80 c 0,0 0,0 0.7,0.6 v 0.7 l -0.3,0.5 c 0,0 0.2,0.3 0.5,0.5 0.1,0 0.3,0 0.5,0 0.2,0 0.4,0 0.4,0 -0.2,0 1.4,-0.3 1.1,-0.5 -0.3,-0.2 -0.8,-0.7 -0.8,-1.2 0.2,0.4 -0.7,-0.8 -0.9,-0.9 -0.2,0 -0.8,0.3 -1.2,0.3 m 2,0.2 c 0.6,0.6 0.1,0.5 0.7,1.1 0.4,0.2 1,1 1.6,0.3 -0.1,0.1 0.9,-1.3 -0.1,-1.1 -0.1,-0.3 -0.6,-0.2 -0.7,-0.3 0,-0.2 0,-0.5 -0.2,-0.7 0,0 -1.1,0 -1.1,-0.2 -1.1,0 -0.4,0.5 -0.2,0.9 m -0.5,-1 c 0.2,0.2 0.6,0 0.6,0 0.3,0 0.5,0.3 0.8,0.2 0.6,-0.1 1,0.8 1.3,0.6 0.4,-0.2 1,-0.7 1.2,-1 -0.1,0 0,0 -0.7,-0.3 -0.3,0 -1,0.1 -1.1,-0.2 -0.1,-0.5 -1.3,0.2 -1.7,0.1 -0.2,0.3 -0.4,0.4 -0.4,0.6 M 42,77.9 h -3.6 c 0.7,0.3 1.4,0.4 2.1,0.3 0.5,-0.1 1,-0.2 1.5,-0.3 m -8.9,-0.1 c 0.8,0.6 2.5,0.3 3.8,0.3 0.8,-0.2 0.5,-0.2 0.7,-0.2 -4.5,-0.1 -4.2,0.1 -4.5,-0.1 m 12.1,1.4 v 0 c -0.3,-0.2 -0.7,-0.5 -1,-0.7 -0.1,-0.3 -0.3,-0.6 -0.6,-0.7 h -0.8 c -0.1,0 -0.1,0.1 -0.2,0.2 0,0 0,0 0,0 0,0 0,0.1 0,0.1 0.5,0.3 0.9,0.6 1.3,1 z m -0.5,0.3 c 0.5,0.6 2.5,0.4 3,-0.2 -0.3,0.2 0,-0.1 0,-0.3 -0.1,0.1 -0.9,0.4 -1.4,0.4 0.3,-0.4 -2,0.1 -1.6,0.1 m 3.4,-0.9 c 1,-0.4 1.4,-0.7 2.3,-0.1 0.3,0.2 1.2,-0.7 1,-0.7 0,0 0,0 -0.1,0 -0.1,0 -0.6,-0.1 -0.7,0 -0.8,-0.1 -2.2,0.2 -2.5,0.8 M 52,77.9 c -0.2,0.1 -1,0.6 -0.3,0.8 0.2,0 0.4,0.4 0.5,0.3 -0.2,0.8 -2,0.9 -0.9,1.6 -0.2,-0.1 0.1,0.3 -0.1,0.4 -0.5,0.7 0.7,0.1 0.9,0.2 0.2,0.1 1.2,-0.8 0.9,-1.1 C 52.8,80 53.8,79.4 53.4,79.2 53,79 52.9,78.5 53.2,78.3 53.8,78 53,77.9 52.5,78 52,77.9 52.1,77.9 52,77.9 m 2,0 c -0.1,0.1 -0.8,0.6 -0.4,0.9 0.2,0.1 0.3,0.2 0.3,0.5 0.1,0.2 -0.4,0.6 -0.1,0.4 -0.9,0.7 -0.8,1.7 0.5,1 -0.4,0.1 0.3,0 0.5,0.1 0.2,0 0.7,-0.1 0.6,0 0.3,-0.5 0.7,-0.6 1,-1 0.3,-0.4 -0.1,-0.8 -0.3,-1.2 -0.8,0.4 -0.2,-0.7 -0.9,-0.6 -0.3,0 -1,0 -1.1,0 0,-0.1 -0.1,-0.1 -0.1,-0.1 m 2.9,1.2 c 0.3,-0.3 1.5,0.4 1.6,-0.4 0,0 1,-0.6 0.8,-0.8 -3.2,0 -3.2,0 -3.2,0 -0.3,0.3 0.7,1 0.8,1.2 m -8.1,3.1 c -0.4,0.1 0.7,0.6 0.6,0.5 0,0 0,0 0.3,0.3 0,0 0.3,0 0.3,-0.3 0,-0.2 -0.2,-0.5 -0.1,-0.5 -0.2,0 -0.7,-0.1 -1.1,0 m -7.5,-23.5 3.9,8.1 1.3,1.7 -0.8,1.4 -1.3,-1.6 z m 5,-2.9 0.7,9.4 0.5,1.6 -0.8,1.3 -1.3,-1.7 z m 5.8,4.4 -3.6,8.9 -1.9,2.6 -0.6,-0.2 v -0.9 z m 3.9,2.6 -8.3,9.8 -1.2,2.1 -0.8,0.2 v -1.6 l 3.2,-3.9 z m 1.9,5.7 -10.2,4.8 -0.7,1.3 1.6,-0.2 z m -0.2,-2.8 -7.3,4.7 -2.2,2.1 3.1,-1.3 z m -19.3,-3.9 7.2,8.5 v 1.3 l -1,-0.2 z M 37.3,65.4 43,72 45.4,73.3 46.2,72 44.4,71.7 Z M 35,68 l 8.3,6 2.1,0.8 v -1.2 z"
       id="path8-0"
       inkscape:connector-curvature="0"
       style="clip-rule:evenodd;fill:#ddbc46;fill-rule:evenodd;stroke-width:1.22500002" /><path
       class="st1"
       d="m 81.9,101.3 v 2 7.7 c 0,1.7 -1.4,3.1 -3.1,3.1 H 15.5 c -1.7,0 -3.1,-1.4 -3.1,-3.1 v -7.7 -2.1 -0.1 c 0.2,-0.7 0.7,-1.3 1.3,-1.7 v -4.1 l 2.1,2 c 0.5,0.5 0.9,1.2 1.1,1.9 v 0 2.6 h 60.7 v -2.6 0 c 0.1,-0.8 0.5,-1.4 1.1,-1.9 l 2.1,-2 v 4.1 c 0.5,0.6 0.9,1.2 1.1,1.9 z"
       id="path10-8"
       inkscape:connector-curvature="0"
       style="clip-rule:evenodd;fill:#2c6245;fill-rule:evenodd;stroke-width:1.22500002" /><path
       class="st2"
       d="m 25.7,104 v 0.2 c -0.3,0 -0.5,0.1 -0.6,0.2 -0.2,0.2 -0.5,0.6 -1,1.3 l -1.8,2.8 v 1.9 c 0,0.4 0,0.7 0.1,0.8 0,0.1 0.1,0.2 0.3,0.3 0.1,0.1 0.3,0.1 0.5,0.1 h 0.5 v 0.2 H 19 v -0.2 h 0.4 c 0.2,0 0.4,0 0.6,-0.1 0.1,-0.1 0.2,-0.1 0.3,-0.3 0,-0.1 0.1,-0.3 0.1,-0.7 V 109 l -2,-3.4 c -0.4,-0.7 -0.7,-1.1 -0.8,-1.2 -0.2,-0.1 -0.4,-0.2 -0.6,-0.2 V 104 h 4 v 0.2 h -0.2 c -0.2,0 -0.4,0 -0.5,0.1 -0.1,0.1 -0.2,0.1 -0.2,0.2 0,0.1 0.2,0.5 0.5,1 l 1.5,2.6 1.5,-2.4 c 0.4,-0.6 0.6,-1 0.6,-1.2 0,-0.1 -0.1,-0.2 -0.2,-0.3 -0.1,-0.1 -0.4,-0.2 -0.8,-0.2 v 0 z m 0.5,0 h 4.4 v 0.2 h -0.2 c -0.3,0 -0.6,0 -0.7,0.1 -0.1,0.1 -0.2,0.1 -0.3,0.3 -0.1,0.1 -0.1,0.4 -0.1,0.8 v 3.8 c 0,0.7 0.1,1.2 0.2,1.4 0.1,0.2 0.3,0.4 0.6,0.6 0.3,0.2 0.6,0.2 1,0.2 0.5,0 0.8,-0.1 1.2,-0.3 0.3,-0.2 0.6,-0.5 0.7,-0.8 0.2,-0.3 0.2,-0.9 0.2,-1.8 v -3.2 c 0,-0.4 0,-0.6 -0.1,-0.8 -0.1,-0.2 -0.2,-0.3 -0.3,-0.3 -0.2,-0.1 -0.4,-0.1 -0.8,-0.1 V 104 h 2.9 v 0.2 h -0.2 c -0.2,0 -0.4,0 -0.6,0.1 -0.2,0.1 -0.3,0.2 -0.3,0.4 -0.1,0.1 -0.1,0.3 -0.1,0.7 v 3 c 0,0.9 -0.1,1.6 -0.2,2 -0.1,0.4 -0.4,0.8 -1,1.1 -0.5,0.3 -1.2,0.5 -2.1,0.5 -0.7,0 -1.3,-0.1 -1.7,-0.3 -0.5,-0.2 -0.9,-0.6 -1.2,-0.9 -0.2,-0.4 -0.3,-0.9 -0.3,-1.6 v -3.8 c 0,-0.5 0,-0.7 -0.1,-0.8 -0.1,-0.1 -0.1,-0.2 -0.3,-0.3 -0.1,-0.1 -0.4,-0.1 -0.7,-0.1 V 104 Z m 17.4,-0.1 v 2.7 h -0.2 c -0.2,-0.7 -0.5,-1.3 -1,-1.6 -0.5,-0.4 -1.1,-0.6 -1.7,-0.6 -0.5,0 -1,0.1 -1.5,0.4 -0.4,0.3 -0.8,0.7 -1,1.1 -0.3,0.6 -0.4,1.2 -0.4,1.9 0,0.7 0.1,1.3 0.3,1.9 0.2,0.6 0.5,1 0.9,1.3 0.4,0.3 0.9,0.4 1.6,0.4 0.5,0 1,-0.1 1.5,-0.3 0.4,-0.2 0.9,-0.6 1.4,-1.1 v 0.7 c -0.5,0.5 -1,0.8 -1.5,1 -0.5,0.2 -1.1,0.3 -1.8,0.3 -0.9,0 -1.7,-0.2 -2.4,-0.5 -0.7,-0.3 -1.2,-0.8 -1.6,-1.4 -0.4,-0.6 -0.6,-1.3 -0.6,-2 0,-0.8 0.2,-1.5 0.6,-2.1 0.4,-0.7 1,-1.2 1.7,-1.6 0.7,-0.4 1.5,-0.6 2.3,-0.6 0.6,0 1.2,0.1 1.9,0.4 0.4,0.1 0.6,0.2 0.7,0.2 0.1,0 0.2,0 0.3,-0.1 0.1,-0.1 0.2,-0.2 0.2,-0.4 z m 6,5.8 h -3 l -0.4,0.8 c -0.1,0.3 -0.2,0.5 -0.2,0.6 0,0.2 0.1,0.4 0.3,0.5 0.1,0.1 0.4,0.1 0.8,0.1 v 0.2 h -2.8 v -0.2 c 0.3,0 0.6,-0.2 0.8,-0.4 0.2,-0.2 0.4,-0.6 0.7,-1.2 l 3,-6.3 h 0.1 l 3,6.4 c 0.3,0.6 0.5,1 0.7,1.2 0.1,0.1 0.3,0.2 0.6,0.2 v 0.2 h -4.1 v -0.2 h 0.2 c 0.3,0 0.6,0 0.7,-0.1 0.1,-0.1 0.1,-0.1 0.1,-0.3 0,-0.1 0,-0.1 0,-0.2 0,0 -0.1,-0.2 -0.2,-0.4 z m -0.2,-0.5 -1.3,-2.7 -1.3,2.7 z m 11.3,-5.1 h -7.6 v 2.1 h 0.2 c 0.1,-0.6 0.3,-1 0.7,-1.3 0.3,-0.2 0.7,-0.3 1.2,-0.3 h 0.6 v 6.1 c 0,0.4 0,0.6 -0.1,0.7 -0.1,0.1 -0.1,0.2 -0.3,0.3 -0.2,0.1 -0.3,0.1 -0.6,0.1 h -0.3 v 0.2 h 4.4 v -0.2 h -0.3 c -0.2,0 -0.4,0 -0.6,-0.1 -0.1,-0.1 -0.2,-0.2 -0.3,-0.3 0,-0.1 -0.1,-0.4 -0.1,-0.8 v -6.1 h 0.6 c 0.4,0 0.7,0 0.8,0.1 0.3,0.1 0.5,0.3 0.7,0.5 0.2,0.2 0.3,0.6 0.4,1.1 h 0.2 v -2.1 z m 4.8,5.6 h -3 l -0.4,0.8 c -0.1,0.3 -0.2,0.5 -0.2,0.6 0,0.2 0.1,0.4 0.3,0.5 0.1,0.1 0.4,0.1 0.8,0.1 v 0.2 h -2.8 v -0.2 c 0.3,0 0.6,-0.2 0.8,-0.4 0.2,-0.2 0.4,-0.6 0.7,-1.2 l 3,-6.3 h 0.1 l 3.1,6.4 c 0.3,0.6 0.5,1 0.7,1.2 0.1,0.1 0.3,0.2 0.6,0.2 v 0.2 h -4.1 v -0.2 h 0.2 c 0.3,0 0.6,0 0.7,-0.1 0.1,-0.1 0.1,-0.2 0.1,-0.3 0,-0.1 0,-0.1 0,-0.2 0,0 -0.1,-0.2 -0.2,-0.4 z m -0.2,-0.5 -1.3,-2.7 -1.3,2.7 z m 7.3,-5.1 4.2,4.9 v -3.4 c 0,-0.5 -0.1,-0.8 -0.2,-1 -0.2,-0.2 -0.5,-0.3 -1,-0.3 v -0.2 h 2.8 v 0.2 c -0.4,0 -0.6,0.1 -0.7,0.2 -0.1,0.1 -0.2,0.2 -0.3,0.3 -0.1,0.1 -0.1,0.4 -0.1,0.8 v 6.5 H 77 l -5.7,-6.5 v 5 c 0,0.5 0.1,0.8 0.3,0.9 0.2,0.2 0.5,0.2 0.8,0.2 h 0.2 v 0.2 h -3 v -0.2 c 0.5,0 0.8,-0.1 1,-0.3 0.2,-0.2 0.3,-0.5 0.3,-0.9 V 105 l -0.2,-0.2 c -0.2,-0.2 -0.3,-0.3 -0.5,-0.4 -0.1,-0.1 -0.3,-0.1 -0.6,-0.1 v -0.2 z m 8.1,-1.6 h -2 v -2.4 c 0.9,-0.1 1.7,0.5 2,1.3 z m -2,-2.9 v 0 c 0.2,0 0.5,0 0.7,0.1 v -1.4 c -0.4,0.3 -0.6,0.8 -0.7,1.3 m -63.2,13.2 h 63.3 c 1.1,0 1.9,-0.9 1.9,-1.9 v -7.8 H 13.6 v 7.8 c 0,1.1 0.8,1.9 1.9,1.9 m -1.9,-10.4 h 2 V 100 c -0.9,-0.1 -1.7,0.5 -2,1.3 z m 2,-2.8 v 0 c -0.2,0 -0.5,0 -0.7,0.1 v -1.4 c 0.4,0.3 0.6,0.7 0.7,1.3"
       id="path12-0"
       inkscape:connector-curvature="0"
       style="clip-rule:evenodd;fill:#ddbc46;fill-rule:evenodd;stroke-width:1.22500002" /></g><g
     id="g70"
     style="stroke-width:1.22500002"><g
       id="g68"
       style="stroke-width:1.22500002"><path
         class="st3"
         d="m 104.3,38.2 h 8 v 10.3 h -2.7 l -0.4,-2.4 c -1,1.2 -2.5,2.9 -6,2.9 -4.6,0 -8.8,-3.3 -8.8,-10 0,-5.2 2.9,-10.1 9.3,-10.1 h 0.1 c 5.9,0 8.2,3.8 8.4,6.4 h -4 c 0,-0.7 -1.4,-3.1 -4.2,-3.1 -2.8,0 -5.5,2 -5.5,6.9 0,5.2 2.8,6.6 5.6,6.6 0.9,0 3.8,-0.3 4.6,-4.2 h -4.4 z"
         id="path16-1"
         inkscape:connector-curvature="0"
         style="fill:#2b2b2b;stroke-width:1.22500002" /><path
         class="st3"
         d="m 122.1,48.8 c -3.8,0 -7.2,-2.3 -7.2,-7.5 0,-5.2 3.4,-7.5 7.2,-7.5 3.8,0 7.2,2.3 7.2,7.5 0,5.2 -3.4,7.5 -7.2,7.5 z m 0,-11.7 c -2.9,0 -3.4,2.5 -3.4,4.3 0,1.8 0.5,4.3 3.4,4.3 2.9,0 3.4,-2.5 3.4,-4.3 0,-1.8 -0.5,-4.3 -3.4,-4.3 z"
         id="path18-0"
         inkscape:connector-curvature="0"
         style="fill:#2b2b2b;stroke-width:1.22500002" /><path
         class="st3"
         d="m 135.4,36.1 v 0 c 0.6,-0.9 1.8,-2.2 4.2,-2.2 3.1,0 5.9,2.4 5.9,7.3 0,3.9 -1.8,7.6 -6,7.6 -1.5,0 -3.2,-0.6 -4.1,-2.2 h -0.1 v 1.8 h -3.6 V 29.3 h 3.7 z m 3,1 c -2.6,0 -3.2,2.3 -3.2,4.6 0,2.1 0.9,4.1 3.3,4.1 2.4,0 3.1,-2.6 3.1,-4.3 0,-2.3 -0.8,-4.4 -3.2,-4.4 z"
         id="path20-9"
         inkscape:connector-curvature="0"
         style="fill:#2b2b2b;stroke-width:1.22500002" /><path
         class="st3"
         d="M 151.7,32.6 H 148 v -3.5 h 3.7 z m 0,1.7 V 48.5 H 148 V 34.3 Z"
         id="path22-0"
         inkscape:connector-curvature="0"
         style="fill:#2b2b2b;stroke-width:1.22500002" /><path
         class="st3"
         d="m 167.3,44.3 c -1,3.4 -3.8,4.5 -6.2,4.5 -4,0 -7.1,-1.9 -7.1,-7.7 0,-1.7 0.6,-7.2 6.8,-7.2 2.8,0 6.7,1.3 6.7,7.8 v 0.7 h -9.7 c 0.1,1.1 0.3,3.5 3.3,3.5 1,0 2.1,-0.5 2.4,-1.5 h 3.8 z M 163.6,40 c -0.2,-2.3 -1.7,-3 -2.9,-3 -1.8,0 -2.7,1.1 -2.9,3 z"
         id="path24-3"
         inkscape:connector-curvature="0"
         style="fill:#2b2b2b;stroke-width:1.22500002" /><path
         class="st3"
         d="m 169.8,34.3 h 3.6 v 2.5 h 0.1 c 0.8,-1.4 1.6,-2.8 3.9,-2.8 0.2,0 0.5,0 0.7,0.1 v 3.8 c -0.3,-0.1 -0.7,-0.1 -1.1,-0.1 -2.9,0 -3.4,1.8 -3.4,3.4 v 7.4 h -3.7 V 34.3 Z"
         id="path26-9"
         inkscape:connector-curvature="0"
         style="fill:#2b2b2b;stroke-width:1.22500002" /><path
         class="st3"
         d="m 192.6,48.5 h -3.7 v -8.6 c 0,-1 -0.1,-2.8 -2.4,-2.8 -1.7,0 -2.9,1.1 -2.9,3.3 v 8.1 h -3.7 V 34.3 h 3.6 v 2.1 h 0.1 c 0.5,-0.9 1.6,-2.5 4.3,-2.5 2.8,0 4.9,1.6 4.9,4.7 v 9.9 z"
         id="path28-5"
         inkscape:connector-curvature="0"
         style="fill:#2b2b2b;stroke-width:1.22500002" /><path
         class="st3"
         d="m 202.2,48.8 c -3.8,0 -7.2,-2.3 -7.2,-7.5 0,-5.2 3.4,-7.5 7.2,-7.5 3.8,0 7.2,2.3 7.2,7.5 0,5.2 -3.4,7.5 -7.2,7.5 z m 0,-11.7 c -2.9,0 -3.4,2.5 -3.4,4.3 0,1.8 0.5,4.3 3.4,4.3 2.9,0 3.4,-2.5 3.4,-4.3 0,-1.8 -0.5,-4.3 -3.4,-4.3 z"
         id="path30-9"
         inkscape:connector-curvature="0"
         style="fill:#2b2b2b;stroke-width:1.22500002" /><path
         class="st3"
         d="m 108,74.6 h -3.6 v -1.8 h -0.1 c -0.9,1.6 -2.6,2.2 -4.1,2.2 -4.2,0 -6,-3.7 -6,-7.6 0,-4.9 2.8,-7.3 5.9,-7.3 2.4,0 3.5,1.3 4.1,2.2 h 0.1 v -6.8 h 3.7 z m -6.9,-2.7 c 2.4,0 3.3,-2 3.3,-4.1 0,-2.3 -0.6,-4.6 -3.2,-4.6 -2.4,0 -3.2,2.1 -3.2,4.3 0.1,1.8 0.7,4.4 3.1,4.4 z"
         id="path32"
         inkscape:connector-curvature="0"
         style="fill:#2b2b2b;stroke-width:1.22500002" /><path
         class="st3"
         d="m 123.5,70.5 c -1,3.4 -3.8,4.5 -6.2,4.5 -4,0 -7.1,-1.9 -7.1,-7.7 0,-1.7 0.6,-7.2 6.8,-7.2 2.8,0 6.7,1.3 6.7,7.8 v 0.7 H 114 c 0.1,1.1 0.3,3.5 3.3,3.5 1,0 2.1,-0.5 2.4,-1.5 h 3.8 z m -3.6,-4.4 c -0.2,-2.3 -1.7,-3 -2.9,-3 -1.8,0 -2.7,1.1 -2.9,3 z"
         id="path34"
         inkscape:connector-curvature="0"
         style="fill:#2b2b2b;stroke-width:1.22500002" /><path
         class="st3"
         d="m 129.8,74.6 h -3.7 V 55.5 h 3.7 z"
         id="path36-2"
         inkscape:connector-curvature="0"
         style="fill:#2b2b2b;stroke-width:1.22500002" /><path
         class="st3"
         d="M 155.1,58.9 H 145 v 4 h 9.3 v 3.4 H 145 v 5 h 10.6 v 3.4 H 141.1 V 55.5 h 14.1 v 3.4 z"
         id="path38-1"
         inkscape:connector-curvature="0"
         style="fill:#2b2b2b;stroke-width:1.22500002" /><path
         class="st3"
         d="m 166.3,64.8 c -0.2,-0.9 -0.5,-1.9 -2.5,-1.9 -2,0 -2.3,0.8 -2.3,1.4 0,2.2 8.9,0.6 8.9,5.8 0,4.1 -4,4.9 -6.2,4.9 -3.2,0 -6.7,-1.1 -6.8,-4.9 h 3.8 c 0,1.2 0.7,2.1 3.1,2.1 1.9,0 2.4,-0.9 2.4,-1.5 0,-2.4 -8.8,-0.6 -8.8,-5.9 0,-2.1 1.3,-4.7 5.7,-4.7 2.8,0 6.1,0.7 6.4,4.7 z"
         id="path40-0"
         inkscape:connector-curvature="0"
         style="fill:#2b2b2b;stroke-width:1.22500002" /><path
         class="st3"
         d="m 177.1,60.5 h 2.3 v 2.7 h -2.3 v 7.7 c 0,0.8 0,1.1 1.5,1.1 0.2,0 0.5,0 0.8,-0.1 v 2.8 c -0.6,0 -1.2,0.1 -1.8,0.1 h -0.5 c -3.2,0 -3.8,-1.2 -3.8,-3.1 v -8.6 h -1.9 v -2.7 h 1.9 v -3.8 h 3.7 v 3.9 z"
         id="path42-3"
         inkscape:connector-curvature="0"
         style="fill:#2b2b2b;stroke-width:1.22500002" /><path
         class="st3"
         d="m 193.2,71.9 c 0,1.7 0.4,2.1 0.8,2.2 v 0.6 h -4 c -0.2,-0.7 -0.3,-0.9 -0.3,-1.7 -0.9,0.9 -2.1,2.1 -4.6,2.1 -2.1,0 -4.3,-1.2 -4.3,-4.1 0,-2.8 1.8,-4.2 4.1,-4.5 l 3.4,-0.5 c 0.6,-0.1 1.3,-0.3 1.3,-1.1 0,-1.6 -1.5,-1.7 -2.4,-1.7 -1.9,0 -2.2,1.1 -2.3,2 h -3.6 c 0.4,-4.3 3.4,-5 6.3,-5 2,0 5.6,0.6 5.6,4.1 z m -3.6,-4.2 c -0.4,0.3 -1,0.5 -2.5,0.8 -1.4,0.2 -2.5,0.6 -2.5,2.1 0,1.3 1,1.7 1.7,1.7 1.7,0 3.3,-1.1 3.3,-2.8 z"
         id="path44-5"
         inkscape:connector-curvature="0"
         style="fill:#2b2b2b;stroke-width:1.22500002" /><path
         class="st3"
         d="m 209.2,74.6 h -3.6 v -1.8 h -0.1 c -0.9,1.6 -2.6,2.2 -4.1,2.2 -4.2,0 -6,-3.7 -6,-7.6 0,-4.9 2.8,-7.3 5.9,-7.3 2.4,0 3.5,1.3 4.1,2.2 h 0.1 v -6.8 h 3.7 z m -6.8,-2.7 c 2.4,0 3.3,-2 3.3,-4.1 0,-2.3 -0.6,-4.6 -3.2,-4.6 -2.4,0 -3.2,2.1 -3.2,4.3 0,1.8 0.7,4.4 3.1,4.4 z"
         id="path46"
         inkscape:connector-curvature="0"
         style="fill:#2b2b2b;stroke-width:1.22500002" /><path
         class="st3"
         d="m 218.8,75 c -3.8,0 -7.2,-2.3 -7.2,-7.5 0,-5.1 3.4,-7.5 7.2,-7.5 3.8,0 7.2,2.3 7.2,7.5 0,5.1 -3.4,7.5 -7.2,7.5 z m 0,-11.8 c -2.9,0 -3.4,2.5 -3.4,4.3 0,1.8 0.5,4.3 3.4,4.3 2.9,0 3.4,-2.5 3.4,-4.3 0,-1.8 -0.5,-4.3 -3.4,-4.3 z"
         id="path48"
         inkscape:connector-curvature="0"
         style="fill:#2b2b2b;stroke-width:1.22500002" /><path
         class="st3"
         d="m 108,100.8 h -3.6 V 99 h -0.1 c -0.9,1.6 -2.6,2.2 -4.1,2.2 -4.2,0 -6,-3.7 -6,-7.6 0,-4.9 2.8,-7.3 5.9,-7.3 2.4,0 3.5,1.3 4.1,2.2 h 0.1 v -6.8 h 3.7 z m -6.9,-2.7 c 2.4,0 3.3,-2 3.3,-4.1 0,-2.3 -0.6,-4.6 -3.2,-4.6 -2.4,0 -3.2,2.1 -3.2,4.3 0.1,1.8 0.7,4.4 3.1,4.4 z"
         id="path50"
         inkscape:connector-curvature="0"
         style="fill:#2b2b2b;stroke-width:1.22500002" /><path
         class="st3"
         d="m 123.5,96.6 c -1,3.4 -3.8,4.5 -6.2,4.5 -4,0 -7.1,-1.9 -7.1,-7.7 0,-1.7 0.6,-7.2 6.8,-7.2 2.8,0 6.7,1.3 6.7,7.8 v 0.7 H 114 c 0.1,1.1 0.3,3.5 3.3,3.5 1,0 2.1,-0.5 2.4,-1.5 h 3.8 z m -3.6,-4.3 c -0.2,-2.3 -1.7,-3 -2.9,-3 -1.8,0 -2.7,1.1 -2.9,3 z"
         id="path52"
         inkscape:connector-curvature="0"
         style="fill:#2b2b2b;stroke-width:1.22500002" /><path
         class="st3"
         d="m 139.1,100.8 h -4 v -7.2 l -6.6,-11.9 h 4.7 l 4,8.3 3.8,-8.3 h 4.5 l -6.4,12 z"
         id="path54"
         inkscape:connector-curvature="0"
         style="fill:#2b2b2b;stroke-width:1.22500002" /><path
         class="st3"
         d="m 158.8,100.8 h -3.6 v -2 h -0.1 c -0.9,1.5 -2.3,2.4 -4.3,2.4 -2.8,0 -4.8,-1.6 -4.8,-5.2 v -9.3 h 3.7 v 8.8 c 0,2.2 1.3,2.6 2.4,2.6 1.2,0 2.9,-0.7 2.9,-3.2 v -8.2 h 3.7 v 14.1 z"
         id="path56"
         inkscape:connector-curvature="0"
         style="fill:#2b2b2b;stroke-width:1.22500002" /><path
         class="st3"
         d="m 174.3,95.6 c -0.1,1.5 -1.3,5.5 -6.5,5.5 -5.3,0 -6.6,-4.1 -6.6,-7.1 0,-4.6 2,-7.9 6.8,-7.9 2.2,0 5.9,1 6.3,5.4 h -3.8 c -0.2,-0.9 -0.7,-2.3 -2.3,-2.3 H 168 c -2.3,0 -3,2.3 -3,4.1 0,1.5 0.1,4.6 2.9,4.6 1.9,0 2.5,-1.8 2.5,-2.5 h 3.9 z"
         id="path58"
         inkscape:connector-curvature="0"
         style="fill:#2b2b2b;stroke-width:1.22500002" /><path
         class="st3"
         d="m 188.2,98 c 0,1.7 0.4,2.1 0.8,2.2 v 0.6 h -4 c -0.2,-0.7 -0.3,-0.9 -0.3,-1.7 -0.9,0.9 -2.1,2.1 -4.6,2.1 -2.1,0 -4.3,-1.2 -4.3,-4.1 0,-2.8 1.8,-4.2 4.1,-4.5 l 3.4,-0.5 c 0.6,-0.1 1.3,-0.3 1.3,-1.1 0,-1.6 -1.5,-1.7 -2.4,-1.7 -1.9,0 -2.2,1.1 -2.3,2 h -3.6 c 0.4,-4.3 3.4,-5 6.3,-5 2,0 5.6,0.6 5.6,4.1 z m -3.6,-4.1 c -0.4,0.3 -1,0.5 -2.5,0.8 -1.4,0.2 -2.5,0.6 -2.5,2.1 0,1.3 1,1.7 1.7,1.7 1.7,0 3.3,-1.1 3.3,-2.8 z"
         id="path60"
         inkscape:connector-curvature="0"
         style="fill:#2b2b2b;stroke-width:1.22500002" /><path
         class="st3"
         d="m 195.5,86.6 h 2.3 v 2.7 h -2.3 V 97 c 0,0.8 0,1.1 1.5,1.1 0.2,0 0.5,0 0.8,-0.1 v 2.8 c -0.6,0 -1.2,0.1 -1.8,0.1 h -0.5 c -3.2,0 -3.8,-1.2 -3.8,-3.1 v -8.6 h -1.9 v -2.7 h 1.9 v -3.8 h 3.7 v 3.9 z"
         id="path62"
         inkscape:connector-curvature="0"
         style="fill:#2b2b2b;stroke-width:1.22500002" /><path
         class="st3"
         d="m 211.6,98 c 0,1.7 0.4,2.1 0.8,2.2 v 0.6 h -4 c -0.2,-0.7 -0.3,-0.9 -0.3,-1.7 -0.9,0.9 -2.1,2.1 -4.6,2.1 -2.1,0 -4.3,-1.2 -4.3,-4.1 0,-2.8 1.8,-4.2 4.1,-4.5 l 3.4,-0.5 c 0.6,-0.1 1.3,-0.3 1.3,-1.1 0,-1.6 -1.5,-1.7 -2.4,-1.7 -1.9,0 -2.2,1.1 -2.3,2 h -3.6 c 0.4,-4.3 3.4,-5 6.3,-5 2,0 5.6,0.6 5.6,4.1 z M 208,93.9 c -0.4,0.3 -1,0.5 -2.5,0.8 -1.4,0.2 -2.5,0.6 -2.5,2.1 0,1.3 1,1.7 1.7,1.7 1.7,0 3.3,-1.1 3.3,-2.8 z m -1,-9.2 h -2.7 l 2.5,-3.9 h 4.1 z"
         id="path64"
         inkscape:connector-curvature="0"
         style="fill:#2b2b2b;stroke-width:1.22500002" /><path
         class="st3"
         d="m 227.6,100.8 h -3.7 v -8.6 c 0,-1 -0.1,-2.8 -2.4,-2.8 -1.7,0 -2.9,1.1 -2.9,3.3 v 8.1 h -3.7 V 86.6 h 3.6 v 2.1 h 0.1 c 0.5,-0.9 1.6,-2.4 4.3,-2.4 2.8,0 4.9,1.6 4.9,4.7 v 9.8 z"
         id="path66"
         inkscape:connector-curvature="0"
         style="fill:#2b2b2b;stroke-width:1.22500002" /></g></g></g></svg>