<?xml version="1.0" encoding="UTF-8" standalone="no"?>
<!-- Generator: Adobe Illustrator 19.0.0, SVG Export Plug-In . SVG Version: 6.00 Build 0)  -->

<svg
   xmlns:dc="http://purl.org/dc/elements/1.1/"
   xmlns:cc="http://creativecommons.org/ns#"
   xmlns:rdf="http://www.w3.org/1999/02/22-rdf-syntax-ns#"
   xmlns:svg="http://www.w3.org/2000/svg"
   xmlns="http://www.w3.org/2000/svg"
   xmlns:sodipodi="http://sodipodi.sourceforge.net/DTD/sodipodi-0.dtd"
   xmlns:inkscape="http://www.inkscape.org/namespaces/inkscape"
   version="1.1"
   id="Layer_1"
   x="0px"
   y="0px"
   viewBox="0 0 32.000001 32.000001"
   xml:space="preserve"
   sodipodi:docname="favicon.svg"
   width="32"
   height="32"
   inkscape:version="0.92.4 (5da689c313, 2019-01-14)"><metadata
   id="metadata72"><rdf:RDF><cc:Work
       rdf:about=""><dc:format>image/svg+xml</dc:format><dc:type
         rdf:resource="http://purl.org/dc/dcmitype/StillImage" /><dc:title></dc:title></cc:Work></rdf:RDF></metadata><defs
   id="defs70" /><sodipodi:namedview
   pagecolor="#ffffff"
   bordercolor="#666666"
   borderopacity="1"
   objecttolerance="10"
   gridtolerance="10"
   guidetolerance="10"
   inkscape:pageopacity="0"
   inkscape:pageshadow="2"
   inkscape:window-width="1920"
   inkscape:window-height="986"
   id="namedview68"
   showgrid="false"
   inkscape:zoom="1.5529342"
   inkscape:cx="256.64999"
   inkscape:cy="81.349998"
   inkscape:window-x="-11"
   inkscape:window-y="-11"
   inkscape:window-maximized="1"
   inkscape:current-layer="Layer_1" />
<style
   type="text/css"
   id="style2">
	.st0{fill:#77BC1F;}
	.st1{fill:#FFCE00;}
	.st2{fill:#DF8797;}
	.st3{fill:#00A8E1;}
	.st4{fill:#0075C9;}
	.st5{fill:#904799;}
	.st6{fill:#FF8300;}
	.st7{fill:#007565;}
	.st8{fill:#00A887;}
	.st9{fill:#022169;}
	.st10{fill:#005CB9;}
	.st11{fill:#752F8A;}
	.st12{fill:#B6008D;}
	.st13{fill:#FF5959;}
</style>
<g
   id="XMLID_258_"
   transform="matrix(0.20473448,0,0,0.20473448,-0.20473409,-0.65514995)">
	<path
   id="XMLID_138_"
   class="st0"
   d="m 1.5,51.5 h 10.4 c 1.1,0 2.1,-0.1 3.1,-0.3 0.6,-0.1 1.1,-0.6 1.2,-1.1 4,-18.6 20.5,-32.6 40.3,-32.6 h 2.1 C 59,15.3 59.2,13 59.2,10.6 V 3.2 H 56.4 C 28.3,3.2 5,24.3 1.5,51.5 Z"
   inkscape:connector-curvature="0"
   style="fill:#77bc1f" />
	<path
   id="XMLID_137_"
   class="st1"
   d="M 47.8,144.3 C 29.2,140.3 15.2,123.8 15.2,104 v -2.1 C 13,101.5 10.7,101.3 8.3,101.3 H 1 v 2.8 c 0,28.2 21,51.4 48.2,55 v -10.4 c 0,-1.1 -0.1,-2.1 -0.3,-3.1 0,-0.7 -0.5,-1.2 -1.1,-1.3 z"
   inkscape:connector-curvature="0"
   style="fill:#ffce00" />
	<path
   id="XMLID_136_"
   class="st2"
   d="m 143.3,111.5 c -0.6,0.1 -1.1,0.6 -1.2,1.1 -4,18.6 -20.5,32.6 -40.3,32.6 h -2.1 c -0.4,2.2 -0.6,4.5 -0.6,6.9 0,0 0,0 0,0 v 7.4 h 2.8 c 28.2,0 51.4,-21 55,-48.2 h -10.4 c -1.2,0 -2.2,0 -3.2,0.2 z"
   inkscape:connector-curvature="0"
   style="fill:#df8797" />
	<path
   id="XMLID_135_"
   class="st3"
   d="m 109,3.7 v 10.4 c 0,1.1 0.1,2.1 0.3,3.1 0.1,0.6 0.6,1.1 1.1,1.2 18.6,4 32.6,20.5 32.6,40.3 v 2.1 c 2.2,0.4 4.5,0.6 6.9,0.6 h 7.4 V 58.6 C 157.2,30.5 136.2,7.3 109,3.7 Z"
   inkscape:connector-curvature="0"
   style="fill:#00a8e1" />
	<polygon
   id="XMLID_134_"
   class="st4"
   points="59.2,159.5 59.2,152.1 "
   style="fill:#0075c9" />
	<polygon
   id="XMLID_133_"
   class="st5"
   points="99,159.5 99,152.1 "
   style="fill:#904799" />
	<polygon
   id="XMLID_132_"
   class="st4"
   points="99,3.2 99,10.6 "
   style="fill:#0075c9" />
	<polygon
   id="XMLID_131_"
   class="st5"
   points="59.2,3.2 59.2,10.6 "
   style="fill:#904799" />
	<path
   id="XMLID_130_"
   class="st6"
   d="m 64.9,122.9 c -1.9,-2.8 -4,-5.3 -6.4,-7.8 L 45.3,102 C 42.9,99.6 40.3,97.5 37.5,95.6 29,89.8 19,86.7 8.4,86.7 H 1 v 14.6 h 7.4 c 10.1,0 19.5,3.9 26.6,11 l 13.1,13.1 c 7.1,7.1 11,16.6 11,26.6 v 7.4 H 73.7 V 152 c 0.1,-10.5 -3,-20.5 -8.8,-29.1 z"
   inkscape:connector-curvature="0"
   style="fill:#ff8300" />
	<path
   id="XMLID_129_"
   class="st7"
   d="m 70.2,50.5 c -1.3,1.6 -2.7,3.1 -4.2,4.6 L 52.9,68.3 c -1.5,1.5 -3,2.9 -4.6,4.2 -4.4,3.6 -9.3,6.6 -14.4,8.9 -7.9,3.5 -16.5,5.4 -25.4,5.4 v 0 c 10.6,0 20.6,3.1 29.2,8.9 3.7,-1.5 7.3,-3.3 10.7,-5.4 4.2,-2.5 8.2,-5.5 12,-8.9 1,-0.9 2,-1.8 2.9,-2.8 L 76.4,65.5 c 1,-1 1.9,-1.9 2.8,-2.9 -3.4,-3.8 -6.4,-7.8 -9,-12.1 z"
   inkscape:connector-curvature="0"
   style="fill:#007565" />
	<path
   id="XMLID_128_"
   class="st8"
   d="m 59.2,3.2 v 7.4 c 0,10.1 -3.9,19.5 -11,26.6 L 35,50.4 c -7.1,7.1 -16.6,11 -26.6,11 H 1 V 76 H 8.4 C 19,76 29,72.9 37.6,67.1 c 2.8,-1.9 5.4,-4 7.8,-6.4 L 58.5,47.6 c 2.4,-2.4 4.5,-5 6.4,-7.8 5.8,-8.6 8.9,-18.6 8.9,-29.2 V 3.2 Z"
   inkscape:connector-curvature="0"
   style="fill:#00a887" />
	<path
   id="XMLID_127_"
   class="st9"
   d="M 105.3,68.3 92.2,55.1 C 90.7,53.6 89.3,52.1 88,50.5 84.4,46.1 81.4,41.2 79.1,36.1 75.6,28.2 73.7,19.6 73.7,10.7 v 0 c 0,10.6 -3.1,20.6 -8.9,29.2 v 0 c 1.5,3.7 3.3,7.3 5.4,10.7 2.6,4.2 5.5,8.2 8.9,12 0.9,1 1.8,2 2.8,2.9 L 95,78.6 c 1,1 1.9,1.9 2.9,2.8 3.7,-3.4 7.7,-6.3 12,-8.9 -1.5,-1.3 -3.1,-2.7 -4.6,-4.2 z"
   inkscape:connector-curvature="0"
   style="fill:#022169" />
	<path
   id="XMLID_126_"
   class="st10"
   d="m 149.8,61.5 c -10.1,0 -19.5,-3.9 -26.6,-11 L 110.1,37.4 C 103,30.3 99.1,20.8 99.1,10.8 V 3.2 H 84.5 v 7.4 c 0,10.6 3.1,20.6 8.9,29.2 1.9,2.8 4,5.3 6.4,7.8 l 13.1,13.1 c 2.4,2.4 5,4.5 7.8,6.4 8.6,5.8 18.6,8.9 29.2,8.9 h 7.4 v -14.5 0 0 z"
   inkscape:connector-curvature="0"
   style="fill:#005cb9" />
	<path
   id="XMLID_125_"
   class="st11"
   d="m 149.8,76 c -10.6,0 -20.6,-3.1 -29.2,-8.9 -3.7,1.5 -7.3,3.3 -10.7,5.4 -4.2,2.5 -8.2,5.5 -12,8.9 -1,0.9 -2,1.8 -2.9,2.8 L 81.9,97.3 c -1,1 -1.9,1.9 -2.8,2.9 3.4,3.7 6.3,7.7 8.9,12 1.3,-1.6 2.7,-3.1 4.2,-4.6 l 13.1,-13.1 c 1.5,-1.5 3,-2.9 4.6,-4.2 4.4,-3.6 9.3,-6.6 14.4,-8.9 8,-3.5 16.6,-5.4 25.5,-5.4 z"
   inkscape:connector-curvature="0"
   style="fill:#752f8a" />
	<path
   id="XMLID_124_"
   class="st12"
   d="m 149.8,86.7 c -10.6,0 -20.6,3.1 -29.2,8.9 -2.8,1.9 -5.4,4 -7.8,6.4 l -13.1,13.1 c -2.4,2.4 -4.5,5 -6.4,7.8 v 0 c -5.8,8.6 -8.9,18.6 -8.9,29.2 v 7.4 H 99 v -7.4 c 0,0 0,0 0,0 0,-10.1 3.9,-19.5 11,-26.6 l 13.1,-13.1 c 7.1,-7.1 16.6,-11 26.6,-11 h 7.4 V 86.7 Z"
   inkscape:connector-curvature="0"
   style="fill:#b6008d" />
	<path
   id="XMLID_123_"
   class="st13"
   d="m 88,112.2 c -2.5,-4.2 -5.5,-8.2 -8.9,-12 -0.9,-1 -1.8,-2 -2.8,-2.9 L 63.2,84.2 c -1,-1 -1.9,-1.9 -2.9,-2.8 -3.7,3.4 -7.7,6.3 -12,8.9 1.6,1.3 3.1,2.7 4.6,4.2 L 66,107.6 c 1.5,1.5 2.9,3 4.2,4.6 3.6,4.4 6.6,9.3 8.9,14.4 3.5,7.9 5.4,16.5 5.4,25.4 0,-10.6 3.1,-20.6 8.9,-29.2 v 0 c -1.5,-3.6 -3.3,-7.2 -5.4,-10.6 z"
   inkscape:connector-curvature="0"
   style="fill:#ff5959" />
</g>



</svg>