<?xml version="1.0" encoding="UTF-8" standalone="no"?>
<!-- Generator: Adobe Illustrator 23.0.1, SVG Export Plug-In . SVG Version: 6.00 Build 0)  -->

<svg
   xmlns:svg="http://www.w3.org/2000/svg"
   xmlns="http://www.w3.org/2000/svg"
   xmlns:sodipodi="http://sodipodi.sourceforge.net/DTD/sodipodi-0.dtd"
   xmlns:inkscape="http://www.inkscape.org/namespaces/inkscape"
   version="1.1"
   id="Layer_1"
   x="0px"
   y="0px"
   viewBox="0 0 260 80"
   style="enable-background:new 0 0 260 80;"
   xml:space="preserve"
   sodipodi:docname="logo-yucatan-blanco.svg"
   inkscape:version="0.92.4 (5da689c313, 2019-01-14)"><defs
     id="defs121" /><sodipodi:namedview
     pagecolor="#ffffff"
     bordercolor="#666666"
     borderopacity="1"
     objecttolerance="10"
     gridtolerance="10"
     guidetolerance="10"
     inkscape:pageopacity="0"
     inkscape:pageshadow="2"
     inkscape:window-width="1366"
     inkscape:window-height="705"
     id="namedview119"
     showgrid="false"
     inkscape:zoom="1.3423077"
     inkscape:cx="93.085168"
     inkscape:cy="40"
     inkscape:window-x="-8"
     inkscape:window-y="-8"
     inkscape:window-maximized="1"
     inkscape:current-layer="Layer_1" /><path
     id="path112"
     style="fill:#ffffff;fill-opacity:1"
     d="m 233.5,71.5 c -0.5,0.5 -1.3,0.8 -2.3,0.8 -1,0 -1.7,-0.3 -2.3,-0.8 -0.7,-0.7 -1,-1.6 -1,-2.8 0,-1.3 0.3,-2.2 1,-2.8 0.5,-0.5 1.3,-0.8 2.3,-0.8 1,0 1.7,0.3 2.3,0.8 0.7,0.6 1,1.6 1,2.8 0,1.2 -0.3,2.1 -1,2.8 z m -0.9,-1.1 c 0.3,-0.4 0.5,-1 0.5,-1.8 0,-0.8 -0.2,-1.4 -0.5,-1.8 -0.3,-0.4 -0.8,-0.6 -1.4,-0.6 -0.6,0 -1,0.2 -1.4,0.6 -0.4,0.4 -0.5,1 -0.5,1.8 0,0.8 0.2,1.4 0.5,1.8 0.3,0.4 0.8,0.6 1.4,0.6 0.6,0 1,-0.1 1.4,-0.6 z m -7.3,-5.1 c 0.5,0.2 0.9,0.5 1.2,0.9 0.2,0.3 0.4,0.7 0.5,1.1 0.1,0.4 0.1,0.8 0.1,1.1 0,0.9 -0.2,1.7 -0.6,2.3 -0.5,0.9 -1.3,1.3 -2.3,1.3 h -3 v -6.9 h 3 c 0.4,0.1 0.8,0.2 1.1,0.2 z m -2.7,1.1 v 4.5 h 1.3 c 0.7,0 1.2,-0.3 1.4,-1 0.1,-0.4 0.2,-0.8 0.2,-1.3 0,-0.7 -0.1,-1.2 -0.3,-1.6 -0.2,-0.4 -0.7,-0.6 -1.3,-0.6 z m -6.3,-1.2 h 1.6 l 2.4,6.9 h -1.6 l -0.5,-1.4 h -2.5 l -0.5,1.4 h -1.5 z m -0.1,4.3 h 1.8 l -0.9,-2.7 z m -2,-4.3 v 1.2 h -2.1 v 5.7 h -1.5 v -5.7 h -2.1 V 65.2 Z M 203.8,70 c 0,0.3 0.1,0.6 0.3,0.7 0.2,0.3 0.6,0.4 1.2,0.4 0.3,0 0.6,0 0.8,-0.1 0.4,-0.1 0.6,-0.4 0.6,-0.8 0,-0.2 -0.1,-0.4 -0.3,-0.5 -0.2,-0.1 -0.5,-0.2 -1,-0.3 l -0.7,-0.2 c -0.7,-0.2 -1.2,-0.3 -1.5,-0.5 -0.5,-0.3 -0.7,-0.8 -0.7,-1.5 0,-0.6 0.2,-1.1 0.7,-1.5 0.5,-0.4 1.1,-0.6 2,-0.6 0.7,0 1.4,0.2 1.9,0.6 0.5,0.4 0.8,0.9 0.8,1.7 h -1.4 c 0,-0.4 -0.2,-0.7 -0.6,-0.9 -0.2,-0.1 -0.5,-0.2 -0.9,-0.2 -0.4,0 -0.7,0.1 -0.9,0.2 -0.2,0.2 -0.3,0.4 -0.3,0.6 0,0.2 0.1,0.4 0.3,0.6 0.1,0.1 0.4,0.2 0.9,0.3 l 1.2,0.3 c 0.5,0.1 0.9,0.3 1.2,0.5 0.4,0.3 0.6,0.8 0.6,1.4 0,0.6 -0.2,1.2 -0.7,1.6 -0.5,0.4 -1.2,0.6 -2.1,0.6 -0.9,0 -1.6,-0.2 -2.1,-0.6 -0.5,-0.4 -0.8,-1 -0.8,-1.7 h 1.5 z m -2.3,-3.6 h -3.7 v 1.5 h 3.4 v 1.2 h -3.4 v 1.8 h 3.8 v 1.2 h -5.2 v -6.9 h 5.1 z M 188,65.2 h 1.4 v 5.7 h 3.4 v 1.2 H 188 Z m -1.3,1.2 H 183 v 1.5 h 3.4 v 1.2 H 183 v 1.8 h 3.8 v 1.2 h -5.2 v -6.9 h 5.1 z m -8,-1.1 c 0.5,0.2 0.9,0.5 1.2,0.9 0.2,0.3 0.4,0.7 0.5,1.1 0.1,0.4 0.1,0.8 0.1,1.1 0,0.9 -0.2,1.7 -0.6,2.3 -0.5,0.9 -1.3,1.3 -2.3,1.3 h -3 v -6.9 h 3 c 0.5,0.1 0.8,0.2 1.1,0.2 z m -2.6,1.1 v 4.5 h 1.3 c 0.7,0 1.2,-0.3 1.4,-1 0.1,-0.4 0.2,-0.8 0.2,-1.3 0,-0.7 -0.1,-1.2 -0.3,-1.6 -0.2,-0.4 -0.7,-0.6 -1.3,-0.6 z m -6.2,5.1 c -0.5,0.5 -1.3,0.8 -2.3,0.8 -1,0 -1.7,-0.3 -2.3,-0.8 -0.7,-0.7 -1,-1.6 -1,-2.8 0,-1.3 0.3,-2.2 1,-2.8 0.5,-0.5 1.3,-0.8 2.3,-0.8 1,0 1.7,0.3 2.3,0.8 0.7,0.6 1,1.6 1,2.8 0,1.2 -0.3,2.1 -1,2.8 z M 169,70.4 c 0.3,-0.4 0.5,-1 0.5,-1.8 0,-0.8 -0.2,-1.4 -0.5,-1.8 -0.3,-0.4 -0.8,-0.6 -1.4,-0.6 -0.6,0 -1,0.2 -1.4,0.6 -0.3,0.4 -0.5,1 -0.5,1.8 0,0.8 0.2,1.4 0.5,1.8 0.3,0.4 0.8,0.6 1.4,0.6 0.6,0 1,-0.1 1.4,-0.6 z m -11.4,-5.2 h 1.5 l 2.7,4.8 v -4.8 h 1.3 v 6.9 h -1.4 l -2.8,-4.9 v 4.9 h -1.3 z m -2.5,0.2 c 0.3,0.1 0.5,0.3 0.6,0.5 0.1,0.2 0.3,0.4 0.3,0.6 0.1,0.2 0.1,0.5 0.1,0.7 0,0.3 -0.1,0.7 -0.2,1 -0.2,0.3 -0.4,0.5 -0.8,0.7 0.3,0.1 0.5,0.3 0.7,0.5 0.1,0.2 0.2,0.6 0.2,1.1 V 71 c 0,0.3 0,0.5 0,0.6 0,0.2 0.1,0.3 0.3,0.4 v 0.2 h -1.6 c 0,-0.2 -0.1,-0.3 -0.1,-0.4 0,-0.2 -0.1,-0.4 -0.1,-0.6 v -0.6 c 0,-0.4 -0.1,-0.7 -0.2,-0.9 -0.1,-0.1 -0.4,-0.2 -0.8,-0.2 h -1.4 v 2.7 h -1.4 v -6.9 h 3.3 c 0.5,-0.1 0.9,0 1.1,0.1 z m -3,1 v 1.9 h 1.6 c 0.3,0 0.5,0 0.7,-0.1 0.3,-0.1 0.4,-0.4 0.4,-0.8 0,-0.4 -0.1,-0.7 -0.4,-0.8 -0.1,-0.1 -0.4,-0.1 -0.7,-0.1 h -1.6 z m -2.7,0 h -3.7 v 1.5 h 3.4 v 1.2 h -3.4 v 1.8 h 3.8 v 1.2 h -5.2 v -6.9 h 5.1 z m -6.5,5.7 h -1.4 v -6.9 h 1.4 z m -3,-6.2 c 0.2,0.3 0.3,0.6 0.3,1.1 0,0.4 -0.1,0.8 -0.3,1 -0.1,0.1 -0.3,0.3 -0.5,0.4 0.4,0.1 0.6,0.3 0.8,0.6 0.2,0.3 0.3,0.6 0.3,1 0,0.4 -0.1,0.8 -0.3,1.1 -0.1,0.2 -0.3,0.4 -0.5,0.5 -0.2,0.2 -0.5,0.3 -0.8,0.3 -0.3,0 -0.6,0.1 -1,0.1 h -3.1 v -6.9 h 3.3 c 0.8,0.1 1.4,0.4 1.8,0.8 z m -3.8,0.5 v 1.5 h 1.7 c 0.3,0 0.5,-0.1 0.7,-0.2 0.2,-0.1 0.3,-0.3 0.3,-0.6 0,-0.3 -0.1,-0.5 -0.4,-0.6 -0.2,-0.1 -0.5,-0.1 -0.8,-0.1 z m 0,2.7 v 1.8 h 1.7 c 0.3,0 0.5,0 0.7,-0.1 0.3,-0.2 0.5,-0.4 0.5,-0.9 0,-0.4 -0.1,-0.6 -0.4,-0.7 -0.2,-0.1 -0.4,-0.1 -0.7,-0.1 z m -3.5,2.4 c -0.5,0.5 -1.3,0.8 -2.3,0.8 -1,0 -1.7,-0.3 -2.3,-0.8 -0.7,-0.7 -1,-1.6 -1,-2.8 0,-1.3 0.3,-2.2 1,-2.8 0.5,-0.5 1.3,-0.8 2.3,-0.8 1,0 1.7,0.3 2.3,0.8 0.7,0.6 1,1.6 1,2.8 0,1.2 -0.3,2.1 -1,2.8 z m -0.9,-1.1 c 0.3,-0.4 0.5,-1 0.5,-1.8 0,-0.8 -0.2,-1.4 -0.5,-1.8 -0.3,-0.4 -0.8,-0.6 -1.4,-0.6 -0.6,0 -1,0.2 -1.4,0.6 -0.4,0.4 -0.5,1 -0.5,1.8 0,0.8 0.2,1.4 0.5,1.8 0.3,0.4 0.8,0.6 1.4,0.6 0.6,0.1 1,-0.1 1.4,-0.6 z m -7.3,-3 c -0.1,-0.5 -0.4,-0.8 -0.8,-1 -0.2,-0.1 -0.5,-0.2 -0.8,-0.2 -0.6,0 -1,0.2 -1.4,0.6 -0.4,0.4 -0.5,1 -0.5,1.9 0,0.8 0.2,1.4 0.6,1.8 0.4,0.4 0.8,0.5 1.3,0.5 0.5,0 0.9,-0.1 1.2,-0.4 0.3,-0.3 0.5,-0.6 0.6,-1.1 H 123 v -1.2 h 2.9 V 72 h -1 l -0.1,-0.9 c -0.3,0.3 -0.5,0.6 -0.7,0.7 -0.4,0.2 -0.8,0.3 -1.4,0.3 -0.9,0 -1.7,-0.3 -2.2,-1 -0.6,-0.6 -0.9,-1.5 -0.9,-2.6 0,-1.1 0.3,-2 0.9,-2.7 0.6,-0.7 1.4,-1 2.4,-1 0.9,0 1.6,0.2 2.1,0.7 0.5,0.4 0.8,1 0.9,1.7 h -1.5 z M 255.8,13.6 c 0.2,0 0.2,0.1 0.2,0.2 v 1.1 c 0,0.2 -0.1,0.2 -0.3,0.2 H 253 c -0.6,0 -0.9,0.2 -0.9,0.5 v 0.1 c 0,0.3 0.2,0.5 0.7,0.7 l 1.9,0.7 c 1.2,0.4 1.6,1.1 1.6,2.2 v 0.2 c 0,1.6 -1.1,2.2 -3.2,2.2 -1.1,0 -2.1,0 -3.1,-0.1 -0.2,0 -0.3,-0.1 -0.3,-0.2 v -1.2 c 0,-0.1 0.1,-0.2 0.3,-0.2 h 3.1 c 0.8,0 1,-0.1 1,-0.5 v -0.1 c 0,-0.3 -0.2,-0.5 -0.8,-0.7 L 251.5,18 c -1,-0.3 -1.5,-1.1 -1.5,-2.3 v -0.3 c 0,-1.5 1.1,-2.1 3.4,-2.1 0.9,0.1 1.7,0.1 2.4,0.3 z m -7.8,0.6 c 0.6,0.7 0.7,1.6 0.7,3.4 0,1.7 -0.3,2.8 -0.7,3.4 -0.5,0.6 -1.5,0.8 -3.1,0.8 -1.5,0 -2.6,-0.3 -3.1,-0.8 -0.5,-0.6 -0.7,-1.7 -0.7,-3.4 0,-1.7 0.3,-2.8 0.7,-3.4 0.5,-0.6 1.5,-0.8 3.1,-0.8 1.7,0 2.5,0.2 3.1,0.8 z m -4.3,1.5 c -0.2,0.3 -0.3,0.9 -0.3,1.9 0,1 0.1,1.6 0.3,1.9 0.2,0.3 0.6,0.4 1.3,0.4 0.7,0 1.1,-0.1 1.3,-0.4 0.2,-0.3 0.3,-0.9 0.3,-1.9 0,-1 -0.1,-1.6 -0.3,-1.9 -0.2,-0.3 -0.6,-0.5 -1.3,-0.5 -0.7,0.1 -1.1,0.2 -1.3,0.5 z M 239,14 c 0.5,0.4 0.7,1.3 0.7,2.5 v 5 c 0,0.2 -0.1,0.2 -0.2,0.2 h -1.8 c -0.1,0 -0.2,-0.1 -0.2,-0.2 v -4 c -0.1,-2.2 -0.1,-2.2 -1.4,-2.2 -0.4,0 -0.8,0 -1.2,0.1 0.1,0.4 0.2,0.9 0.2,1.6 v 4.6 c 0,0.2 -0.1,0.2 -0.2,0.2 H 233 c -0.1,0 -0.2,-0.1 -0.2,-0.2 V 17 c 0,-0.8 0,-1.3 -0.3,-1.5 -0.3,-0.2 -0.5,-0.3 -1.1,-0.3 h -1 v 6.3 c 0,0.2 -0.1,0.2 -0.2,0.2 h -1.8 c -0.1,0 -0.2,-0.1 -0.2,-0.2 v -7.7 c 0,-0.1 0.1,-0.2 0.2,-0.2 0.8,-0.2 1.7,-0.3 2.9,-0.3 1.1,0 2,0.2 2.7,0.5 0.8,-0.3 1.7,-0.5 2.6,-0.5 1.1,0 1.9,0.3 2.4,0.7 z m -12.9,0.2 c 0.5,0.6 0.7,1.7 0.7,3.3 V 18 c 0,0.3 -0.1,0.4 -0.5,0.4 h -4.7 c 0,0.7 0.1,1.1 0.3,1.3 0.2,0.2 0.7,0.3 1.3,0.3 h 2.6 c 0.1,0 0.2,0.1 0.2,0.2 v 1.2 c 0,0.1 -0.1,0.2 -0.2,0.2 -0.7,0.1 -1.6,0.2 -2.8,0.2 -1.5,0 -2.5,-0.3 -3,-0.8 -0.5,-0.6 -0.7,-1.7 -0.7,-3.4 0,-1.7 0.3,-2.8 0.7,-3.4 0.5,-0.6 1.5,-0.8 3,-0.8 1.6,0 2.6,0.2 3.1,0.8 z m -4.5,2.7 h 2.9 c 0,-1.3 -0.4,-1.7 -1.4,-1.7 -1.1,0.1 -1.4,0.4 -1.5,1.7 z M 217.2,14 c 0.5,0.4 0.7,1.3 0.7,2.5 v 5 c 0,0.2 -0.1,0.2 -0.2,0.2 h -1.8 c -0.1,0 -0.2,-0.1 -0.2,-0.2 v -4 c -0.1,-2.2 -0.1,-2.2 -1.4,-2.2 -0.4,0 -0.8,0 -1.2,0.1 0.1,0.4 0.2,0.9 0.2,1.6 v 4.6 c 0,0.2 -0.1,0.2 -0.2,0.2 h -1.8 c -0.1,0 -0.2,-0.1 -0.2,-0.2 V 17 c 0,-0.8 0,-1.3 -0.3,-1.5 -0.3,-0.2 -0.5,-0.3 -1.1,-0.3 h -1 v 6.3 c 0,0.2 -0.1,0.2 -0.2,0.2 h -1.8 c -0.1,0 -0.2,-0.1 -0.2,-0.2 v -7.7 c 0,-0.1 0.1,-0.2 0.2,-0.2 0.8,-0.2 1.7,-0.3 2.9,-0.3 1.1,0 2,0.2 2.7,0.5 0.8,-0.3 1.7,-0.5 2.6,-0.5 1,0 1.9,0.3 2.3,0.7 z m -12.1,-0.5 c 0.2,0 0.2,0.1 0.2,0.3 V 15 c 0,0.1 -0.1,0.2 -0.3,0.2 h -1.4 c -0.8,0 -1,0.1 -1,0.8 v 5.5 c 0,0.2 -0.1,0.2 -0.2,0.2 h -1.8 c -0.1,0 -0.2,-0.1 -0.2,-0.2 v -6.1 c 0,-0.7 0.2,-1.3 0.6,-1.5 0.6,-0.5 1.3,-0.6 2.1,-0.6 0.9,0.1 1.6,0.1 2,0.2 z m -6.9,0.7 c 0.6,0.7 0.7,1.6 0.7,3.4 0,1.7 -0.3,2.8 -0.7,3.4 -0.5,0.6 -1.5,0.8 -3.1,0.8 -1.5,0 -2.6,-0.3 -3.1,-0.8 -0.5,-0.6 -0.7,-1.7 -0.7,-3.4 0,-1.7 0.3,-2.8 0.7,-3.4 0.5,-0.6 1.5,-0.8 3.1,-0.8 1.7,0 2.5,0.2 3.1,0.8 z m -4.3,1.5 c -0.2,0.3 -0.3,0.9 -0.3,1.9 0,1 0.1,1.6 0.3,1.9 0.2,0.3 0.6,0.4 1.3,0.4 0.7,0 1.1,-0.1 1.3,-0.4 0.2,-0.3 0.3,-0.9 0.3,-1.9 0,-1 -0.1,-1.6 -0.3,-1.9 -0.2,-0.3 -0.6,-0.5 -1.3,-0.5 -0.7,0 -1.2,0.2 -1.3,0.5 z M 191,10.3 c 0.2,0 0.2,0.1 0.2,0.3 v 1.2 c 0,0.2 -0.1,0.2 -0.3,0.2 h -1.2 c -0.6,0 -0.8,0.1 -0.8,0.6 v 0.8 h 1.8 c 0.1,0 0.2,0.1 0.2,0.3 l -0.2,1.3 c 0,0.1 -0.1,0.2 -0.3,0.2 h -1.5 v 6.4 c 0,0.2 -0.1,0.2 -0.2,0.2 h -1.8 c -0.1,0 -0.2,-0.1 -0.2,-0.2 v -6.4 h -1 c -0.2,0 -0.3,-0.1 -0.3,-0.2 v -1.3 c 0,-0.1 0.1,-0.2 0.3,-0.2 h 1 v -1.2 c 0,-0.9 0.3,-1.5 0.8,-1.8 0.5,-0.3 1,-0.3 1.8,-0.3 0.6,0 1.1,0 1.7,0.1 z m -6.9,3.3 c 0.2,0 0.2,0.1 0.2,0.2 v 1.1 c 0,0.2 -0.1,0.2 -0.3,0.2 h -2.7 c -0.6,0 -0.9,0.2 -0.9,0.5 v 0.1 c 0,0.3 0.2,0.5 0.7,0.7 l 1.9,0.7 c 1.2,0.4 1.6,1.1 1.6,2.2 v 0.2 c 0,1.6 -1.1,2.2 -3.2,2.2 -1.1,0 -2.1,0 -3.1,-0.1 -0.2,0 -0.3,-0.1 -0.3,-0.2 v -1.2 c 0,-0.1 0.1,-0.2 0.3,-0.2 h 3.1 c 0.8,0 1,-0.1 1,-0.5 v -0.1 c 0,-0.3 -0.2,-0.5 -0.8,-0.7 L 179.8,18 c -1,-0.3 -1.5,-1.1 -1.5,-2.3 v -0.3 c 0,-1.5 1.1,-2.1 3.4,-2.1 0.9,0.1 1.7,0.1 2.4,0.3 z m -8,0.4 c 0.6,0.5 0.7,1.4 0.7,2.9 v 4.6 c 0,0.2 -0.1,0.2 -0.2,0.2 h -1.8 c -0.1,0 -0.2,-0.1 -0.2,-0.2 v -4 c 0,-1.1 0,-1.6 -0.3,-1.9 -0.3,-0.3 -0.5,-0.3 -1.3,-0.3 h -1.4 v 6.3 c 0,0.2 -0.1,0.2 -0.2,0.2 h -1.8 c -0.1,0 -0.2,-0.1 -0.2,-0.2 v -7.7 c 0,-0.2 0.1,-0.2 0.2,-0.2 0.8,-0.2 1.9,-0.3 3.6,-0.3 1.6,0 2.3,0.1 2.9,0.6 z m -9.1,0 c 0.5,0.4 0.8,1.1 0.8,1.9 v 5.2 c 0,0.2 -0.1,0.4 -0.3,0.5 -0.9,0.2 -2,0.3 -3.4,0.3 -1.3,0 -1.9,-0.1 -2.5,-0.4 -0.6,-0.4 -0.9,-1 -0.9,-2.2 0,-1 0.3,-1.6 0.7,-1.9 0.5,-0.3 1.3,-0.5 2.3,-0.5 h 1.9 v -0.5 c 0,-0.7 -0.5,-1 -1.4,-1 h -2.7 c -0.2,0 -0.2,0 -0.2,-0.2 V 14 c 0,-0.2 0,-0.2 0.2,-0.2 0.8,-0.1 1.7,-0.2 2.7,-0.2 1.3,-0.2 2.3,0 2.8,0.4 z m -1.5,4.3 h -1.7 c -0.8,0 -1,0.2 -1,0.9 0,0.7 0.3,0.9 1.3,0.9 0.6,0 1.1,0 1.5,-0.1 V 18.3 Z M 160,13.5 c 0.2,0 0.2,0.1 0.2,0.3 V 15 c 0,0.1 -0.1,0.2 -0.3,0.2 h -1.4 c -0.8,0 -1,0.1 -1,0.8 v 5.5 c 0,0.2 -0.1,0.2 -0.2,0.2 h -1.8 c -0.1,0 -0.2,-0.1 -0.2,-0.2 v -6.1 c 0,-0.7 0.2,-1.3 0.6,-1.5 0.6,-0.5 1.3,-0.6 2.1,-0.6 0.9,0.1 1.6,0.1 2,0.2 z m -7.8,-2.4 c 0.2,0 0.2,0 0.2,0.2 v 2.1 h 1.4 c 0.2,0 0.3,0.1 0.3,0.2 v 1.2 c 0,0.1 -0.1,0.2 -0.3,0.2 h -1.4 v 4.1 c 0,0.6 0.2,0.8 0.9,0.8 h 0.6 c 0.2,0 0.3,0.1 0.3,0.2 v 1.3 c 0,0.2 -0.1,0.3 -0.2,0.3 -0.4,0.1 -0.9,0.1 -1.3,0.1 -0.6,0 -0.9,0 -1.4,-0.1 -0.7,-0.2 -1,-0.7 -1,-1.8 v -4.8 h -0.9 c -0.2,0 -0.2,-0.1 -0.2,-0.2 v -1.2 c 0,-0.1 0.1,-0.2 0.2,-0.2 h 0.9 v -1.7 c 0,-0.1 0.1,-0.2 0.2,-0.2 z m -7.1,2.5 c 0.2,0 0.2,0.1 0.2,0.2 v 1.1 c 0,0.2 -0.1,0.2 -0.3,0.2 h -2.7 c -0.6,0 -0.9,0.2 -0.9,0.5 v 0.1 c 0,0.3 0.2,0.5 0.7,0.7 l 1.9,0.7 c 1.2,0.4 1.6,1.1 1.6,2.2 v 0.2 c 0,1.6 -1.1,2.2 -3.2,2.2 -1.1,0 -2.1,0 -3.1,-0.1 -0.2,0 -0.3,-0.1 -0.3,-0.2 v -1.2 c 0,-0.1 0.1,-0.2 0.3,-0.2 h 3.1 c 0.8,0 1,-0.1 1,-0.5 v -0.1 c 0,-0.3 -0.2,-0.5 -0.8,-0.7 L 140.8,18 c -1,-0.3 -1.5,-1.1 -1.5,-2.3 v -0.3 c 0,-1.5 1.1,-2.1 3.4,-2.1 0.9,0.1 1.7,0.1 2.4,0.3 z m -7.8,0.6 c 0.6,0.7 0.7,1.6 0.7,3.4 0,1.7 -0.3,2.8 -0.7,3.4 -0.5,0.6 -1.5,0.8 -3.1,0.8 -1.5,0 -2.6,-0.3 -3.1,-0.8 -0.5,-0.6 -0.7,-1.7 -0.7,-3.4 0,-1.7 0.3,-2.8 0.7,-3.4 0.5,-0.6 1.5,-0.8 3.1,-0.8 1.6,0 2.5,0.2 3.1,0.8 z m -4.4,1.5 c -0.2,0.3 -0.3,0.9 -0.3,1.9 0,1 0.1,1.6 0.3,1.9 0.2,0.3 0.6,0.4 1.3,0.4 0.7,0 1.1,-0.1 1.3,-0.4 0.2,-0.3 0.3,-0.9 0.3,-1.9 0,-1 -0.1,-1.6 -0.3,-1.9 -0.2,-0.3 -0.6,-0.5 -1.3,-0.5 -0.7,0 -1.1,0.2 -1.3,0.5 z m -5.4,-4.6 c 0.2,0 0.2,0 0.2,0.2 v 2.1 h 1.4 c 0.2,0 0.3,0.1 0.3,0.2 v 1.2 c 0,0.1 -0.1,0.2 -0.3,0.2 h -1.4 v 4.1 c 0,0.6 0.2,0.8 0.9,0.8 h 0.6 c 0.2,0 0.3,0.1 0.3,0.2 v 1.3 c 0,0.2 -0.1,0.3 -0.2,0.3 -0.4,0.1 -0.9,0.1 -1.3,0.1 -0.6,0 -0.9,0 -1.4,-0.1 -0.7,-0.2 -1,-0.7 -1,-1.8 v -4.8 h -0.9 c -0.2,0 -0.2,-0.1 -0.2,-0.2 v -1.2 c 0,-0.1 0.1,-0.2 0.2,-0.2 h 0.9 v -1.7 c 0,-0.1 0.1,-0.2 0.2,-0.2 z m -4.8,2.9 c 0.6,0.5 0.7,1.4 0.7,2.9 v 4.6 c 0,0.2 -0.1,0.2 -0.2,0.2 h -1.8 c -0.1,0 -0.2,-0.1 -0.2,-0.2 v -4 c 0,-1.1 0,-1.6 -0.3,-1.9 -0.3,-0.3 -0.5,-0.3 -1.3,-0.3 h -1.4 v 6.3 c 0,0.2 -0.1,0.2 -0.2,0.2 h -1.8 c -0.1,0 -0.2,-0.1 -0.2,-0.2 v -7.7 c 0,-0.2 0.1,-0.2 0.2,-0.2 0.8,-0.2 1.9,-0.3 3.6,-0.3 1.5,0 2.3,0.1 2.9,0.6 z m -8.6,-0.6 c 0.1,0 0.2,0.1 0.2,0.2 v 7.7 c 0,0.2 0,0.2 -0.2,0.3 -0.9,0.2 -2.1,0.3 -3.6,0.3 -1.5,0 -2.3,-0.1 -2.9,-0.7 -0.6,-0.5 -0.7,-1.4 -0.7,-2.9 v -4.6 c 0,-0.1 0.1,-0.2 0.2,-0.2 h 1.8 c 0.1,0 0.2,0.1 0.2,0.2 v 4 c 0,0.7 0,1.2 0.1,1.6 0.2,0.6 0.5,0.7 1.5,0.7 h 1.3 v -6.3 c 0,-0.1 0.1,-0.2 0.2,-0.2 h 1.9 z m -9.2,-2.9 c 0.1,0 0.2,0.1 0.2,0.2 v 5.4 c 0,2.2 -0.3,3.7 -1,4.5 -0.7,0.8 -2,1.2 -3.9,1.2 -0.8,0 -1.6,-0.1 -2.4,-0.2 -0.2,0 -0.3,-0.2 -0.3,-0.4 V 20 c 0,-0.1 0.1,-0.2 0.2,-0.2 h 2.5 c 1,0 1.7,-0.2 2,-0.7 0.3,-0.5 0.5,-1.5 0.5,-2.9 v -5.4 c 0,-0.1 0.1,-0.2 0.2,-0.2 h 2 z m 120.3,20.1 c 0.7,0 1.3,-0.4 1.5,-1 l 1.2,-3.3 c 0.1,-0.3 0,-0.4 -0.3,-0.4 h -8.1 c -0.7,0 -1.3,0.3 -1.6,1.1 l -1.2,3.2 c -0.1,0.3 0,0.4 0.3,0.4 z M 122.9,26.4 h -5.8 c -1.1,0 -1.8,0.4 -2.3,1.4 l -4.7,10.1 -4.7,-10 c -0.5,-1 -1.3,-1.4 -2.3,-1.4 h -5.5 c -0.6,0 -0.8,0.3 -0.5,0.9 l 9.1,17.9 v 10 c 0,0.5 0.2,0.7 0.6,0.7 h 6.4 c 0.4,0 0.6,-0.2 0.6,-0.7 v -9.9 l 9.5,-18 c 0.4,-0.7 0.2,-1 -0.4,-1 z m 20.1,7 h -4.7 c -1,0 -1.7,0.7 -1.7,1.7 V 50.2 H 134 c -1.8,0 -2.7,-0.1 -3.3,-0.8 -0.5,-0.9 -0.7,-2.2 -0.6,-5 V 34 c 0,-0.4 -0.2,-0.6 -0.6,-0.6 h -4.6 c -0.9,0 -1.7,0.8 -1.7,1.7 v 11.3 c 0,4.1 0.4,6.3 1.9,7.8 1.5,1.5 3.7,1.9 7.8,1.9 4.2,0 7.6,-0.2 10.1,-0.7 0.5,-0.1 0.6,-0.2 0.6,-0.7 V 34 c 0,-0.4 -0.2,-0.6 -0.6,-0.6 z m 21.6,0.3 c -1.7,-0.3 -3.4,-0.5 -6.2,-0.5 -5.4,0.1 -7.9,0.7 -9.4,3.5 -0.8,1.9 -1.1,4.1 -1.1,7.9 v 0 c 0,3.8 0.3,6.1 1.1,7.9 1.4,2.8 4,3.4 9.4,3.5 2.8,0 4.4,-0.2 6.2,-0.5 0.9,-0.2 1.3,-0.8 1.3,-1.8 v -3 c 0,-0.4 -0.2,-0.6 -0.7,-0.6 h -6.7 c -1.5,0 -2.5,-0.4 -2.9,-1.1 -0.4,-0.7 -0.7,-2.1 -0.7,-4.3 v 0 c 0,0 0,-0.1 0,-0.1 0,0 0,-0.1 0,-0.1 v 0 c 0,-2.2 0.2,-3.6 0.7,-4.3 0.5,-0.7 1.5,-1.1 2.9,-1.1 h 6.7 c 0.5,0 0.7,-0.2 0.7,-0.6 v -3 c 0,-1 -0.4,-1.6 -1.3,-1.8 z m 90.4,1.4 c -1.5,-1.5 -3.7,-1.9 -7.8,-1.9 -4.8,0 -8.2,0.2 -10.2,0.7 -0.4,0.1 -0.6,0.1 -0.6,0.6 v 20.7 c 0,0.4 0.2,0.6 0.6,0.6 h 5.8 c 0.4,0 0.6,-0.2 0.6,-0.6 V 39.1 h 2.7 c 1.9,0 2.6,0 3.3,0.9 0.6,0.9 0.6,2 0.6,5 v 10.3 c 0,0.4 0.2,0.6 0.6,0.6 h 5.7 c 0.4,0 0.6,-0.2 0.6,-0.6 V 42.8 c 0.1,-4.1 -0.3,-6.3 -1.9,-7.7 z m -33.6,-1.9 c -2.6,0 -4.9,0.2 -6.9,0.5 -0.9,0.2 -1.4,0.7 -1.4,1.8 v 3 c 0,0.4 0.2,0.6 0.5,0.6 h 7.8 c 2,0 3,0.8 3,2.3 v 0.8 H 220 c -3.1,0 -5.2,0.4 -6.6,1.3 -1.3,0.9 -2,2.7 -2.1,5.3 0.2,4 1.2,5.8 3.7,6.5 0.9,0.2 1.8,0.4 2.7,0.4 0.9,0.1 2,0.1 3.5,0.1 3.4,0 6.4,-0.3 9.1,-0.8 0.6,-0.2 1,-0.6 1,-1.3 V 40.3 c 0.1,-4.2 -1.2,-7.1 -9.9,-7.1 z m 3,17 c -0.9,0.2 -2,0.3 -3.4,0.3 -2.2,0 -2.8,-0.4 -2.8,-2 0,-1.5 0.6,-2.1 2.5,-2.1 h 3.7 z m -45.2,-17 c -2.6,0 -4.9,0.2 -6.9,0.5 -0.9,0.2 -1.4,0.7 -1.4,1.8 v 3 c 0,0.4 0.2,0.6 0.5,0.6 h 7.8 c 2,0 3,0.8 3,2.3 v 0.8 h -4.4 c -3.1,0 -5.2,0.4 -6.6,1.3 -1.3,0.9 -2,2.7 -2.1,5.3 0.2,4 1.2,5.8 3.7,6.5 0.9,0.2 1.8,0.4 2.7,0.4 0.9,0.1 2,0.1 3.5,0.1 3.4,0 6.4,-0.3 9.1,-0.8 0.6,-0.2 1,-0.6 1,-1.3 V 40.3 c 0.1,-4.2 -1.2,-7.1 -9.9,-7.1 z m 3,17 c -0.9,0.2 -2,0.3 -3.4,0.3 -2.2,0 -2.8,-0.4 -2.8,-2 0,-1.5 0.6,-2.1 2.5,-2.1 h 3.7 z m 24.7,-0.3 h -1.6 c -1.8,0 -2.3,-0.4 -2.3,-2.1 v -9.9 h 3.5 c 0.5,0 0.7,-0.2 0.7,-0.7 v -4 c 0,-0.4 -0.2,-0.6 -0.7,-0.6 H 203 v -5.3 c 0,-0.5 -0.4,-0.7 -0.7,-0.7 h -4.5 c -1.2,0 -2,0.5 -2,2.1 v 3.9 h -2.5 c -0.5,0 -0.7,0.2 -0.7,0.6 v 4 c 0,0.5 0.2,0.7 0.7,0.7 h 2.5 v 12.5 c 0,2.6 0.6,4.2 2.1,4.9 0.8,0.3 1.5,0.5 2.1,0.6 0.7,0.1 1.6,0.1 2.8,0.1 1.1,0 2.5,-0.2 4.1,-0.5 0.5,-0.1 0.7,-0.4 0.7,-0.8 v -4.3 c 0,-0.3 -0.3,-0.5 -0.7,-0.5 z M 48,55.2 c -1.3,-2.1 -2.7,-4.1 -4.4,-5.9 -0.4,-0.5 -0.9,-1 -1.4,-1.4 l -6.5,-6.5 c -0.5,-0.5 -1,-0.9 -1.4,-1.4 -1.8,1.7 -3.8,3.1 -5.9,4.4 0.8,0.6 1.5,1.3 2.3,2.1 l 6.5,6.5 c 0.7,0.7 1.4,1.5 2.1,2.3 1.8,2.2 3.3,4.6 4.4,7.1 1.7,3.9 2.6,8.2 2.6,12.6 0,-5.2 1.5,-10.2 4.4,-14.4 v 0 C 49.9,58.7 49.1,56.9 48,55.2 Z M 78.6,42.6 c -5.2,0 -10.2,1.5 -14.4,4.4 -1.4,0.9 -2.6,2 -3.8,3.2 l -6.5,6.5 c -1.2,1.2 -2.2,2.5 -3.2,3.8 v 0 c -2.9,4.2 -4.4,9.2 -4.4,14.4 v 3.7 h 7.2 v -3.7 c 0,0 0,0 0,0 0,-5 1.9,-9.6 5.5,-13.2 l 6.5,-6.5 c 3.5,-3.5 8.2,-5.5 13.2,-5.5 h 3.7 v -7.2 h -3.8 z m 0,-5.2 c -5.2,0 -10.2,-1.5 -14.4,-4.4 -1.8,0.7 -3.6,1.6 -5.3,2.6 -2.1,1.3 -4.1,2.7 -5.9,4.4 -0.5,0.4 -1,0.9 -1.4,1.4 L 45,47.9 c -0.5,0.5 -0.9,1 -1.4,1.4 1.7,1.8 3.1,3.8 4.4,5.9 0.6,-0.8 1.3,-1.5 2.1,-2.3 l 6.5,-6.5 c 0.7,-0.7 1.5,-1.4 2.3,-2.1 2.2,-1.8 4.6,-3.3 7.1,-4.4 3.9,-1.6 8.2,-2.5 12.6,-2.5 z m 0,-7.2 c -5,0 -9.6,-1.9 -13.2,-5.5 L 58.9,18.2 C 55.4,14.7 53.4,10 53.4,5 V 1.4 h -7.2 v 3.7 c 0,5.2 1.5,10.2 4.4,14.4 0.9,1.4 2,2.6 3.2,3.8 l 6.5,6.5 c 1.2,1.2 2.5,2.2 3.8,3.2 4.2,2.9 9.2,4.4 14.4,4.4 h 3.7 v -7.2 0 0 z M 56.6,33.5 50.1,27 C 49.4,26.3 48.7,25.5 48,24.7 46.2,22.5 44.7,20.1 43.6,17.6 41.9,13.7 41,9.5 41,5.1 v 0 c 0,5.2 -1.5,10.2 -4.4,14.4 v 0 c 0.7,1.8 1.6,3.6 2.6,5.3 1.3,2.1 2.7,4.1 4.4,5.9 0.4,0.5 0.9,1 1.4,1.4 l 6.5,6.5 c 0.5,0.5 1,0.9 1.4,1.4 1.8,-1.7 3.8,-3.1 5.9,-4.4 C 58.1,35 57.3,34.3 56.6,33.5 Z M 33.8,1.4 v 3.7 c 0,5 -1.9,9.6 -5.5,13.2 l -6.5,6.5 c -3.5,3.5 -8.2,5.5 -13.2,5.5 H 5 v 7.2 h 3.7 c 5.2,0 10.2,-1.5 14.4,-4.4 1.4,-0.9 2.6,-2 3.8,-3.2 l 6.5,-6.5 c 1.2,-1.2 2.2,-2.5 3.2,-3.8 C 39.5,15.4 41,10.4 41,5.2 V 1.4 Z m 5.5,23.4 c -0.6,0.8 -1.3,1.5 -2.1,2.3 l -6.5,6.5 c -0.7,0.7 -1.5,1.4 -2.3,2.1 -2.2,1.8 -4.6,3.3 -7.1,4.4 -3.9,1.7 -8.2,2.6 -12.6,2.6 v 0 c 5.2,0 10.2,1.5 14.4,4.4 1.8,-0.7 3.6,-1.6 5.3,-2.6 2.1,-1.3 4.1,-2.7 5.9,-4.4 0.5,-0.4 1,-0.9 1.4,-1.4 l 6.5,-6.5 c 0.5,-0.5 0.9,-1 1.4,-1.4 -1.6,-2 -3.1,-3.9 -4.3,-6 z m -2.7,35.7 c -0.9,-1.4 -2,-2.6 -3.2,-3.8 L 26.9,50.2 C 25.8,49 24.5,48 23.1,47 18.9,44.1 13.9,42.6 8.7,42.6 H 5 v 7.2 h 3.7 c 5,0 9.6,1.9 13.2,5.5 l 6.5,6.5 c 3.5,3.5 5.5,8.2 5.5,13.2 v 3.7 H 41 V 75 C 41,69.7 39.5,64.8 36.6,60.5 Z M 33.8,5.1 V 1.4 Z m 19.7,0 V 1.4 Z m 0,69.8 v 3.7 z m -19.7,0 v 3.7 z M 58.4,1.6 v 5.1 c 0,0.5 0,1 0.1,1.5 0,0.3 0.3,0.5 0.6,0.6 9.2,2 16.1,10.1 16.1,19.9 v 1.1 c 1.1,0.2 2.2,0.3 3.4,0.3 h 3.7 V 28.7 C 82.3,14.9 71.9,3.4 58.4,1.6 Z m 16.9,53.3 c -0.3,0 -0.5,0.3 -0.6,0.6 -2,9.2 -10.1,16.1 -19.9,16.1 h -1.1 c -0.2,1.1 -0.3,2.2 -0.3,3.4 0,0 0,0 0,0 v 3.7 h 1.4 C 68.7,78.7 80.2,68.3 82,54.9 h -5.1 c -0.5,-0.1 -1.1,-0.1 -1.6,0 z M 28.2,71.1 C 19,69.1 12.1,61 12.1,51.2 V 50.1 C 11,49.9 9.9,49.8 8.7,49.8 H 5 v 1.4 c 0,13.9 10.4,25.4 23.8,27.2 v -5.1 c 0,-0.5 0,-1 -0.1,-1.5 0,-0.4 -0.2,-0.6 -0.5,-0.7 z M 5.3,25.2 h 5.1 c 0.5,0 1,0 1.5,-0.1 0.3,0 0.5,-0.3 0.6,-0.6 2,-9.2 10.1,-16.1 19.9,-16.1 h 1.1 C 33.7,7.3 33.8,6.2 33.8,5 V 1.4 H 32.4 C 18.5,1.4 7,11.8 5.3,25.2 Z" /></svg>