<?xml version="1.0" encoding="UTF-8" standalone="no"?>
<!-- Generator: Adobe Illustrator 23.0.1, SVG Export Plug-In . SVG Version: 6.00 Build 0)  -->

<svg
   xmlns:svg="http://www.w3.org/2000/svg"
   xmlns="http://www.w3.org/2000/svg"
   xmlns:sodipodi="http://sodipodi.sourceforge.net/DTD/sodipodi-0.dtd"
   xmlns:inkscape="http://www.inkscape.org/namespaces/inkscape"
   version="1.1"
   id="Layer_1"
   x="0px"
   y="0px"
   viewBox="0 0 260 80"
   style="enable-background:new 0 0 260 80;"
   xml:space="preserve"
   sodipodi:docname="logo-yucatan.svg"
   inkscape:version="0.92.4 (5da689c313, 2019-01-14)"><defs
     id="defs121" /><sodipodi:namedview
     pagecolor="#ffffff"
     bordercolor="#666666"
     borderopacity="1"
     objecttolerance="10"
     gridtolerance="10"
     guidetolerance="10"
     inkscape:pageopacity="0"
     inkscape:pageshadow="2"
     inkscape:window-width="1366"
     inkscape:window-height="705"
     id="namedview119"
     showgrid="false"
     inkscape:zoom="1.3423077"
     inkscape:cx="130"
     inkscape:cy="40"
     inkscape:window-x="-8"
     inkscape:window-y="-8"
     inkscape:window-maximized="1"
     inkscape:current-layer="Layer_1" /><style
     type="text/css"
     id="style2">
	.st0{fill:#76BC21;}
	.st1{fill:#FFCD00;}
	.st2{fill:#DD8797;}
	.st3{fill:#00ADE7;}
	.st4{fill:#0075C9;}
	.st5{fill:#8F4899;}
	.st6{fill:#FF8300;}
	.st7{fill:#007565;}
	.st8{fill:#00A887;}
	.st9{fill:#002169;}
	.st10{fill:#005CB9;}
	.st11{fill:#73308A;}
	.st12{fill:#B4008D;}
	.st13{fill:#FF595A;}
</style><g
     id="g116"><g
       id="g36"><path
         class="st0"
         d="M5.3,25.2h5.1c0.5,0,1,0,1.5-0.1c0.3,0,0.5-0.3,0.6-0.6c2-9.2,10.1-16.1,19.9-16.1h1.1    c0.2-1.1,0.3-2.2,0.3-3.4V1.4h-1.4C18.5,1.4,7,11.8,5.3,25.2z"
         id="path4" /><path
         class="st1"
         d="M28.2,71.1C19,69.1,12.1,61,12.1,51.2v-1.1c-1.1-0.2-2.2-0.3-3.4-0.3H5v1.4c0,13.9,10.4,25.4,23.8,27.2v-5.1    c0-0.5,0-1-0.1-1.5C28.7,71.4,28.5,71.2,28.2,71.1z"
         id="path6" /><path
         class="st2"
         d="M75.3,54.9c-0.3,0-0.5,0.3-0.6,0.6c-2,9.2-10.1,16.1-19.9,16.1h-1.1c-0.2,1.1-0.3,2.2-0.3,3.4c0,0,0,0,0,0    v3.7h1.4c13.9,0,25.4-10.4,27.2-23.8h-5.1C76.4,54.8,75.8,54.8,75.3,54.9z"
         id="path8" /><path
         class="st3"
         d="M58.4,1.6v5.1c0,0.5,0,1,0.1,1.5c0,0.3,0.3,0.5,0.6,0.6c9.2,2,16.1,10.1,16.1,19.9v1.1    c1.1,0.2,2.2,0.3,3.4,0.3h3.7v-1.4C82.3,14.9,71.9,3.4,58.4,1.6z"
         id="path10" /><path
         class="st6"
         d="M36.6,60.5c-0.9-1.4-2-2.6-3.2-3.8l-6.5-6.5C25.8,49,24.5,48,23.1,47c-4.2-2.9-9.2-4.4-14.4-4.4H5v7.2h3.7    c5,0,9.6,1.9,13.2,5.5l6.5,6.5c3.5,3.5,5.5,8.2,5.5,13.2v3.7H41v-3.7C41,69.7,39.5,64.8,36.6,60.5z"
         id="path20" /><path
         class="st7"
         d="M39.3,24.8c-0.6,0.8-1.3,1.5-2.1,2.3l-6.5,6.5c-0.7,0.7-1.5,1.4-2.3,2.1c-2.2,1.8-4.6,3.3-7.1,4.4    c-3.9,1.7-8.2,2.6-12.6,2.6h0c5.2,0,10.2,1.5,14.4,4.4c1.8-0.7,3.6-1.6,5.3-2.6c2.1-1.3,4.1-2.7,5.9-4.4c0.5-0.4,1-0.9,1.4-1.4    l6.5-6.5c0.5-0.5,0.9-1,1.4-1.4C42,28.8,40.5,26.9,39.3,24.8z"
         id="path22" /><path
         class="st8"
         d="M33.8,1.4v3.7c0,5-1.9,9.6-5.5,13.2l-6.5,6.5c-3.5,3.5-8.2,5.5-13.2,5.5H5v7.2h3.7c5.2,0,10.2-1.5,14.4-4.4    c1.4-0.9,2.6-2,3.8-3.2l6.5-6.5c1.2-1.2,2.2-2.5,3.2-3.8c2.9-4.2,4.4-9.2,4.4-14.4V1.4H33.8z"
         id="path24" /><path
         class="st9"
         d="M56.6,33.5L50.1,27c-0.7-0.7-1.4-1.5-2.1-2.3c-1.8-2.2-3.3-4.6-4.4-7.1C41.9,13.7,41,9.5,41,5.1h0    c0,5.2-1.5,10.2-4.4,14.4l0,0c0.7,1.8,1.6,3.6,2.6,5.3c1.3,2.1,2.7,4.1,4.4,5.9c0.4,0.5,0.9,1,1.4,1.4l6.5,6.5    c0.5,0.5,1,0.9,1.4,1.4c1.8-1.7,3.8-3.1,5.9-4.4C58.1,35,57.3,34.3,56.6,33.5z"
         id="path26" /><path
         class="st10"
         d="M78.6,30.2c-5,0-9.6-1.9-13.2-5.5l-6.5-6.5c-3.5-3.5-5.5-8.2-5.5-13.2V1.4h-7.2v3.7c0,5.2,1.5,10.2,4.4,14.4    c0.9,1.4,2,2.6,3.2,3.8l6.5,6.5c1.2,1.2,2.5,2.2,3.8,3.2c4.2,2.9,9.2,4.4,14.4,4.4h3.7v-7.2h0l0,0H78.6z"
         id="path28" /><path
         class="st11"
         d="M78.6,37.4c-5.2,0-10.2-1.5-14.4-4.4c-1.8,0.7-3.6,1.6-5.3,2.6c-2.1,1.3-4.1,2.7-5.9,4.4    c-0.5,0.4-1,0.9-1.4,1.4L45,47.9c-0.5,0.5-0.9,1-1.4,1.4c1.7,1.8,3.1,3.8,4.4,5.9c0.6-0.8,1.3-1.5,2.1-2.3l6.5-6.5    c0.7-0.7,1.5-1.4,2.3-2.1c2.2-1.8,4.6-3.3,7.1-4.4C69.9,38.3,74.2,37.4,78.6,37.4L78.6,37.4z"
         id="path30" /><path
         class="st12"
         d="M78.6,42.6c-5.2,0-10.2,1.5-14.4,4.4c-1.4,0.9-2.6,2-3.8,3.2l-6.5,6.5c-1.2,1.2-2.2,2.5-3.2,3.8h0    c-2.9,4.2-4.4,9.2-4.4,14.4v3.7h7.2v-3.7c0,0,0,0,0,0c0-5,1.9-9.6,5.5-13.2l6.5-6.5c3.5-3.5,8.2-5.5,13.2-5.5h3.7v-7.2H78.6z"
         id="path32" /><path
         class="st13"
         d="M48,55.2c-1.3-2.1-2.7-4.1-4.4-5.9c-0.4-0.5-0.9-1-1.4-1.4l-6.5-6.5c-0.5-0.5-1-0.9-1.4-1.4    c-1.8,1.7-3.8,3.1-5.9,4.4c0.8,0.6,1.5,1.3,2.3,2.1l6.5,6.5c0.7,0.7,1.4,1.5,2.1,2.3c1.8,2.2,3.3,4.6,4.4,7.1    c1.7,3.9,2.6,8.2,2.6,12.6c0-5.2,1.5-10.2,4.4-14.4h0C49.9,58.7,49.1,56.9,48,55.2z"
         id="path34" /></g><path
       class="st9"
       d="M225.2,30.6c0.7,0,1.3-0.4,1.5-1l1.2-3.3c0.1-0.3,0-0.4-0.3-0.4h-8.1c-0.7,0-1.3,0.3-1.6,1.1l-1.2,3.2   c-0.1,0.3,0,0.4,0.3,0.4H225.2z M122.9,26.4h-5.8c-1.1,0-1.8,0.4-2.3,1.4l-4.7,10.1l-4.7-10c-0.5-1-1.3-1.4-2.3-1.4h-5.5   c-0.6,0-0.8,0.3-0.5,0.9l9.1,17.9v10c0,0.5,0.2,0.7,0.6,0.7h6.4c0.4,0,0.6-0.2,0.6-0.7v-9.9l9.5-18   C123.7,26.7,123.5,26.4,122.9,26.4z M143,33.4h-4.7c-1,0-1.7,0.7-1.7,1.7v15.1H134c-1.8,0-2.7-0.1-3.3-0.8c-0.5-0.9-0.7-2.2-0.6-5   V34c0-0.4-0.2-0.6-0.6-0.6h-4.6c-0.9,0-1.7,0.8-1.7,1.7v11.3c0,4.1,0.4,6.3,1.9,7.8c1.5,1.5,3.7,1.9,7.8,1.9   c4.2,0,7.6-0.2,10.1-0.7c0.5-0.1,0.6-0.2,0.6-0.7V34C143.6,33.6,143.4,33.4,143,33.4z M164.6,33.7c-1.7-0.3-3.4-0.5-6.2-0.5   c-5.4,0.1-7.9,0.7-9.4,3.5c-0.8,1.9-1.1,4.1-1.1,7.9v0c0,3.8,0.3,6.1,1.1,7.9c1.4,2.8,4,3.4,9.4,3.5c2.8,0,4.4-0.2,6.2-0.5   c0.9-0.2,1.3-0.8,1.3-1.8v-3c0-0.4-0.2-0.6-0.7-0.6h-6.7c-1.5,0-2.5-0.4-2.9-1.1c-0.4-0.7-0.7-2.1-0.7-4.3h0c0,0,0-0.1,0-0.1   c0,0,0-0.1,0-0.1h0c0-2.2,0.2-3.6,0.7-4.3c0.5-0.7,1.5-1.1,2.9-1.1h6.7c0.5,0,0.7-0.2,0.7-0.6v-3C165.9,34.5,165.5,33.9,164.6,33.7   z M255,35.1c-1.5-1.5-3.7-1.9-7.8-1.9c-4.8,0-8.2,0.2-10.2,0.7c-0.4,0.1-0.6,0.1-0.6,0.6v20.7c0,0.4,0.2,0.6,0.6,0.6h5.8   c0.4,0,0.6-0.2,0.6-0.6V39.1h2.7c1.9,0,2.6,0,3.3,0.9c0.6,0.9,0.6,2,0.6,5v10.3c0,0.4,0.2,0.6,0.6,0.6h5.7c0.4,0,0.6-0.2,0.6-0.6   V42.8C257,38.7,256.6,36.5,255,35.1z M221.4,33.2c-2.6,0-4.9,0.2-6.9,0.5c-0.9,0.2-1.4,0.7-1.4,1.8v3c0,0.4,0.2,0.6,0.5,0.6h7.8   c2,0,3,0.8,3,2.3v0.8l-4.4,0c-3.1,0-5.2,0.4-6.6,1.3c-1.3,0.9-2,2.7-2.1,5.3c0.2,4,1.2,5.8,3.7,6.5c0.9,0.2,1.8,0.4,2.7,0.4   c0.9,0.1,2,0.1,3.5,0.1c3.4,0,6.4-0.3,9.1-0.8c0.6-0.2,1-0.6,1-1.3V40.3C231.4,36.1,230.1,33.2,221.4,33.2z M224.4,50.2   c-0.9,0.2-2,0.3-3.4,0.3c-2.2,0-2.8-0.4-2.8-2c0-1.5,0.6-2.1,2.5-2.1h3.7V50.2z M179.2,33.2c-2.6,0-4.9,0.2-6.9,0.5   c-0.9,0.2-1.4,0.7-1.4,1.8v3c0,0.4,0.2,0.6,0.5,0.6h7.8c2,0,3,0.8,3,2.3v0.8l-4.4,0c-3.1,0-5.2,0.4-6.6,1.3c-1.3,0.9-2,2.7-2.1,5.3   c0.2,4,1.2,5.8,3.7,6.5c0.9,0.2,1.8,0.4,2.7,0.4c0.9,0.1,2,0.1,3.5,0.1c3.4,0,6.4-0.3,9.1-0.8c0.6-0.2,1-0.6,1-1.3V40.3   C189.2,36.1,187.9,33.2,179.2,33.2z M182.2,50.2c-0.9,0.2-2,0.3-3.4,0.3c-2.2,0-2.8-0.4-2.8-2c0-1.5,0.6-2.1,2.5-2.1h3.7V50.2z    M206.9,49.9h-1.6c-1.8,0-2.3-0.4-2.3-2.1v-9.9h3.5c0.5,0,0.7-0.2,0.7-0.7v-4c0-0.4-0.2-0.6-0.7-0.6h-3.5v-5.3   c0-0.5-0.4-0.7-0.7-0.7l-4.5,0c-1.2,0-2,0.5-2,2.1v3.9h-2.5c-0.5,0-0.7,0.2-0.7,0.6v4c0,0.5,0.2,0.7,0.7,0.7h2.5v12.5   c0,2.6,0.6,4.2,2.1,4.9c0.8,0.3,1.5,0.5,2.1,0.6c0.7,0.1,1.6,0.1,2.8,0.1c1.1,0,2.5-0.2,4.1-0.5c0.5-0.1,0.7-0.4,0.7-0.8v-4.3   C207.6,50.1,207.3,49.9,206.9,49.9z"
       id="path38" /><g
       id="g78"><path
         class="st9"
         d="M104.9,10.5c0.1,0,0.2,0.1,0.2,0.2v5.4c0,2.2-0.3,3.7-1,4.5c-0.7,0.8-2,1.2-3.9,1.2c-0.8,0-1.6-0.1-2.4-0.2    c-0.2,0-0.3-0.2-0.3-0.4V20c0-0.1,0.1-0.2,0.2-0.2h2.5c1,0,1.7-0.2,2-0.7c0.3-0.5,0.5-1.5,0.5-2.9l0-5.4c0-0.1,0.1-0.2,0.2-0.2    H104.9z"
         id="path40" /><path
         class="st9"
         d="M114.1,13.4c0.1,0,0.2,0.1,0.2,0.2v7.7c0,0.2,0,0.2-0.2,0.3c-0.9,0.2-2.1,0.3-3.6,0.3c-1.5,0-2.3-0.1-2.9-0.7    c-0.6-0.5-0.7-1.4-0.7-2.9v-4.6c0-0.1,0.1-0.2,0.2-0.2h1.8c0.1,0,0.2,0.1,0.2,0.2v4c0,0.7,0,1.2,0.1,1.6c0.2,0.6,0.5,0.7,1.5,0.7    h1.3v-6.3c0-0.1,0.1-0.2,0.2-0.2H114.1z"
         id="path42" /><path
         class="st9"
         d="M122.7,14c0.6,0.5,0.7,1.4,0.7,2.9v4.6c0,0.2-0.1,0.2-0.2,0.2h-1.8c-0.1,0-0.2-0.1-0.2-0.2v-4    c0-1.1,0-1.6-0.3-1.9c-0.3-0.3-0.5-0.3-1.3-0.3h-1.4v6.3c0,0.2-0.1,0.2-0.2,0.2h-1.8c-0.1,0-0.2-0.1-0.2-0.2v-7.7    c0-0.2,0.1-0.2,0.2-0.2c0.8-0.2,1.9-0.3,3.6-0.3C121.3,13.4,122.1,13.5,122.7,14z"
         id="path44" /><path
         class="st9"
         d="M127.5,11.1c0.2,0,0.2,0,0.2,0.2v2.1h1.4c0.2,0,0.3,0.1,0.3,0.2v1.2c0,0.1-0.1,0.2-0.3,0.2h-1.4v4.1    c0,0.6,0.2,0.8,0.9,0.8h0.6c0.2,0,0.3,0.1,0.3,0.2v1.3c0,0.2-0.1,0.3-0.2,0.3c-0.4,0.1-0.9,0.1-1.3,0.1c-0.6,0-0.9,0-1.4-0.1    c-0.7-0.2-1-0.7-1-1.8v-4.8h-0.9c-0.2,0-0.2-0.1-0.2-0.2v-1.2c0-0.1,0.1-0.2,0.2-0.2h0.9v-1.7c0-0.1,0.1-0.2,0.2-0.2L127.5,11.1z"
         id="path46" /><path
         class="st9"
         d="M137.3,14.2c0.6,0.7,0.7,1.6,0.7,3.4c0,1.7-0.3,2.8-0.7,3.4c-0.5,0.6-1.5,0.8-3.1,0.8c-1.5,0-2.6-0.3-3.1-0.8    c-0.5-0.6-0.7-1.7-0.7-3.4c0-1.7,0.3-2.8,0.7-3.4c0.5-0.6,1.5-0.8,3.1-0.8C135.8,13.4,136.7,13.6,137.3,14.2z M132.9,15.7    c-0.2,0.3-0.3,0.9-0.3,1.9c0,1,0.1,1.6,0.3,1.9c0.2,0.3,0.6,0.4,1.3,0.4s1.1-0.1,1.3-0.4c0.2-0.3,0.3-0.9,0.3-1.9    c0-1-0.1-1.6-0.3-1.9c-0.2-0.3-0.6-0.5-1.3-0.5S133.1,15.4,132.9,15.7z"
         id="path48" /><path
         class="st9"
         d="M145.1,13.6c0.2,0,0.2,0.1,0.2,0.2v1.1c0,0.2-0.1,0.2-0.3,0.2h-2.7c-0.6,0-0.9,0.2-0.9,0.5v0.1    c0,0.3,0.2,0.5,0.7,0.7l1.9,0.7c1.2,0.4,1.6,1.1,1.6,2.2v0.2c0,1.6-1.1,2.2-3.2,2.2c-1.1,0-2.1,0-3.1-0.1c-0.2,0-0.3-0.1-0.3-0.2    v-1.2c0-0.1,0.1-0.2,0.3-0.2h3.1c0.8,0,1-0.1,1-0.5v-0.1c0-0.3-0.2-0.5-0.8-0.7l-1.8-0.7c-1-0.3-1.5-1.1-1.5-2.3v-0.3    c0-1.5,1.1-2.1,3.4-2.1C143.6,13.4,144.4,13.4,145.1,13.6z"
         id="path50" /><path
         class="st9"
         d="M152.2,11.1c0.2,0,0.2,0,0.2,0.2v2.1h1.4c0.2,0,0.3,0.1,0.3,0.2v1.2c0,0.1-0.1,0.2-0.3,0.2h-1.4v4.1    c0,0.6,0.2,0.8,0.9,0.8h0.6c0.2,0,0.3,0.1,0.3,0.2v1.3c0,0.2-0.1,0.3-0.2,0.3c-0.4,0.1-0.9,0.1-1.3,0.1c-0.6,0-0.9,0-1.4-0.1    c-0.7-0.2-1-0.7-1-1.8v-4.8h-0.9c-0.2,0-0.2-0.1-0.2-0.2v-1.2c0-0.1,0.1-0.2,0.2-0.2h0.9v-1.7c0-0.1,0.1-0.2,0.2-0.2L152.2,11.1z"
         id="path52" /><path
         class="st9"
         d="M160,13.5c0.2,0,0.2,0.1,0.2,0.3V15c0,0.1-0.1,0.2-0.3,0.2h-1.4c-0.8,0-1,0.1-1,0.8v5.5    c0,0.2-0.1,0.2-0.2,0.2h-1.8c-0.1,0-0.2-0.1-0.2-0.2v-6.1c0-0.7,0.2-1.3,0.6-1.5c0.6-0.5,1.3-0.6,2.1-0.6    C158.9,13.4,159.6,13.4,160,13.5z"
         id="path54" /><path
         class="st9"
         d="M167,14c0.5,0.4,0.8,1.1,0.8,1.9v5.2c0,0.2-0.1,0.4-0.3,0.5c-0.9,0.2-2,0.3-3.4,0.3c-1.3,0-1.9-0.1-2.5-0.4    c-0.6-0.4-0.9-1-0.9-2.2c0-1,0.3-1.6,0.7-1.9c0.5-0.3,1.3-0.5,2.3-0.5h1.9v-0.5c0-0.7-0.5-1-1.4-1h-2.7c-0.2,0-0.2,0-0.2-0.2v-1.2    c0-0.2,0-0.2,0.2-0.2c0.8-0.1,1.7-0.2,2.7-0.2C165.5,13.4,166.5,13.6,167,14z M165.5,18.3h-1.7c-0.8,0-1,0.2-1,0.9    c0,0.7,0.3,0.9,1.3,0.9c0.6,0,1.1,0,1.5-0.1V18.3z"
         id="path56" /><path
         class="st9"
         d="M176.1,14c0.6,0.5,0.7,1.4,0.7,2.9v4.6c0,0.2-0.1,0.2-0.2,0.2h-1.8c-0.1,0-0.2-0.1-0.2-0.2v-4    c0-1.1,0-1.6-0.3-1.9c-0.3-0.3-0.5-0.3-1.3-0.3h-1.4v6.3c0,0.2-0.1,0.2-0.2,0.2h-1.8c-0.1,0-0.2-0.1-0.2-0.2v-7.7    c0-0.2,0.1-0.2,0.2-0.2c0.8-0.2,1.9-0.3,3.6-0.3C174.8,13.4,175.5,13.5,176.1,14z"
         id="path58" /><path
         class="st9"
         d="M184.1,13.6c0.2,0,0.2,0.1,0.2,0.2v1.1c0,0.2-0.1,0.2-0.3,0.2h-2.7c-0.6,0-0.9,0.2-0.9,0.5v0.1    c0,0.3,0.2,0.5,0.7,0.7l1.9,0.7c1.2,0.4,1.6,1.1,1.6,2.2v0.2c0,1.6-1.1,2.2-3.2,2.2c-1.1,0-2.1,0-3.1-0.1c-0.2,0-0.3-0.1-0.3-0.2    v-1.2c0-0.1,0.1-0.2,0.3-0.2h3.1c0.8,0,1-0.1,1-0.5v-0.1c0-0.3-0.2-0.5-0.8-0.7l-1.8-0.7c-1-0.3-1.5-1.1-1.5-2.3v-0.3    c0-1.5,1.1-2.1,3.4-2.1C182.6,13.4,183.4,13.4,184.1,13.6z"
         id="path60" /><path
         class="st9"
         d="M191,10.3c0.2,0,0.2,0.1,0.2,0.3v1.2c0,0.2-0.1,0.2-0.3,0.2h-1.2c-0.6,0-0.8,0.1-0.8,0.6v0.8h1.8    c0.1,0,0.2,0.1,0.2,0.3l-0.2,1.3c0,0.1-0.1,0.2-0.3,0.2h-1.5v6.4c0,0.2-0.1,0.2-0.2,0.2h-1.8c-0.1,0-0.2-0.1-0.2-0.2v-6.4h-1    c-0.2,0-0.3-0.1-0.3-0.2v-1.3c0-0.1,0.1-0.2,0.3-0.2h1v-1.2c0-0.9,0.3-1.5,0.8-1.8c0.5-0.3,1-0.3,1.8-0.3    C189.9,10.2,190.4,10.2,191,10.3z"
         id="path62" /><path
         class="st9"
         d="M198.2,14.2c0.6,0.7,0.7,1.6,0.7,3.4c0,1.7-0.3,2.8-0.7,3.4c-0.5,0.6-1.5,0.8-3.1,0.8c-1.5,0-2.6-0.3-3.1-0.8    c-0.5-0.6-0.7-1.7-0.7-3.4c0-1.7,0.3-2.8,0.7-3.4c0.5-0.6,1.5-0.8,3.1-0.8C196.8,13.4,197.6,13.6,198.2,14.2z M193.9,15.7    c-0.2,0.3-0.3,0.9-0.3,1.9c0,1,0.1,1.6,0.3,1.9c0.2,0.3,0.6,0.4,1.3,0.4s1.1-0.1,1.3-0.4c0.2-0.3,0.3-0.9,0.3-1.9    c0-1-0.1-1.6-0.3-1.9c-0.2-0.3-0.6-0.5-1.3-0.5S194,15.4,193.9,15.7z"
         id="path64" /><path
         class="st9"
         d="M205.1,13.5c0.2,0,0.2,0.1,0.2,0.3V15c0,0.1-0.1,0.2-0.3,0.2h-1.4c-0.8,0-1,0.1-1,0.8v5.5    c0,0.2-0.1,0.2-0.2,0.2h-1.8c-0.1,0-0.2-0.1-0.2-0.2v-6.1c0-0.7,0.2-1.3,0.6-1.5c0.6-0.5,1.3-0.6,2.1-0.6    C204,13.4,204.7,13.4,205.1,13.5z"
         id="path66" /><path
         class="st9"
         d="M217.2,14c0.5,0.4,0.7,1.3,0.7,2.5l0,5c0,0.2-0.1,0.2-0.2,0.2h-1.8c-0.1,0-0.2-0.1-0.2-0.2v-4    c-0.1-2.2-0.1-2.2-1.4-2.2c-0.4,0-0.8,0-1.2,0.1c0.1,0.4,0.2,0.9,0.2,1.6l0,4.6c0,0.2-0.1,0.2-0.2,0.2h-1.8    c-0.1,0-0.2-0.1-0.2-0.2V17c0-0.8,0-1.3-0.3-1.5c-0.3-0.2-0.5-0.3-1.1-0.3h-1v6.3c0,0.2-0.1,0.2-0.2,0.2h-1.8    c-0.1,0-0.2-0.1-0.2-0.2v-7.7c0-0.1,0.1-0.2,0.2-0.2c0.8-0.2,1.7-0.3,2.9-0.3c1.1,0,2,0.2,2.7,0.5c0.8-0.3,1.7-0.5,2.6-0.5    C215.9,13.3,216.8,13.6,217.2,14z"
         id="path68" /><path
         class="st9"
         d="M226.1,14.2c0.5,0.6,0.7,1.7,0.7,3.3V18c0,0.3-0.1,0.4-0.5,0.4h-4.7c0,0.7,0.1,1.1,0.3,1.3    c0.2,0.2,0.7,0.3,1.3,0.3h2.6c0.1,0,0.2,0.1,0.2,0.2v1.2c0,0.1-0.1,0.2-0.2,0.2c-0.7,0.1-1.6,0.2-2.8,0.2c-1.5,0-2.5-0.3-3-0.8    c-0.5-0.6-0.7-1.7-0.7-3.4c0-1.7,0.3-2.8,0.7-3.4c0.5-0.6,1.5-0.8,3-0.8C224.6,13.4,225.6,13.6,226.1,14.2z M221.6,16.9h2.9    c0-1.3-0.4-1.7-1.4-1.7C222,15.3,221.7,15.6,221.6,16.9z"
         id="path70" /><path
         class="st9"
         d="M239,14c0.5,0.4,0.7,1.3,0.7,2.5l0,5c0,0.2-0.1,0.2-0.2,0.2h-1.8c-0.1,0-0.2-0.1-0.2-0.2v-4    c-0.1-2.2-0.1-2.2-1.4-2.2c-0.4,0-0.8,0-1.2,0.1c0.1,0.4,0.2,0.9,0.2,1.6l0,4.6c0,0.2-0.1,0.2-0.2,0.2H233c-0.1,0-0.2-0.1-0.2-0.2    V17c0-0.8,0-1.3-0.3-1.5c-0.3-0.2-0.5-0.3-1.1-0.3h-1v6.3c0,0.2-0.1,0.2-0.2,0.2h-1.8c-0.1,0-0.2-0.1-0.2-0.2v-7.7    c0-0.1,0.1-0.2,0.2-0.2c0.8-0.2,1.7-0.3,2.9-0.3c1.1,0,2,0.2,2.7,0.5c0.8-0.3,1.7-0.5,2.6-0.5C237.7,13.3,238.5,13.6,239,14z"
         id="path72" /><path
         class="st9"
         d="M248,14.2c0.6,0.7,0.7,1.6,0.7,3.4c0,1.7-0.3,2.8-0.7,3.4c-0.5,0.6-1.5,0.8-3.1,0.8c-1.5,0-2.6-0.3-3.1-0.8    c-0.5-0.6-0.7-1.7-0.7-3.4c0-1.7,0.3-2.8,0.7-3.4c0.5-0.6,1.5-0.8,3.1-0.8C246.6,13.4,247.4,13.6,248,14.2z M243.7,15.7    c-0.2,0.3-0.3,0.9-0.3,1.9c0,1,0.1,1.6,0.3,1.9c0.2,0.3,0.6,0.4,1.3,0.4c0.7,0,1.1-0.1,1.3-0.4c0.2-0.3,0.3-0.9,0.3-1.9    c0-1-0.1-1.6-0.3-1.9c-0.2-0.3-0.6-0.5-1.3-0.5C244.3,15.3,243.9,15.4,243.7,15.7z"
         id="path74" /><path
         class="st9"
         d="M255.8,13.6c0.2,0,0.2,0.1,0.2,0.2v1.1c0,0.2-0.1,0.2-0.3,0.2h-2.7c-0.6,0-0.9,0.2-0.9,0.5v0.1    c0,0.3,0.2,0.5,0.7,0.7l1.9,0.7c1.2,0.4,1.6,1.1,1.6,2.2v0.2c0,1.6-1.1,2.2-3.2,2.2c-1.1,0-2.1,0-3.1-0.1c-0.2,0-0.3-0.1-0.3-0.2    v-1.2c0-0.1,0.1-0.2,0.3-0.2h3.1c0.8,0,1-0.1,1-0.5v-0.1c0-0.3-0.2-0.5-0.8-0.7l-1.8-0.7c-1-0.3-1.5-1.1-1.5-2.3v-0.3    c0-1.5,1.1-2.1,3.4-2.1C254.3,13.4,255.1,13.4,255.8,13.6z"
         id="path76" /></g><g
       id="g114"><path
         class="st10"
         d="M124.4,67.4c-0.1-0.5-0.4-0.8-0.8-1c-0.2-0.1-0.5-0.2-0.8-0.2c-0.6,0-1,0.2-1.4,0.6c-0.4,0.4-0.5,1-0.5,1.9    c0,0.8,0.2,1.4,0.6,1.8c0.4,0.4,0.8,0.5,1.3,0.5c0.5,0,0.9-0.1,1.2-0.4c0.3-0.3,0.5-0.6,0.6-1.1H123v-1.2h2.9v3.7h-1l-0.1-0.9    c-0.3,0.3-0.5,0.6-0.7,0.7c-0.4,0.2-0.8,0.3-1.4,0.3c-0.9,0-1.7-0.3-2.2-1c-0.6-0.6-0.9-1.5-0.9-2.6c0-1.1,0.3-2,0.9-2.7    c0.6-0.7,1.4-1,2.4-1c0.9,0,1.6,0.2,2.1,0.7c0.5,0.4,0.8,1,0.9,1.7H124.4z"
         id="path80" /><path
         class="st10"
         d="M132.6,71.5c-0.5,0.5-1.3,0.8-2.3,0.8c-1,0-1.7-0.3-2.3-0.8c-0.7-0.7-1-1.6-1-2.8c0-1.3,0.3-2.2,1-2.8    c0.5-0.5,1.3-0.8,2.3-0.8c1,0,1.7,0.3,2.3,0.8c0.7,0.6,1,1.6,1,2.8C133.6,69.9,133.3,70.8,132.6,71.5z M131.7,70.4    c0.3-0.4,0.5-1,0.5-1.8c0-0.8-0.2-1.4-0.5-1.8s-0.8-0.6-1.4-0.6c-0.6,0-1,0.2-1.4,0.6s-0.5,1-0.5,1.8s0.2,1.4,0.5,1.8    c0.3,0.4,0.8,0.6,1.4,0.6C130.9,71.1,131.3,70.9,131.7,70.4z"
         id="path82" /><path
         class="st10"
         d="M139.9,65.9c0.2,0.3,0.3,0.6,0.3,1.1c0,0.4-0.1,0.8-0.3,1c-0.1,0.1-0.3,0.3-0.5,0.4c0.4,0.1,0.6,0.3,0.8,0.6    c0.2,0.3,0.3,0.6,0.3,1c0,0.4-0.1,0.8-0.3,1.1c-0.1,0.2-0.3,0.4-0.5,0.5c-0.2,0.2-0.5,0.3-0.8,0.3s-0.6,0.1-1,0.1h-3.1v-6.9h3.3    C138.9,65.2,139.5,65.5,139.9,65.9z M136.1,66.4v1.5h1.7c0.3,0,0.5-0.1,0.7-0.2c0.2-0.1,0.3-0.3,0.3-0.6c0-0.3-0.1-0.5-0.4-0.6    c-0.2-0.1-0.5-0.1-0.8-0.1H136.1z M136.1,69.1v1.8h1.7c0.3,0,0.5,0,0.7-0.1c0.3-0.2,0.5-0.4,0.5-0.9c0-0.4-0.1-0.6-0.4-0.7    c-0.2-0.1-0.4-0.1-0.7-0.1H136.1z"
         id="path84" /><path
         class="st10"
         d="M142.9,72.1h-1.4v-6.9h1.4V72.1z"
         id="path86" /><path
         class="st10"
         d="M149.4,66.4h-3.7v1.5h3.4v1.2h-3.4v1.8h3.8v1.2h-5.2v-6.9h5.1V66.4z"
         id="path88" /><path
         class="st10"
         d="M155.1,65.4c0.3,0.1,0.5,0.3,0.6,0.5c0.1,0.2,0.3,0.4,0.3,0.6c0.1,0.2,0.1,0.5,0.1,0.7c0,0.3-0.1,0.7-0.2,1    c-0.2,0.3-0.4,0.5-0.8,0.7c0.3,0.1,0.5,0.3,0.7,0.5c0.1,0.2,0.2,0.6,0.2,1.1v0.5c0,0.3,0,0.5,0,0.6c0,0.2,0.1,0.3,0.3,0.4v0.2    h-1.6c0-0.2-0.1-0.3-0.1-0.4c0-0.2-0.1-0.4-0.1-0.6l0-0.6c0-0.4-0.1-0.7-0.2-0.9c-0.1-0.1-0.4-0.2-0.8-0.2h-1.4v2.7h-1.4v-6.9h3.3    C154.5,65.2,154.9,65.3,155.1,65.4z M152.1,66.4v1.9h1.6c0.3,0,0.5,0,0.7-0.1c0.3-0.1,0.4-0.4,0.4-0.8c0-0.4-0.1-0.7-0.4-0.8    c-0.1-0.1-0.4-0.1-0.7-0.1H152.1z"
         id="path90" /><path
         class="st10"
         d="M157.6,65.2h1.5l2.7,4.8v-4.8h1.3v6.9h-1.4l-2.8-4.9v4.9h-1.3V65.2z"
         id="path92" /><path
         class="st10"
         d="M169.9,71.5c-0.5,0.5-1.3,0.8-2.3,0.8s-1.7-0.3-2.3-0.8c-0.7-0.7-1-1.6-1-2.8c0-1.3,0.3-2.2,1-2.8    c0.5-0.5,1.3-0.8,2.3-0.8s1.7,0.3,2.3,0.8c0.7,0.6,1,1.6,1,2.8C170.9,69.9,170.6,70.8,169.9,71.5z M169,70.4    c0.3-0.4,0.5-1,0.5-1.8c0-0.8-0.2-1.4-0.5-1.8s-0.8-0.6-1.4-0.6s-1,0.2-1.4,0.6c-0.3,0.4-0.5,1-0.5,1.8s0.2,1.4,0.5,1.8    c0.3,0.4,0.8,0.6,1.4,0.6S168.6,70.9,169,70.4z"
         id="path94" /><path
         class="st10"
         d="M178.7,65.3c0.5,0.2,0.9,0.5,1.2,0.9c0.2,0.3,0.4,0.7,0.5,1.1c0.1,0.4,0.1,0.8,0.1,1.1    c0,0.9-0.2,1.7-0.6,2.3c-0.5,0.9-1.3,1.3-2.3,1.3h-3v-6.9h3C178.1,65.2,178.4,65.3,178.7,65.3z M176.1,66.4v4.5h1.3    c0.7,0,1.2-0.3,1.4-1c0.1-0.4,0.2-0.8,0.2-1.3c0-0.7-0.1-1.2-0.3-1.6c-0.2-0.4-0.7-0.6-1.3-0.6H176.1z"
         id="path96" /><path
         class="st10"
         d="M186.7,66.4h-3.7v1.5h3.4v1.2h-3.4v1.8h3.8v1.2h-5.2v-6.9h5.1V66.4z"
         id="path98" /><path
         class="st10"
         d="M188,65.2h1.4v5.7h3.4v1.2H188V65.2z"
         id="path100" /><path
         class="st10"
         d="M201.5,66.4h-3.7v1.5h3.4v1.2h-3.4v1.8h3.8v1.2h-5.2v-6.9h5.1V66.4z"
         id="path102" /><path
         class="st10"
         d="M203.8,70c0,0.3,0.1,0.6,0.3,0.7c0.2,0.3,0.6,0.4,1.2,0.4c0.3,0,0.6,0,0.8-0.1c0.4-0.1,0.6-0.4,0.6-0.8    c0-0.2-0.1-0.4-0.3-0.5c-0.2-0.1-0.5-0.2-1-0.3l-0.7-0.2c-0.7-0.2-1.2-0.3-1.5-0.5c-0.5-0.3-0.7-0.8-0.7-1.5    c0-0.6,0.2-1.1,0.7-1.5c0.5-0.4,1.1-0.6,2-0.6c0.7,0,1.4,0.2,1.9,0.6c0.5,0.4,0.8,0.9,0.8,1.7h-1.4c0-0.4-0.2-0.7-0.6-0.9    c-0.2-0.1-0.5-0.2-0.9-0.2c-0.4,0-0.7,0.1-0.9,0.2c-0.2,0.2-0.3,0.4-0.3,0.6c0,0.2,0.1,0.4,0.3,0.6c0.1,0.1,0.4,0.2,0.9,0.3    l1.2,0.3c0.5,0.1,0.9,0.3,1.2,0.5c0.4,0.3,0.6,0.8,0.6,1.4c0,0.6-0.2,1.2-0.7,1.6c-0.5,0.4-1.2,0.6-2.1,0.6    c-0.9,0-1.6-0.2-2.1-0.6s-0.8-1-0.8-1.7H203.8z"
         id="path104" /><path
         class="st10"
         d="M214.2,65.2v1.2h-2.1v5.7h-1.5v-5.7h-2.1v-1.2H214.2z"
         id="path106" /><path
         class="st10"
         d="M216.3,65.2h1.6l2.4,6.9h-1.6l-0.5-1.4h-2.5l-0.5,1.4h-1.5L216.3,65.2z M216.2,69.5h1.8l-0.9-2.7L216.2,69.5    z"
         id="path108" /><path
         class="st10"
         d="M225.3,65.3c0.5,0.2,0.9,0.5,1.2,0.9c0.2,0.3,0.4,0.7,0.5,1.1c0.1,0.4,0.1,0.8,0.1,1.1    c0,0.9-0.2,1.7-0.6,2.3c-0.5,0.9-1.3,1.3-2.3,1.3h-3v-6.9h3C224.6,65.2,225,65.3,225.3,65.3z M222.6,66.4v4.5h1.3    c0.7,0,1.2-0.3,1.4-1c0.1-0.4,0.2-0.8,0.2-1.3c0-0.7-0.1-1.2-0.3-1.6c-0.2-0.4-0.7-0.6-1.3-0.6H222.6z"
         id="path110" /><path
         class="st10"
         d="M233.5,71.5c-0.5,0.5-1.3,0.8-2.3,0.8s-1.7-0.3-2.3-0.8c-0.7-0.7-1-1.6-1-2.8c0-1.3,0.3-2.2,1-2.8    c0.5-0.5,1.3-0.8,2.3-0.8s1.7,0.3,2.3,0.8c0.7,0.6,1,1.6,1,2.8C234.5,69.9,234.2,70.8,233.5,71.5z M232.6,70.4    c0.3-0.4,0.5-1,0.5-1.8c0-0.8-0.2-1.4-0.5-1.8c-0.3-0.4-0.8-0.6-1.4-0.6s-1,0.2-1.4,0.6s-0.5,1-0.5,1.8s0.2,1.4,0.5,1.8    c0.3,0.4,0.8,0.6,1.4,0.6S232.2,70.9,232.6,70.4z"
         id="path112" /></g></g></svg>