<svg width="250" height="48" viewBox="0 0 250 48" fill="none" xmlns="http://www.w3.org/2000/svg">
<g clip-path="url(#clip0)">
<path d="M180.819 9.98368C181.052 10.062 181.169 10.1794 181.169 10.336V12.137C181.169 12.3719 181.052 12.4894 180.819 12.4894H176.896C176.274 12.4894 176.003 12.7243 176.003 13.155V13.3116C176.003 13.6639 176.236 13.938 176.702 14.1338L179.227 15.0342C179.848 15.2692 180.275 15.4649 180.625 15.6998C181.285 16.1305 181.79 17.1093 181.79 18.6362V19.0277C181.79 21.2594 180.12 22.3556 176.857 22.3556C175.731 22.3556 174.41 22.199 172.895 21.9249C172.662 21.8858 172.545 21.7292 172.545 21.4943V19.8108C172.545 19.5758 172.662 19.4584 172.934 19.4584H177.595C178.178 19.4584 178.45 19.2626 178.45 18.8711V18.7537C178.45 18.2447 178.178 18.0881 177.362 17.814L174.915 16.9527C174.41 16.7961 173.983 16.5612 173.711 16.3263C173.089 15.8173 172.662 14.7993 172.662 13.1941V12.8418C172.662 10.5318 174.06 9.51385 177.362 9.51385C178.489 9.55301 179.693 9.70961 180.819 9.98368Z" fill="#003163"/>
<path d="M192.162 9.67047C192.317 9.67047 192.433 9.74877 192.433 9.90538V12.3719C192.433 12.5285 192.356 12.6068 192.162 12.6068H186.801V14.6427H191.734C191.89 14.6427 192.006 14.721 192.006 14.8776V17.1484C192.006 17.3051 191.928 17.3834 191.734 17.3834H186.801V19.4192H192.162C192.317 19.4192 192.433 19.4976 192.433 19.6542V22.1207C192.433 22.2773 192.356 22.3556 192.162 22.3556H183.694C183.538 22.3556 183.46 22.2773 183.46 22.0816V9.94453C183.46 9.78793 183.538 9.67047 183.694 9.67047H192.162Z" fill="#003163"/>
<path d="M202.572 9.67047C202.766 9.67047 202.844 9.74877 202.844 9.90538V12.3719C202.844 12.5285 202.766 12.6068 202.572 12.6068H197.755V14.6427H202.145C202.3 14.6427 202.416 14.721 202.416 14.8776V17.1484C202.416 17.3051 202.339 17.3834 202.145 17.3834H197.755V22.0424C197.755 22.199 197.677 22.3165 197.522 22.3165H194.648C194.492 22.3165 194.415 22.2382 194.415 22.0424V9.90538C194.415 9.74877 194.492 9.63132 194.648 9.63132H202.572V9.67047Z" fill="#003163"/>
<path d="M209.408 22.3948C205.136 22.3165 204.048 21.0245 203.97 15.9739C203.97 13.429 204.281 11.9413 205.097 10.8842C205.912 9.82707 207.233 9.51385 209.37 9.51385C211.545 9.51385 212.827 9.86622 213.642 10.8842C214.497 11.9021 214.769 13.429 214.769 15.9739C214.769 21.0245 213.681 22.2773 209.408 22.3948ZM207.777 18.7145C208.049 19.2235 208.593 19.4584 209.408 19.4584C210.224 19.4584 210.768 19.2235 211.04 18.7145C211.312 18.2055 211.467 17.305 211.467 15.9739C211.467 14.6427 211.312 13.7031 211.04 13.2333C210.768 12.7243 210.224 12.4894 209.408 12.4894C208.593 12.4894 208.049 12.7634 207.777 13.2333C207.505 13.7422 207.35 14.6427 207.35 15.9739C207.35 17.305 207.505 18.2447 207.777 18.7145Z" fill="#003163"/>
<path d="M225.14 9.67047C225.296 9.67047 225.412 9.74877 225.412 9.90538V12.3719C225.412 12.5285 225.334 12.6068 225.14 12.6068H222.072V22.0816C222.072 22.2382 221.994 22.3556 221.838 22.3556H218.964C218.809 22.3556 218.731 22.2773 218.731 22.0816V12.5677H215.701C215.546 12.5677 215.429 12.4894 215.429 12.3328V9.86623C215.429 9.70962 215.507 9.63132 215.701 9.63132H225.14V9.67047Z" fill="#003163"/>
<path d="M237.259 9.67047C237.414 9.67047 237.492 9.74877 237.492 9.90538V16.013C237.492 18.1272 237.298 19.4584 236.832 20.4763C236.094 21.9641 234.773 22.3948 232.171 22.3948C230.423 22.3948 229.296 22.1599 228.48 21.6117C227.237 20.7113 226.888 19.106 226.888 15.9739V9.90538C226.888 9.74877 226.965 9.67047 227.121 9.67047H229.995C230.151 9.67047 230.228 9.74877 230.228 9.90538V16.013C230.228 17.4225 230.345 18.323 230.617 18.7928C230.889 19.2626 231.394 19.4976 232.171 19.4976C232.947 19.4976 233.491 19.2626 233.724 18.7928C233.996 18.323 234.113 17.3834 234.113 16.013V9.90538C234.113 9.74877 234.19 9.67047 234.346 9.67047H237.259Z" fill="#003163"/>
<path d="M248.524 10.5318C249.223 11.1974 249.534 12.2936 249.534 13.8597C249.534 16.1696 248.913 17.2267 247.281 17.6574L249.961 22.0033C250.078 22.1599 250 22.3165 249.767 22.3165H246.854C246.504 22.3165 246.388 22.2382 246.232 21.9641L243.669 17.8532H243.047V22.0424C243.047 22.2382 243.008 22.3165 242.814 22.3165H239.94C239.745 22.3165 239.707 22.2773 239.707 22.0424V9.98368C239.707 9.86622 239.784 9.78792 239.94 9.78792C241.493 9.63131 243.164 9.55301 244.989 9.55301C246.66 9.55301 247.825 9.86622 248.524 10.5318ZM243.047 12.4894V15.3866H244.601C245.805 15.3866 246.155 15.0342 246.155 13.9772C246.155 12.9201 245.766 12.4894 244.601 12.4894H243.047Z" fill="#003163"/>
<path d="M175.226 27.2104C175.265 27.2104 175.304 27.2496 175.304 27.2887V27.5628C175.304 27.6019 175.265 27.6411 175.226 27.6411H173.983C173.517 27.6411 173.245 27.7977 173.245 28.1501V28.1892C173.245 28.4633 173.323 28.6199 173.672 28.7373L174.877 29.2463C175.343 29.4421 175.498 29.7553 175.498 30.2251V30.4209C175.498 30.7341 175.381 30.969 175.226 31.1256C175.148 31.2039 175.032 31.243 174.915 31.2822C174.643 31.3605 174.41 31.3605 174.061 31.3605C173.595 31.3605 173.167 31.3213 172.701 31.2822C172.662 31.2822 172.624 31.243 172.624 31.2039V30.969C172.624 30.9298 172.662 30.8907 172.701 30.8907H174.216C174.721 30.8907 174.915 30.7341 174.915 30.4209V30.3034C174.915 29.9902 174.838 29.8336 174.488 29.7161L173.167 29.168C172.779 29.0114 172.662 28.6982 172.662 28.2284V28.1109C172.662 27.7977 172.779 27.5628 172.934 27.4062C173.012 27.3279 173.129 27.2887 173.245 27.2496C173.517 27.1713 173.75 27.1321 174.1 27.1321C174.41 27.1321 174.799 27.1713 175.226 27.2104Z" fill="#0060A8"/>
<path d="M179.032 27.1713C179.071 27.1713 179.11 27.2104 179.11 27.2496V27.5628C179.11 27.6019 179.071 27.6411 179.032 27.6411H176.934V29.0505H178.838C178.877 29.0505 178.915 29.0897 178.915 29.1289V29.4421C178.915 29.4812 178.877 29.5204 178.838 29.5204H176.934V30.8124H179.032C179.071 30.8124 179.11 30.8515 179.11 30.8907V31.2039C179.11 31.243 179.071 31.2822 179.032 31.2822H176.468C176.429 31.2822 176.391 31.243 176.391 31.2039V27.2496C176.391 27.2104 176.429 27.1713 176.468 27.1713H179.032Z" fill="#0060A8"/>
<path d="M182.567 27.1713C182.645 27.1713 182.645 27.2104 182.645 27.2496V27.5236C182.645 27.5628 182.606 27.6019 182.567 27.6019H181.518C181.052 27.6019 180.742 27.7194 180.625 27.9151C180.47 28.1501 180.431 28.5807 180.431 29.2463C180.431 29.9119 180.508 30.3425 180.625 30.5383C180.78 30.7732 181.052 30.8515 181.518 30.8515H182.567C182.606 30.8515 182.645 30.8907 182.645 30.9298V31.2039C182.645 31.243 182.606 31.2822 182.567 31.3213C182.334 31.3605 181.985 31.3605 181.557 31.3605C180.858 31.3605 180.47 31.243 180.198 30.9298C179.926 30.5775 179.848 30.1076 179.848 29.2463C179.848 28.385 179.926 27.9151 180.198 27.5628C180.47 27.2104 180.858 27.093 181.557 27.093C181.946 27.1321 182.295 27.1321 182.567 27.1713Z" fill="#0060A8"/>
<path d="M185.986 27.367C186.257 27.5628 186.374 27.876 186.374 28.4633C186.374 28.8939 186.296 29.2071 186.18 29.4029C186.063 29.5987 185.83 29.7161 185.481 29.7553L186.413 31.243C186.452 31.3213 186.413 31.3605 186.335 31.3605H185.986C185.869 31.3605 185.83 31.3213 185.752 31.243L184.859 29.7944H184.043V31.2822C184.043 31.3605 184.043 31.3605 183.966 31.3605H183.577C183.5 31.3605 183.5 31.3605 183.5 31.2822V27.2496C183.5 27.1713 183.5 27.1713 183.577 27.1713C183.927 27.1321 184.315 27.1321 184.743 27.1321C185.364 27.1321 185.714 27.1713 185.986 27.367ZM184.004 27.6019V29.2855H184.665C184.82 29.2855 184.937 29.2855 185.014 29.2855C185.17 29.2855 185.403 29.2463 185.481 29.2071C185.714 29.0897 185.791 28.8939 185.791 28.4633C185.791 28.0717 185.714 27.8368 185.558 27.7585C185.403 27.6411 185.092 27.6019 184.626 27.6019H184.004Z" fill="#0060A8"/>
<path d="M189.947 27.1713C189.986 27.1713 190.025 27.2104 190.025 27.2496V27.5628C190.025 27.6019 189.986 27.6411 189.947 27.6411H187.849V29.0505H189.753C189.792 29.0505 189.831 29.0897 189.831 29.1289V29.4421C189.831 29.4812 189.792 29.5204 189.753 29.5204H187.849V30.8124H189.947C189.986 30.8124 190.025 30.8515 190.025 30.8907V31.2039C190.025 31.243 189.986 31.2822 189.947 31.2822H187.383C187.345 31.2822 187.306 31.243 187.306 31.2039V27.2496C187.306 27.2104 187.345 27.1713 187.383 27.1713H189.947Z" fill="#0060A8"/>
<path d="M193.676 27.1713C193.715 27.1713 193.754 27.2104 193.754 27.2496V27.5628C193.754 27.6019 193.715 27.6411 193.676 27.6411H192.433V31.2822C192.433 31.3213 192.395 31.3605 192.356 31.3605H191.967C191.928 31.3605 191.89 31.3213 191.89 31.2822V27.6411H190.647C190.608 27.6411 190.569 27.6019 190.569 27.5628V27.2496C190.569 27.2104 190.608 27.1713 190.647 27.1713H193.676Z" fill="#0060A8"/>
<path d="M195.58 27.2496C195.658 27.3279 195.735 27.4845 195.813 27.7977L196.745 31.2822C196.745 31.3605 196.745 31.3605 196.668 31.3605H196.24C196.201 31.3605 196.201 31.3605 196.163 31.2822L195.813 30.0685H194.22L193.871 31.2822C193.871 31.3605 193.832 31.3605 193.793 31.3605H193.366C193.288 31.3605 193.288 31.3605 193.288 31.2822L194.259 27.7977C194.337 27.5236 194.415 27.3279 194.492 27.2496C194.57 27.1713 194.764 27.1321 194.997 27.1321C195.308 27.1321 195.502 27.1713 195.58 27.2496ZM194.803 27.9151L194.337 29.5595H195.735L195.308 27.9151C195.269 27.7977 195.23 27.6802 195.191 27.6802C195.153 27.6411 195.114 27.6411 194.997 27.6411C194.881 27.6019 194.881 27.6411 194.803 27.9151Z" fill="#0060A8"/>
<path d="M200.085 27.367C200.357 27.5628 200.474 27.876 200.474 28.4633C200.474 28.8939 200.396 29.2071 200.28 29.4029C200.163 29.5987 199.93 29.7161 199.58 29.7553L200.513 31.243C200.552 31.3213 200.513 31.3605 200.435 31.3605H200.047C199.93 31.3605 199.891 31.3213 199.814 31.243L198.92 29.7944H198.104V31.2822C198.104 31.3605 198.104 31.3605 198.027 31.3605H197.638C197.561 31.3605 197.561 31.3605 197.561 31.2822V27.2496C197.561 27.1713 197.561 27.1713 197.638 27.1713C197.988 27.1321 198.376 27.1321 198.804 27.1321C199.464 27.1321 199.814 27.1713 200.085 27.367ZM198.104 27.6019V29.2855H198.765C198.92 29.2855 199.037 29.2855 199.114 29.2855C199.27 29.2855 199.503 29.2463 199.58 29.2071C199.814 29.0897 199.891 28.8939 199.891 28.4633C199.891 28.0717 199.814 27.8368 199.658 27.7585C199.503 27.6411 199.192 27.6019 198.726 27.6019H198.104Z" fill="#0060A8"/>
<path d="M201.834 27.1713C201.873 27.1713 201.911 27.2104 201.911 27.2496V31.2822C201.911 31.3213 201.873 31.3605 201.834 31.3605H201.445C201.407 31.3605 201.368 31.3213 201.368 31.2822V27.2496C201.368 27.1713 201.407 27.1713 201.445 27.1713H201.834ZM202.378 26.0359C202.416 26.0359 202.416 26.0359 202.416 26.075V26.1142C202.416 26.1533 202.416 26.1533 202.378 26.1925L201.601 26.8972C201.562 26.9363 201.562 26.9363 201.523 26.8972L201.407 26.8189C201.368 26.7797 201.368 26.7797 201.407 26.7406L201.795 26.075C201.795 26.0359 201.834 26.0359 201.873 26.0359H202.378Z" fill="#0060A8"/>
<path d="M204.941 27.2496C205.019 27.3279 205.096 27.4845 205.174 27.7977L206.106 31.2822C206.106 31.3605 206.106 31.3605 206.029 31.3605H205.601C205.562 31.3605 205.562 31.3605 205.524 31.2822L205.174 30.0685H203.543L203.193 31.2822C203.193 31.3605 203.154 31.3605 203.115 31.3605H202.688C202.61 31.3605 202.61 31.3605 202.61 31.2822L203.581 27.7977C203.659 27.5236 203.737 27.3279 203.815 27.2496C203.892 27.1713 204.086 27.1321 204.319 27.1321C204.669 27.1321 204.863 27.1713 204.941 27.2496ZM204.164 27.9151L203.698 29.5595H205.096L204.669 27.9151C204.63 27.7977 204.591 27.6802 204.553 27.6802C204.514 27.6411 204.475 27.6411 204.358 27.6411C204.242 27.6019 204.203 27.6411 204.164 27.9151Z" fill="#0060A8"/>
<path d="M210.962 27.6411C211.234 27.9543 211.351 28.5024 211.351 29.2855C211.351 30.0293 211.234 30.5775 210.962 30.9298C210.69 31.243 210.263 31.4388 209.641 31.4388C208.981 31.4388 208.476 31.4388 208.127 31.3996C208.049 31.3996 208.049 31.3996 208.049 31.3213V27.2496C208.049 27.1713 208.049 27.1713 208.127 27.1713C208.476 27.1321 208.981 27.1321 209.641 27.1321C210.224 27.1321 210.69 27.2887 210.962 27.6411ZM208.593 27.6019V30.8907H209.641C210.069 30.8907 210.341 30.7732 210.535 30.4992C210.729 30.2251 210.807 29.8336 210.807 29.2463C210.807 28.659 210.729 28.2675 210.535 27.9934C210.341 27.7194 210.03 27.6019 209.603 27.6019H208.593Z" fill="#0060A8"/>
<path d="M214.924 27.1713C214.963 27.1713 215.002 27.2104 215.002 27.2496V27.5628C215.002 27.6019 214.963 27.6411 214.924 27.6411H212.827V29.0505H214.73C214.769 29.0505 214.808 29.0897 214.808 29.1289V29.4421C214.808 29.4812 214.769 29.5204 214.73 29.5204H212.827V30.8124H214.924C214.963 30.8124 215.002 30.8515 215.002 30.8907V31.2039C215.002 31.243 214.963 31.2822 214.924 31.2822H212.36C212.322 31.2822 212.283 31.243 212.283 31.2039V27.2496C212.283 27.2104 212.322 27.1713 212.36 27.1713H214.924Z" fill="#0060A8"/>
<path d="M219.935 27.1713C219.974 27.1713 220.013 27.2104 220.013 27.2496V27.5628C220.013 27.6019 219.974 27.6411 219.935 27.6411H217.837V29.0505H219.741C219.779 29.0505 219.818 29.0897 219.818 29.1288V29.4421C219.818 29.4812 219.779 29.5204 219.741 29.5204H217.837V31.243C217.837 31.2822 217.798 31.3213 217.76 31.3213H217.371C217.332 31.3213 217.293 31.2822 217.293 31.243V27.2496C217.293 27.2104 217.332 27.1713 217.371 27.1713H219.935Z" fill="#0060A8"/>
<path d="M223.47 30.9298C223.198 31.2822 222.809 31.3605 222.11 31.3605C221.411 31.3605 221.022 31.243 220.75 30.9298C220.479 30.5775 220.401 30.1076 220.401 29.2463C220.401 28.4241 220.517 27.8368 220.75 27.5628C220.984 27.2496 221.411 27.1321 222.11 27.1321C222.77 27.1321 223.237 27.2887 223.47 27.5628C223.703 27.876 223.819 28.4241 223.819 29.2463C223.819 30.1076 223.741 30.6166 223.47 30.9298ZM221.217 30.5775C221.372 30.8124 221.644 30.8907 222.11 30.8907C222.576 30.8907 222.887 30.7732 223.003 30.5775C223.159 30.3425 223.198 29.9119 223.198 29.2855C223.198 28.6199 223.159 28.2675 223.003 27.9934C222.848 27.7194 222.576 27.6411 222.071 27.6411C221.566 27.6411 221.333 27.7194 221.139 27.9934C220.984 28.2675 220.945 28.6199 220.945 29.2855C221.022 29.9119 221.061 30.3425 221.217 30.5775Z" fill="#0060A8"/>
<path d="M228.753 27.1713C228.791 27.1713 228.83 27.2104 228.83 27.2496L229.18 31.2822C229.18 31.3213 229.141 31.3605 229.102 31.3605H228.714C228.675 31.3605 228.636 31.3213 228.636 31.2822L228.364 28.1109L227.16 31.1647C227.16 31.2039 227.121 31.243 227.043 31.243H226.655C226.616 31.243 226.577 31.2039 226.538 31.1647L225.334 28.1109L225.062 31.2822C225.062 31.3213 225.024 31.3605 224.985 31.3605H224.596C224.519 31.3605 224.519 31.3213 224.519 31.2822L224.868 27.2496C224.868 27.1713 224.907 27.1713 224.946 27.1713H225.373C225.49 27.1713 225.528 27.2104 225.606 27.4062L226.81 30.5775L228.015 27.4062C228.092 27.2496 228.131 27.1713 228.248 27.1713H228.753Z" fill="#0060A8"/>
<path d="M232.792 27.1713C232.831 27.1713 232.87 27.2104 232.87 27.2496V27.5628C232.87 27.6019 232.831 27.6411 232.792 27.6411H230.695V29.0505H232.598C232.637 29.0505 232.676 29.0897 232.676 29.1289V29.4421C232.676 29.4812 232.637 29.5204 232.598 29.5204H230.695V30.8124H232.792C232.831 30.8124 232.87 30.8515 232.87 30.8907V31.2039C232.87 31.243 232.831 31.2822 232.792 31.2822H230.229C230.19 31.2822 230.151 31.243 230.151 31.2039V27.2496C230.151 27.2104 230.19 27.1713 230.229 27.1713H232.792Z" fill="#0060A8"/>
<path d="M237.026 27.1713C237.065 27.1713 237.104 27.2104 237.104 27.2496V31.2822C237.104 31.3213 237.065 31.3605 237.026 31.3605H236.676C236.599 31.3605 236.521 31.3214 236.482 31.243L234.307 27.9151V31.243C234.307 31.2822 234.268 31.3213 234.229 31.3213H233.841C233.802 31.3213 233.763 31.2822 233.763 31.243V27.2496C233.763 27.1713 233.802 27.1713 233.841 27.1713H234.229C234.424 27.1713 234.462 27.2104 234.54 27.3279L236.56 30.3817V27.2496C236.56 27.1713 236.599 27.1713 236.638 27.1713H237.026Z" fill="#0060A8"/>
<path d="M240.95 27.1713C240.988 27.1713 241.027 27.2104 241.027 27.2496V27.5628C241.027 27.6019 240.988 27.6411 240.95 27.6411H239.668V31.2822C239.668 31.3213 239.629 31.3605 239.59 31.3605H239.202C239.163 31.3605 239.124 31.3213 239.124 31.2822V27.6411H237.881C237.842 27.6411 237.803 27.6019 237.803 27.5628V27.2496C237.803 27.2104 237.842 27.1713 237.881 27.1713H240.95Z" fill="#0060A8"/>
<path d="M244.368 30.9298C244.096 31.2822 243.708 31.3605 243.008 31.3605C242.309 31.3605 241.921 31.243 241.649 30.9298C241.377 30.5775 241.299 30.1076 241.299 29.2463C241.299 28.4241 241.416 27.8368 241.649 27.5628C241.882 27.2496 242.309 27.1321 243.008 27.1321C243.669 27.1321 244.135 27.2887 244.368 27.5628C244.601 27.876 244.718 28.4241 244.718 29.2463C244.718 30.1076 244.64 30.6166 244.368 30.9298ZM242.115 30.5775C242.27 30.8124 242.542 30.8907 243.008 30.8907C243.475 30.8907 243.785 30.7732 243.902 30.5775C244.057 30.3425 244.096 29.9119 244.096 29.2855C244.096 28.6199 244.057 28.2675 243.902 27.9934C243.746 27.7194 243.475 27.6411 242.97 27.6411C242.465 27.6411 242.232 27.7194 242.037 27.9934C241.882 28.2675 241.843 28.6199 241.843 29.2855C241.921 29.9119 241.999 30.3425 242.115 30.5775Z" fill="#0060A8"/>
<path d="M175.614 34.2186C175.653 34.2186 175.692 34.2577 175.692 34.2969V34.6101C175.692 34.6492 175.653 34.6884 175.614 34.6884H174.371V38.3295C174.371 38.3686 174.332 38.4078 174.293 38.4078H173.905C173.866 38.4078 173.827 38.3686 173.827 38.3295V34.6884H172.584C172.545 34.6884 172.506 34.6492 172.506 34.6101V34.2969C172.506 34.2577 172.545 34.2186 172.584 34.2186H175.614Z" fill="#0060A8"/>
<path d="M179.576 34.2186C179.615 34.2186 179.654 34.2577 179.654 34.2969V36.3328C179.654 37.1941 179.576 37.7031 179.304 38.0163C179.032 38.3687 178.683 38.447 177.983 38.447C177.44 38.447 177.09 38.3687 176.857 38.1729C176.74 38.0946 176.624 37.938 176.546 37.7814C176.43 37.429 176.352 36.9984 176.352 36.2936V34.2577C176.352 34.2186 176.391 34.1794 176.43 34.1794H176.818C176.857 34.1794 176.896 34.2186 176.896 34.2577V36.2936C176.896 36.7635 176.935 37.0767 176.974 37.3116C177.09 37.7814 177.362 37.938 177.945 37.938C178.372 37.938 178.683 37.8206 178.799 37.6248C178.955 37.3899 179.032 36.9592 179.032 36.3328V34.2969C179.032 34.2577 179.071 34.2186 179.11 34.2186H179.576Z" fill="#0060A8"/>
<path d="M183.227 34.4144C183.499 34.6101 183.616 34.9233 183.616 35.5106C183.616 35.9413 183.538 36.2545 183.421 36.4502C183.305 36.646 183.072 36.7635 182.722 36.8026L183.654 38.2904C183.693 38.3687 183.655 38.4078 183.577 38.4078H183.227C183.111 38.4078 183.072 38.3687 182.994 38.2904L182.101 36.8418H181.285V38.3295C181.285 38.4078 181.285 38.4078 181.207 38.4078H180.819C180.741 38.4078 180.741 38.4078 180.741 38.3295V34.2969C180.741 34.2186 180.741 34.2186 180.819 34.2186C181.168 34.1794 181.557 34.1794 181.984 34.1794C182.606 34.1794 182.955 34.2186 183.227 34.4144ZM181.246 34.6493V36.3328H181.907C182.062 36.3328 182.178 36.3328 182.256 36.3328C182.412 36.3328 182.645 36.2936 182.722 36.2545C182.955 36.137 183.033 35.9413 183.033 35.5106C183.033 35.1191 182.955 34.8842 182.8 34.8059C182.645 34.6884 182.334 34.6493 181.868 34.6493H181.246Z" fill="#0060A8"/>
<path d="M184.975 34.2186C185.014 34.2186 185.053 34.2577 185.053 34.2969V38.3295C185.053 38.3686 185.014 38.4078 184.975 38.4078H184.587C184.548 38.4078 184.509 38.3686 184.509 38.3295V34.2969C184.509 34.2186 184.548 34.2186 184.587 34.2186H184.975ZM185.519 33.0832C185.558 33.0832 185.558 33.0832 185.558 33.1223V33.1615C185.558 33.2006 185.558 33.2006 185.519 33.2398L184.742 33.9445C184.704 33.9836 184.703 33.9836 184.665 33.9445L184.548 33.8662C184.509 33.827 184.509 33.827 184.548 33.7879L184.937 33.1223C184.937 33.0832 184.975 33.0832 185.014 33.0832H185.519Z" fill="#0060A8"/>
<path d="M188.51 34.2577C188.549 34.2577 188.588 34.2969 188.588 34.336V34.6101C188.588 34.6492 188.549 34.6884 188.51 34.6884H187.267C186.801 34.6884 186.529 34.845 186.529 35.1974V35.2757C186.529 35.5497 186.607 35.7063 186.956 35.8238L188.161 36.3328C188.627 36.5285 188.782 36.8417 188.782 37.3116V37.5073C188.782 37.8205 188.666 38.0554 188.51 38.2121C188.433 38.2904 188.316 38.3295 188.2 38.3687C187.928 38.447 187.695 38.447 187.345 38.447C186.879 38.447 186.452 38.4078 185.985 38.3687C185.947 38.3687 185.908 38.3295 185.908 38.2904V38.0554C185.908 38.0163 185.947 37.9771 185.985 37.9771H187.5C188.005 37.9771 188.2 37.8205 188.2 37.5073V37.3899C188.2 37.0767 188.122 36.92 187.772 36.8026L186.452 36.2545C186.063 36.0979 185.947 35.7846 185.947 35.3148V35.1974C185.947 34.8842 186.063 34.6492 186.218 34.4926C186.296 34.4143 186.413 34.3752 186.529 34.336C186.801 34.2577 187.034 34.2186 187.384 34.2186C187.695 34.1794 188.044 34.2186 188.51 34.2577Z" fill="#0060A8"/>
<path d="M192.2 34.2186C192.239 34.2186 192.278 34.2577 192.278 34.2969V34.6101C192.278 34.6492 192.239 34.6884 192.2 34.6884H190.957V38.3295C190.957 38.3686 190.918 38.4078 190.88 38.4078H190.491C190.452 38.4078 190.413 38.3686 190.413 38.3295V34.6884H189.17C189.132 34.6884 189.093 34.6492 189.093 34.6101V34.2969C189.093 34.2577 189.132 34.2186 189.17 34.2186H192.2Z" fill="#0060A8"/>
<path d="M193.443 34.2186C193.482 34.2186 193.521 34.2577 193.521 34.2969V38.3295C193.521 38.3686 193.482 38.4078 193.443 38.4078H193.055C193.016 38.4078 192.977 38.3686 192.977 38.3295V34.2969C192.977 34.2186 193.016 34.2186 193.055 34.2186H193.443Z" fill="#0060A8"/>
<path d="M197.172 34.2186C197.25 34.2186 197.25 34.2577 197.25 34.2969V34.5709C197.25 34.6101 197.211 34.6492 197.172 34.6492H196.162C195.696 34.6492 195.386 34.7667 195.269 34.9624C195.114 35.1974 195.075 35.628 195.075 36.2936C195.075 36.9592 195.153 37.3899 195.269 37.5856C195.424 37.8205 195.696 37.8988 196.162 37.8988H197.211C197.25 37.8988 197.289 37.938 197.289 37.9771V38.2512C197.289 38.2903 197.25 38.3295 197.211 38.3686C196.978 38.4078 196.629 38.4078 196.201 38.4078C195.502 38.4078 195.114 38.2903 194.842 37.9771C194.57 37.6248 194.492 37.1549 194.492 36.2936C194.492 35.4323 194.57 34.9624 194.842 34.6101C195.114 34.2577 195.502 34.1403 196.201 34.1403C196.59 34.1794 196.939 34.1794 197.172 34.2186Z" fill="#0060A8"/>
<path d="M200.863 37.9772C200.591 38.3295 200.202 38.4078 199.503 38.4078C198.804 38.4078 198.415 38.2904 198.144 37.9772C197.872 37.6248 197.794 37.155 197.794 36.2936C197.794 35.4714 197.91 34.8842 198.144 34.6101C198.377 34.2969 198.804 34.1794 199.503 34.1794C200.163 34.1794 200.63 34.336 200.863 34.6101C201.096 34.9233 201.212 35.4714 201.212 36.2936C201.212 37.155 201.135 37.6639 200.863 37.9772ZM198.61 37.6248C198.765 37.8597 199.037 37.938 199.503 37.938C199.969 37.938 200.28 37.8205 200.396 37.6248C200.552 37.3899 200.591 36.9592 200.591 36.3328C200.591 35.6672 200.552 35.3148 200.396 35.0408C200.241 34.7667 199.969 34.6884 199.464 34.6884C198.959 34.6884 198.726 34.7667 198.532 35.0408C198.377 35.3148 198.338 35.6672 198.338 36.3328C198.415 36.9592 198.454 37.3899 198.61 37.6248Z" fill="#0060A8"/>
<path d="M164.194 48C163.999 48 163.883 47.8434 163.883 47.6868V0.313214C163.883 0.117455 164.038 0 164.194 0C164.388 0 164.504 0.156607 164.504 0.313214V47.6476C164.543 47.8434 164.388 48 164.194 48Z" fill="#5B5B5F"/>
<path d="M0.155762 14.8777H3.30213C3.61288 14.8777 3.92363 14.8385 4.23438 14.7994C4.4286 14.7602 4.54513 14.6427 4.58398 14.447C5.78814 8.76999 10.799 4.50246 16.781 4.50246H17.4413C17.5579 3.83688 17.6356 3.13215 17.6356 2.38826V0.156616H16.781C8.27416 0.156616 1.20455 6.53835 0.155762 14.8777Z" fill="#8FB435"/>
<path d="M14.1781 43.1844C8.54568 41.9707 4.31168 36.9201 4.31168 30.8907V30.2251C3.61249 30.1077 2.95214 30.0294 2.21411 30.0294H0V30.8907C0 39.5041 6.37042 46.5906 14.6053 47.6868V44.5155C14.6053 44.2023 14.5665 43.8891 14.5277 43.5759C14.4888 43.3801 14.3723 43.2235 14.1781 43.1844Z" fill="#F1CF00"/>
<path d="M43.0779 33.2007C42.8837 33.2398 42.7672 33.3573 42.7283 33.553C41.5242 39.23 36.5133 43.4976 30.5313 43.4976H29.871C29.7544 44.1631 29.6768 44.8679 29.6768 45.6118V47.8826H30.5313C39.077 47.8826 46.1078 41.4617 47.1954 33.1615H44.049C43.6994 33.1224 43.3887 33.1224 43.0779 33.2007Z" fill="#C98796"/>
<path d="M32.7065 0.274078V3.44537C32.7065 3.75858 32.7454 4.07179 32.7842 4.38501C32.8231 4.58077 32.9396 4.69822 33.1338 4.73737C38.7662 5.95108 43.0002 11.0016 43.0002 17.031V17.6966C43.6994 17.814 44.3597 17.8923 45.0978 17.8923H47.3507V17.031C47.3119 8.45679 40.9415 1.37033 32.7065 0.274078Z" fill="#61AADE"/>
<path d="M19.3443 36.6852C18.7617 35.863 18.1401 35.0408 17.4021 34.3361L13.44 30.3034C12.702 29.5595 11.9251 28.9331 11.1094 28.3458C8.50684 26.584 5.477 25.6444 2.2918 25.6444H0V30.1077H2.25295C5.28278 30.1077 8.15724 31.3214 10.3325 33.4747L14.3334 37.5073C16.4699 39.6607 17.674 42.5579 17.674 45.6509V47.9217H22.1022V45.6509C22.0245 42.3622 21.0923 39.2692 19.3443 36.6852Z" fill="#D68624"/>
<path d="M20.9757 14.5645C20.5873 15.0343 20.16 15.5041 19.6939 15.9739L15.7318 20.0065C15.2657 20.4764 14.7995 20.8679 14.3334 21.2986C12.9739 22.3948 11.5366 23.3344 9.94404 24C7.53571 25.0571 4.93317 25.6444 2.25293 25.6444C5.43814 25.6444 8.50681 26.584 11.0705 28.3459C12.197 27.876 13.2846 27.3279 14.3334 26.7015C15.6153 25.9185 16.8194 25.018 17.9459 24C18.2567 23.726 18.5286 23.4519 18.8393 23.1387L22.8014 19.1061C23.0733 18.832 23.3841 18.5188 23.656 18.2056C22.646 17.0702 21.7526 15.8565 20.9757 14.5645Z" fill="#005F52"/>
<path d="M17.6352 0.156616V2.42742C17.6352 5.48125 16.431 8.37848 14.2946 10.571L10.2937 14.5253C8.15724 16.6786 5.28278 17.8923 2.21411 17.8923H0V22.3556H2.25295C5.43816 22.3556 8.50684 21.416 11.0705 19.6542C11.8863 19.106 12.702 18.4405 13.4012 17.6966L17.3633 13.7031C18.1013 12.9592 18.7228 12.1762 19.3055 11.354C21.0535 8.73084 21.9857 5.67701 21.9857 2.46657V0.156616H17.6352Z" fill="#009385"/>
<path d="M31.6189 20.0065L27.618 15.9739C27.1519 15.5041 26.7634 15.0343 26.3362 14.5644C25.2485 13.2333 24.3551 11.7455 23.6559 10.1794C22.6071 7.75203 22.0245 5.12887 22.0245 2.4274C22.0245 5.63784 21.0922 8.73083 19.3442 11.3148C19.8104 12.4502 20.3542 13.5465 20.9757 14.6036C21.7526 15.8956 22.646 17.1093 23.6559 18.2447C23.9278 18.5579 24.1997 18.832 24.5105 19.1452L28.4726 23.1778C28.7445 23.4519 29.0552 23.7651 29.366 24.0392C30.4925 23.0212 31.6966 22.1207 32.9785 21.3377C32.5124 20.8679 32.0462 20.4372 31.6189 20.0065Z" fill="#003163"/>
<path d="M45.098 17.8923C42.0682 17.8923 39.1938 16.6786 37.0185 14.5253L33.0176 10.5318C30.8811 8.37848 29.677 5.48125 29.677 2.38826V0.156616H25.2876V2.42742C25.2876 5.63786 26.2199 8.73084 27.9678 11.3149C28.5505 12.137 29.172 12.9592 29.91 13.664L33.911 17.6574C34.649 18.4013 35.4259 19.0277 36.2416 19.615C38.8442 21.3768 41.874 22.3165 45.0592 22.3165H47.3121V17.8923H45.098Z" fill="#0060A8"/>
<path d="M45.0981 22.3556C41.9129 22.3556 38.8443 21.416 36.2806 19.6542C35.1541 20.124 34.0664 20.6721 33.0177 21.2985C31.7358 22.0816 30.5316 22.9821 29.4052 24C29.0944 24.2741 28.8225 24.5481 28.5118 24.8614L24.5108 28.8548C24.2389 29.1289 23.9282 29.4421 23.6562 29.7553C24.6662 30.8907 25.5596 32.1044 26.3365 33.3964C26.7249 32.9266 27.1522 32.4568 27.6183 31.987L31.6193 27.9543C32.0854 27.4845 32.5515 27.093 33.0177 26.6623C34.3772 25.5661 35.8144 24.6264 37.407 23.9609C39.7765 22.9038 42.3791 22.3556 45.0981 22.3556Z" fill="#623E8C"/>
<path d="M45.098 25.6052C41.9128 25.6052 38.8442 26.5449 36.2805 28.3067C35.4647 28.894 34.649 29.5204 33.9498 30.2643L29.91 34.2969C29.172 35.0408 28.5505 35.8238 27.9678 36.646C26.2199 39.2692 25.2876 42.323 25.2876 45.5334V47.8042H29.7158V45.5334C29.7158 42.4796 30.92 39.5824 33.0564 37.3899L37.0573 33.3573C39.1938 31.2039 42.0682 29.9902 45.1369 29.9902H47.3898V25.6052H45.098Z" fill="#8D3287"/>
<path d="M26.3363 33.3964C25.5594 32.1044 24.666 30.8907 23.6561 29.7553C23.3841 29.4421 23.1122 29.1681 22.8015 28.8548L18.8394 24.8222C18.5675 24.5482 18.2567 24.2349 17.946 23.9609C16.8195 24.9788 15.6153 25.8793 14.3335 26.6623C14.7996 27.0539 15.2658 27.4845 15.7319 27.9544L19.694 31.987C20.1601 32.4568 20.5485 32.9266 20.9758 33.3964C22.0635 34.7667 22.9957 36.2154 23.6561 37.8206C24.7048 40.248 25.2875 42.8712 25.2875 45.5726C25.2875 42.3622 26.2198 39.2692 27.9677 36.6852C27.5405 35.5498 26.9966 34.4535 26.3363 33.3964Z" fill="#CD6D64"/>
<path d="M134.944 18.2055C135.371 18.2055 135.721 17.9706 135.838 17.6183L136.576 15.5824C136.653 15.3866 136.576 15.3083 136.381 15.3083H131.448C131.021 15.3083 130.632 15.5041 130.438 15.9739L129.739 17.9706C129.661 18.1664 129.739 18.2447 129.933 18.2447H134.944V18.2055ZM72.25 15.5824H68.7152C68.016 15.5824 67.6275 15.8173 67.3168 16.4437L64.4035 22.6688L61.529 16.4437C61.2183 15.8564 60.7521 15.5824 60.0918 15.5824H56.7512C56.3628 15.5824 56.2851 15.7781 56.4793 16.1305L62.0728 27.1713V33.3573C62.0728 33.6313 62.1894 33.7879 62.4613 33.7879H66.3845C66.6564 33.7879 66.773 33.6313 66.773 33.3573V27.2496L72.5607 16.1305C72.7161 15.739 72.5996 15.5824 72.25 15.5824ZM84.5635 19.9282H81.6502C81.0675 19.9282 80.6403 20.3197 80.6403 20.9462V30.2643H79.0088C77.8823 30.3034 77.3385 30.186 76.9889 29.7553C76.6782 29.2072 76.5616 28.4241 76.6393 26.6623V20.3197C76.6393 20.0457 76.5228 19.9282 76.2897 19.9282H73.4153C72.8326 19.9282 72.3665 20.398 72.3665 20.9853V27.9543C72.3665 30.4992 72.5996 31.8695 73.5707 32.77C74.5029 33.6705 75.8236 33.9054 78.3485 33.9054C80.951 33.9054 83.0097 33.7488 84.5635 33.4747C84.8354 33.3964 84.9131 33.3573 84.9131 33.0441V20.3197C84.9131 20.0457 84.7577 19.9282 84.5635 19.9282ZM97.8093 20.0848C96.7605 19.8891 95.7506 19.7716 94.0414 19.7716C90.7397 19.8499 89.1859 20.2023 88.2925 21.925C87.7876 23.0604 87.5933 24.4307 87.5933 26.8189V26.8581C87.5933 29.2463 87.7876 30.6166 88.2925 31.752C89.1859 33.4747 90.7397 33.8271 94.0414 33.9054C95.7506 33.9054 96.7605 33.7879 97.8093 33.5922C98.3531 33.4747 98.5862 33.0832 98.5862 32.4959V30.6558C98.5862 30.3817 98.4308 30.2643 98.1589 30.2643H94.0414C93.148 30.2643 92.5265 30.0294 92.2546 29.5987C91.9827 29.168 91.8273 28.2675 91.8273 26.9364C91.8273 26.8972 91.8273 26.8972 91.8273 26.8581C91.8273 26.8189 91.8273 26.8189 91.8273 26.7798C91.8273 25.4486 91.9827 24.5481 92.2546 24.1175C92.5654 23.6868 93.148 23.4519 94.0414 23.4519H98.1589C98.4308 23.4519 98.5862 23.3344 98.5862 23.0604V21.2202C98.5862 20.5938 98.3143 20.2023 97.8093 20.0848ZM153.201 20.9462C152.269 20.0457 150.948 19.8108 148.423 19.8108C145.471 19.8108 143.373 19.9674 142.208 20.2414C141.975 20.2806 141.858 20.3197 141.858 20.5938V33.3964C141.858 33.6705 141.975 33.7879 142.208 33.7879H145.782C146.015 33.7879 146.131 33.6705 146.131 33.3964V23.4519H147.763C148.967 23.4519 149.355 23.4127 149.744 24C150.132 24.5481 150.132 25.2137 150.132 27.0538V33.3964C150.132 33.6705 150.249 33.7879 150.482 33.7879H154.017C154.25 33.7879 154.366 33.6705 154.366 33.3964V25.7227C154.405 23.1778 154.133 21.8467 153.201 20.9462ZM132.614 19.7716C130.982 19.7716 129.584 19.8891 128.38 20.0848C127.797 20.2023 127.564 20.5155 127.564 21.1811V23.0995C127.564 23.3344 127.68 23.4519 127.875 23.4519H132.652C133.895 23.4519 134.517 23.9608 134.517 24.9005V25.4095L131.837 25.4486C129.972 25.4486 128.613 25.7227 127.797 26.2708C126.981 26.8189 126.554 27.9152 126.515 29.5595C126.67 32.0653 127.214 33.1224 128.807 33.5922C129.351 33.7488 129.933 33.8271 130.438 33.8662C130.982 33.9054 131.681 33.9445 132.575 33.9445C134.633 33.9445 136.498 33.7879 138.168 33.4356C138.557 33.3573 138.751 33.0832 138.751 32.6525V24.1958C138.712 21.5726 137.935 19.8108 132.614 19.7716ZM134.439 30.3034C133.895 30.4209 133.235 30.4992 132.38 30.4992C131.06 30.4992 130.671 30.2251 130.671 29.2463C130.671 28.3458 131.021 27.9543 132.186 27.9543H134.439V30.3034ZM106.743 19.7716C105.112 19.7716 103.714 19.8891 102.509 20.0848C101.927 20.2023 101.694 20.5155 101.694 21.1811V23.0995C101.694 23.3344 101.81 23.4519 102.004 23.4519H106.782C108.025 23.4519 108.647 23.9608 108.647 24.9005V25.4095L105.967 25.4486C104.102 25.4486 102.743 25.7227 101.927 26.2708C101.111 26.8189 100.684 27.9152 100.645 29.5595C100.8 32.0653 101.344 33.1224 102.937 33.5922C103.481 33.7488 104.063 33.8271 104.568 33.8662C105.112 33.9054 105.811 33.9445 106.705 33.9445C108.763 33.9445 110.628 33.7879 112.298 33.4356C112.687 33.3573 112.881 33.0832 112.881 32.6525V24.1958C112.842 21.5726 112.065 19.8108 106.743 19.7716ZM108.608 30.3034C108.064 30.4209 107.404 30.4992 106.549 30.4992C105.229 30.4992 104.84 30.2251 104.84 29.2463C104.84 28.3458 105.19 27.9543 106.355 27.9543H108.608V30.3034ZM123.679 30.1077H122.747C121.66 30.1077 121.31 29.8728 121.31 28.8157V22.708H123.485C123.757 22.708 123.912 22.5905 123.912 22.3165V19.8499C123.912 19.5759 123.757 19.4584 123.485 19.4584H121.31V16.1697C121.31 15.8564 121.077 15.7781 120.883 15.7781H118.164C117.426 15.7781 116.921 16.0914 116.921 17.031V19.4584H115.367C115.095 19.4584 114.94 19.5759 114.94 19.8499V22.3165C114.94 22.5905 115.095 22.708 115.367 22.708H116.882V30.4209C116.882 32.0653 117.27 33.0049 118.164 33.4356C118.63 33.6313 119.057 33.7488 119.445 33.8271C119.834 33.8662 120.417 33.9054 121.155 33.9054C121.854 33.9054 122.669 33.7879 123.641 33.6313C123.912 33.5922 124.068 33.3964 124.068 33.1224V30.46C124.107 30.2251 123.951 30.1077 123.679 30.1077Z" fill="#003163"/>
<path d="M61.5676 5.75534C61.6453 5.75534 61.723 5.79449 61.723 5.91195V9.27899C61.723 10.6493 61.5288 11.5889 61.1015 12.0588C60.6742 12.5286 59.8973 12.8026 58.732 12.8026C58.2271 12.8026 57.7221 12.7635 57.2948 12.646C57.1394 12.6069 57.1006 12.5286 57.1006 12.4111V11.6672C57.1006 11.5889 57.1394 11.5106 57.256 11.5106H58.7709C59.3924 11.5106 59.8197 11.354 60.0139 11.0408C60.2081 10.7276 60.3246 10.1403 60.3246 9.23984V5.87279C60.3246 5.79449 60.3635 5.71619 60.48 5.71619H61.5676V5.75534Z" fill="#003163"/>
<path d="M67.1999 7.5563C67.2776 7.5563 67.3164 7.59546 67.3164 7.71291V12.4503C67.3164 12.5677 67.2776 12.5677 67.1999 12.6069C66.6561 12.7243 65.9181 12.7635 65.0247 12.7635C64.0924 12.7635 63.6263 12.6852 63.2767 12.372C62.9271 12.0588 62.8105 11.5106 62.8105 10.571V7.71291C62.8105 7.63461 62.8494 7.5563 62.9659 7.5563H64.0536C64.1312 7.5563 64.1701 7.59546 64.1701 7.71291V10.2186C64.1701 10.6884 64.2089 11.0017 64.2478 11.1974C64.3643 11.5498 64.5197 11.6281 65.1412 11.6281H65.9569V7.75206C65.9569 7.67376 65.9958 7.59546 66.1123 7.59546H67.1999V7.5563Z" fill="#003163"/>
<path d="M72.4827 7.94782C72.8323 8.26103 72.9488 8.80916 72.9488 9.7488V12.6069C72.9488 12.7243 72.91 12.7635 72.7935 12.7635H71.7058C71.6281 12.7635 71.5504 12.7243 71.5504 12.6069V10.1012C71.5504 9.39643 71.5504 9.12237 71.3562 8.92661C71.2009 8.73085 71.0455 8.73085 70.5793 8.73085H69.7636V12.6069C69.7636 12.7243 69.7248 12.7635 69.6082 12.7635H68.5206C68.4429 12.7635 68.3652 12.7243 68.3652 12.6069V7.83036C68.3652 7.71291 68.4041 7.71291 68.5206 7.67376C68.9867 7.5563 69.7248 7.51715 70.6959 7.51715C71.667 7.51715 72.1331 7.59545 72.4827 7.94782Z" fill="#003163"/>
<path d="M75.4348 6.14684C75.5514 6.10769 75.5902 6.14684 75.5902 6.30345V7.63461H76.4448C76.5613 7.63461 76.6002 7.67376 76.6002 7.79121V8.5351C76.6002 8.6134 76.5613 8.6917 76.4448 8.6917H75.5902V11.1974C75.5902 11.5889 75.7067 11.6672 76.134 11.6672H76.5225C76.639 11.6672 76.6778 11.7064 76.6778 11.8238V12.6069C76.6778 12.7243 76.639 12.7635 76.5225 12.7635C76.2506 12.8026 75.9787 12.8418 75.7456 12.8418C75.3571 12.8418 75.2018 12.8418 74.891 12.7635C74.4637 12.646 74.2695 12.372 74.2695 11.6672V8.6134H73.7257C73.6092 8.6134 73.5703 8.57425 73.5703 8.45679V7.71291C73.5703 7.63461 73.6092 7.5563 73.7257 7.5563H74.2695V6.53836C74.2695 6.46006 74.3084 6.4209 74.386 6.38175L75.4348 6.14684Z" fill="#003163"/>
<path d="M81.4168 8.06527C81.7664 8.45679 81.8829 9.04407 81.8829 10.1403C81.8829 11.1974 81.7276 11.9021 81.4168 12.2545C81.1061 12.6069 80.4846 12.7635 79.5523 12.7635C78.6201 12.7635 77.9986 12.6069 77.6878 12.2545C77.3771 11.9021 77.2217 11.1974 77.2217 10.1403C77.2217 9.08322 77.3771 8.37849 77.6878 8.02612C77.9986 7.67376 78.6201 7.51715 79.5523 7.51715C80.5623 7.51715 81.0672 7.63461 81.4168 8.06527ZM78.7754 9.00492C78.6589 9.20067 78.6201 9.59219 78.6201 10.1795C78.6201 10.7667 78.6589 11.1583 78.7754 11.354C78.892 11.5498 79.1639 11.6281 79.5523 11.6281C79.9796 11.6281 80.2127 11.5498 80.3292 11.354C80.4457 11.1583 80.5234 10.7667 80.5234 10.1795C80.5234 9.59219 80.4457 9.20067 80.3292 9.00492C80.2127 8.80916 79.9408 8.73085 79.5523 8.73085C79.1639 8.6917 78.892 8.80916 78.7754 9.00492Z" fill="#003163"/>
<path d="M86.2336 7.63461C86.3501 7.67376 86.389 7.71291 86.389 7.79121V8.49594C86.389 8.6134 86.3501 8.65255 86.2336 8.65255H84.6021C84.2525 8.65255 84.0583 8.77001 84.0583 8.96576V9.04407C84.0583 9.20067 84.2137 9.35728 84.4856 9.47474L85.6509 9.9054C86.389 10.1795 86.622 10.6101 86.622 11.2757V11.4323C86.622 12.4503 85.9617 12.7635 84.6798 12.7635C84.0195 12.7635 83.3591 12.7243 82.7765 12.6852C82.6599 12.6852 82.6211 12.646 82.6211 12.5286V11.7847C82.6211 11.7064 82.6599 11.6281 82.7765 11.6281H84.641C85.1071 11.6281 85.2625 11.5498 85.2625 11.3149V11.2366C85.2625 11.0408 85.146 10.9233 84.7575 10.8059L83.631 10.4144C83.0095 10.2186 82.6988 9.7488 82.6988 9.00492V8.84831C82.6988 7.90867 83.398 7.51715 84.7575 7.51715C85.3013 7.51715 85.7675 7.5563 86.2336 7.63461Z" fill="#003163"/>
<path d="M90.5842 6.14684C90.7008 6.10769 90.7396 6.14684 90.7396 6.30345V7.63461H91.5942C91.7107 7.63461 91.7496 7.67376 91.7496 7.79121V8.5351C91.7496 8.6134 91.7107 8.6917 91.5942 8.6917H90.7396V11.1974C90.7396 11.5889 90.8562 11.6672 91.2834 11.6672H91.6719C91.7884 11.6672 91.8273 11.7064 91.8273 11.8238V12.6069C91.8273 12.7243 91.7884 12.7635 91.6719 12.7635C91.4 12.8026 91.1281 12.8418 90.895 12.8418C90.5066 12.8418 90.3512 12.8418 90.0404 12.7635C89.6131 12.646 89.4578 12.372 89.4189 11.6672V8.6134H88.8751C88.7586 8.6134 88.7197 8.57425 88.7197 8.45679V7.71291C88.7197 7.63461 88.7586 7.5563 88.8751 7.5563H89.4189V6.53836C89.4189 6.46006 89.4578 6.4209 89.5355 6.38175L90.5842 6.14684Z" fill="#003163"/>
<path d="M95.3618 7.63462C95.4783 7.67377 95.5171 7.71292 95.5171 7.83038V8.57426C95.5171 8.65256 95.4783 8.73087 95.3618 8.73087H94.5072C94.0022 8.73087 93.8857 8.80917 93.8857 9.20069V12.6069C93.8857 12.7243 93.8468 12.7635 93.7303 12.7635H92.6427C92.565 12.7635 92.4873 12.7243 92.4873 12.6069V8.84832C92.4873 8.41765 92.6427 8.06529 92.8369 7.90868C93.1865 7.63462 93.6526 7.55631 94.1576 7.55631C94.7014 7.51716 95.0898 7.55631 95.3618 7.63462Z" fill="#003163"/>
<path d="M99.6349 7.90867C99.9456 8.18273 100.101 8.57425 100.101 9.12237V12.2937C100.101 12.4503 100.023 12.5286 99.9068 12.5677C99.363 12.6852 98.6638 12.7635 97.8481 12.7635C97.0712 12.7635 96.6827 12.7243 96.2943 12.5286C95.9059 12.2937 95.7505 11.9021 95.7505 11.1974C95.7505 10.6101 95.9059 10.2186 96.2166 9.98371C96.5274 9.78795 96.9935 9.6705 97.6538 9.6705H98.8192V9.35728C98.8192 8.92661 98.5473 8.73085 97.9646 8.73085H96.2943C96.1778 8.73085 96.1778 8.6917 96.1778 8.57425V7.83036C96.1778 7.71291 96.2166 7.71291 96.2943 7.67376C96.7604 7.59545 97.3042 7.51715 97.9646 7.51715C98.7415 7.51715 99.3241 7.67376 99.6349 7.90867ZM98.7415 10.571H97.6927C97.2266 10.571 97.0712 10.7276 97.0712 11.1191C97.0712 11.5498 97.2654 11.6672 97.8481 11.6672C98.2365 11.6672 98.5473 11.6281 98.7415 11.5889V10.571Z" fill="#003163"/>
<path d="M105.228 7.94782C105.578 8.26103 105.694 8.80916 105.694 9.7488V12.6069C105.694 12.7243 105.656 12.7635 105.539 12.7635H104.451C104.374 12.7635 104.296 12.7243 104.296 12.6069V10.1012C104.296 9.39643 104.296 9.12237 104.102 8.92661C103.946 8.73085 103.791 8.73085 103.325 8.73085H102.509V12.6069C102.509 12.7243 102.47 12.7635 102.354 12.7635H101.266C101.189 12.7635 101.111 12.7243 101.111 12.6069V7.83036C101.111 7.71291 101.15 7.71291 101.266 7.67376C101.732 7.5563 102.47 7.51715 103.441 7.51715C104.413 7.51715 104.879 7.59545 105.228 7.94782Z" fill="#003163"/>
<path d="M110.123 7.63461C110.239 7.67376 110.278 7.71291 110.278 7.79121V8.49594C110.278 8.6134 110.239 8.65255 110.123 8.65255H108.491C108.142 8.65255 107.947 8.77001 107.947 8.96576V9.04407C107.947 9.20067 108.103 9.35728 108.375 9.47474L109.54 9.9054C110.278 10.1795 110.511 10.6101 110.511 11.2757V11.4323C110.511 12.4503 109.851 12.7635 108.569 12.7635C107.909 12.7635 107.248 12.7243 106.666 12.6852C106.549 12.6852 106.51 12.646 106.51 12.5286V11.7847C106.51 11.7064 106.549 11.6281 106.666 11.6281H108.53C108.996 11.6281 109.152 11.5498 109.152 11.3149V11.2366C109.152 11.0408 109.035 10.9233 108.647 10.8059L107.52 10.4144C106.899 10.2186 106.588 9.7488 106.588 9.00492V8.84831C106.588 7.90867 107.287 7.51715 108.647 7.51715C109.19 7.51715 109.695 7.5563 110.123 7.63461Z" fill="#003163"/>
<path d="M114.318 5.63787C114.434 5.63787 114.473 5.71617 114.473 5.79448V6.57751C114.473 6.69497 114.434 6.73412 114.318 6.73412H113.58C113.191 6.73412 113.075 6.81242 113.075 7.08649V7.55631H114.201C114.279 7.55631 114.318 7.59546 114.318 7.71291L114.162 8.49595C114.162 8.57425 114.085 8.6134 114.007 8.6134H113.075V12.5677C113.075 12.6852 113.036 12.7243 112.919 12.7243H111.87C111.793 12.7243 111.715 12.6852 111.715 12.5677V8.65255H111.132C111.016 8.65255 110.977 8.6134 110.977 8.49595V7.71291C110.977 7.63461 111.016 7.55631 111.132 7.55631H111.715V6.81242C111.715 6.2643 111.87 5.91193 112.22 5.71617C112.531 5.55957 112.842 5.52042 113.308 5.52042C113.657 5.55957 114.007 5.59872 114.318 5.63787Z" fill="#003163"/>
<path d="M118.785 8.06527C119.135 8.45679 119.251 9.04407 119.251 10.1403C119.251 11.1974 119.096 11.9021 118.785 12.2545C118.474 12.6069 117.853 12.7635 116.92 12.7635C115.988 12.7635 115.367 12.6069 115.056 12.2545C114.745 11.9021 114.59 11.1974 114.59 10.1403C114.59 9.08322 114.745 8.37849 115.056 8.02612C115.367 7.67376 115.988 7.51715 116.92 7.51715C117.892 7.51715 118.397 7.63461 118.785 8.06527ZM116.105 9.00492C115.988 9.20067 115.949 9.59219 115.949 10.1795C115.949 10.7667 115.988 11.1583 116.105 11.354C116.221 11.5498 116.493 11.6281 116.882 11.6281C117.27 11.6281 117.542 11.5498 117.659 11.354C117.775 11.1583 117.853 10.7667 117.853 10.1795C117.853 9.59219 117.775 9.20067 117.659 9.00492C117.542 8.80916 117.27 8.73085 116.882 8.73085C116.493 8.73085 116.221 8.80916 116.105 9.00492Z" fill="#003163"/>
<path d="M123.019 7.63462C123.136 7.67377 123.174 7.71292 123.174 7.83038V8.57426C123.174 8.65256 123.136 8.73087 123.019 8.73087H122.164C121.659 8.73087 121.543 8.80917 121.543 9.20069V12.6069C121.543 12.7243 121.504 12.7635 121.388 12.7635H120.3C120.222 12.7635 120.145 12.7243 120.145 12.6069V8.84832C120.145 8.41765 120.3 8.06529 120.494 7.90868C120.844 7.63462 121.31 7.55631 121.815 7.55631C122.32 7.51716 122.708 7.55631 123.019 7.63462Z" fill="#003163"/>
<path d="M130.438 7.94782C130.71 8.22188 130.865 8.73085 130.865 9.47474V12.5677C130.865 12.6852 130.826 12.7243 130.71 12.7243H129.622C129.545 12.7243 129.467 12.6852 129.467 12.5677V10.062C129.428 8.6917 129.389 8.73085 128.612 8.6917C128.34 8.6917 128.107 8.6917 127.874 8.73085C127.952 8.96576 127.991 9.27898 127.991 9.70965V12.5677C127.991 12.6852 127.952 12.7243 127.874 12.7243H126.787C126.709 12.7243 126.67 12.6852 126.67 12.5677V9.78795C126.67 9.27898 126.631 9.00492 126.476 8.88746C126.321 8.73085 126.165 8.73085 125.777 8.73085H125.155V12.6069C125.155 12.7243 125.116 12.7635 125 12.7635H123.912C123.835 12.7635 123.757 12.7243 123.757 12.6069V7.83036C123.757 7.75206 123.796 7.71291 123.873 7.67376C124.339 7.5563 124.922 7.51715 125.621 7.51715C126.321 7.51715 126.864 7.63461 127.253 7.83036C127.758 7.63461 128.302 7.51715 128.845 7.51715C129.622 7.51715 130.166 7.67376 130.438 7.94782Z" fill="#003163"/>
<path d="M135.837 8.02612C136.148 8.37849 136.304 9.04407 136.304 10.062V10.3361C136.304 10.5318 136.226 10.571 135.993 10.571H133.118C133.118 10.9625 133.196 11.2366 133.313 11.354C133.468 11.4715 133.74 11.5498 134.128 11.5498H135.76C135.837 11.5498 135.915 11.5889 135.915 11.7064V12.4894C135.915 12.5677 135.876 12.646 135.799 12.646C135.371 12.7243 134.827 12.7635 134.051 12.7635C133.118 12.7635 132.536 12.6069 132.225 12.2545C131.914 11.9021 131.759 11.1974 131.759 10.1403C131.759 9.08322 131.914 8.37849 132.225 8.02612C132.536 7.67376 133.118 7.51715 134.051 7.51715C134.944 7.51715 135.565 7.71291 135.837 8.02612ZM133.118 9.70965H134.944C134.944 8.92661 134.711 8.6917 134.051 8.6917C133.351 8.6917 133.157 8.92661 133.118 9.70965Z" fill="#003163"/>
<path d="M143.762 7.94782C144.034 8.22188 144.189 8.73085 144.189 9.47474V12.5677C144.189 12.6852 144.15 12.7243 144.034 12.7243H142.946C142.868 12.7243 142.791 12.6852 142.791 12.5677V10.062C142.752 8.6917 142.713 8.73085 141.936 8.6917C141.664 8.6917 141.431 8.6917 141.198 8.73085C141.276 8.96576 141.315 9.27898 141.315 9.70965V12.5677C141.315 12.6852 141.276 12.7243 141.198 12.7243H140.11C140.033 12.7243 139.994 12.6852 139.994 12.5677V9.78795C139.994 9.27898 139.955 9.00492 139.8 8.88746C139.644 8.73085 139.489 8.73085 139.1 8.73085H138.479V12.6069C138.479 12.7243 138.44 12.7635 138.324 12.7635H137.236C137.158 12.7635 137.081 12.7243 137.081 12.6069V7.83036C137.081 7.75206 137.119 7.71291 137.197 7.67376C137.663 7.5563 138.246 7.51715 138.945 7.51715C139.644 7.51715 140.188 7.63461 140.577 7.83036C141.081 7.63461 141.625 7.51715 142.169 7.51715C142.985 7.51715 143.49 7.67376 143.762 7.94782Z" fill="#003163"/>
<path d="M149.277 8.06527C149.627 8.45679 149.743 9.04407 149.743 10.1403C149.743 11.1974 149.588 11.9021 149.277 12.2545C148.966 12.6069 148.345 12.7635 147.413 12.7635C146.48 12.7635 145.859 12.6069 145.548 12.2545C145.237 11.9021 145.082 11.1974 145.082 10.1403C145.082 9.08322 145.237 8.37849 145.548 8.02612C145.859 7.67376 146.48 7.51715 147.413 7.51715C148.423 7.51715 148.928 7.63461 149.277 8.06527ZM146.636 9.00492C146.519 9.20067 146.48 9.59219 146.48 10.1795C146.48 10.7667 146.519 11.1583 146.636 11.354C146.752 11.5498 147.024 11.6281 147.413 11.6281C147.84 11.6281 148.073 11.5498 148.19 11.354C148.306 11.1583 148.384 10.7667 148.384 10.1795C148.384 9.59219 148.306 9.20067 148.19 9.00492C148.073 8.80916 147.801 8.73085 147.413 8.73085C147.024 8.6917 146.752 8.80916 146.636 9.00492Z" fill="#003163"/>
<path d="M154.094 7.63461C154.21 7.67376 154.249 7.71291 154.249 7.79121V8.49594C154.249 8.6134 154.21 8.65255 154.094 8.65255H152.462C152.113 8.65255 151.919 8.77001 151.919 8.96576V9.04407C151.919 9.20067 152.074 9.35728 152.346 9.47474L153.511 9.9054C154.249 10.1795 154.482 10.6101 154.482 11.2757V11.4323C154.482 12.4503 153.822 12.7635 152.54 12.7635C151.88 12.7635 151.219 12.7243 150.637 12.6852C150.52 12.6852 150.481 12.646 150.481 12.5286V11.7847C150.481 11.7064 150.52 11.6281 150.637 11.6281H152.501C152.967 11.6281 153.123 11.5498 153.123 11.3149V11.2366C153.123 11.0408 153.006 10.9233 152.618 10.8059L151.491 10.4144C150.87 10.2186 150.559 9.7488 150.559 9.00492V8.84831C150.559 7.90867 151.258 7.51715 152.618 7.51715C153.162 7.51715 153.628 7.5563 154.094 7.63461Z" fill="#003163"/>
<path d="M72.9876 40.8744C72.9099 40.6003 72.7546 40.3654 72.4827 40.248C72.3273 40.1697 72.1719 40.1697 71.9777 40.1697C71.6281 40.1697 71.3562 40.2871 71.1231 40.5612C70.89 40.8352 70.7735 41.2268 70.7735 41.7357C70.7735 42.2447 70.89 42.6362 71.1231 42.8711C71.3562 43.106 71.6281 43.1843 71.9388 43.1843C72.2496 43.1843 72.4827 43.106 72.6769 42.9103C72.8711 42.7537 72.9876 42.5188 73.0265 42.2447H72.0554V41.54H73.8422V43.8499H73.2595L73.1818 43.3018C73.0265 43.4976 72.8711 43.6542 72.7157 43.7325C72.4827 43.8891 72.2107 43.9674 71.8611 43.9674C71.2785 43.9674 70.8512 43.7716 70.4628 43.3801C70.0743 42.9886 69.9189 42.4405 69.9189 41.7749C69.9189 41.0702 70.1132 40.522 70.5016 40.0914C70.89 39.6607 71.395 39.4649 72.0165 39.4649C72.5603 39.4649 72.9876 39.6215 73.3372 39.8956C73.6868 40.1697 73.8422 40.522 73.9199 40.9135H72.9876V40.8744Z" fill="#0060A8"/>
<path d="M77.9986 43.4584C77.6879 43.8108 77.2217 43.9674 76.6002 43.9674C75.9787 43.9674 75.5126 43.8108 75.2019 43.4584C74.7746 43.0669 74.5415 42.4405 74.5415 41.6966C74.5415 40.9135 74.7746 40.3263 75.2019 39.9348C75.5126 39.5824 75.9787 39.4258 76.6002 39.4258C77.2217 39.4258 77.6879 39.5824 77.9986 39.9348C78.4259 40.3263 78.659 40.9135 78.659 41.6966C78.659 42.4405 78.4259 43.0277 77.9986 43.4584ZM77.4548 42.7928C77.649 42.5188 77.7656 42.1664 77.7656 41.6574C77.7656 41.1876 77.649 40.7961 77.4548 40.522C77.2606 40.248 76.9498 40.1305 76.6002 40.1305C76.2506 40.1305 75.9787 40.248 75.7457 40.522C75.5515 40.7961 75.4349 41.1485 75.4349 41.6574C75.4349 42.1664 75.5515 42.5188 75.7457 42.7928C75.9399 43.0669 76.2506 43.1844 76.6002 43.1844C76.9498 43.1844 77.2217 43.0669 77.4548 42.7928Z" fill="#0060A8"/>
<path d="M82.5045 40.0131C82.621 40.2088 82.6987 40.4046 82.6987 40.6786C82.6987 40.9527 82.621 41.1485 82.5045 41.3051C82.4268 41.3834 82.3103 41.4617 82.1938 41.54C82.4268 41.6183 82.5822 41.7357 82.6987 41.9315C82.8153 42.0881 82.8541 42.323 82.8541 42.5579C82.8541 42.7928 82.7764 43.0277 82.6599 43.2235C82.5822 43.341 82.4657 43.4584 82.3491 43.5759C82.2326 43.6933 82.0384 43.7716 81.883 43.8108C81.6888 43.8499 81.4946 43.8499 81.3003 43.8499H79.397V39.5432H81.4557C81.9218 39.5432 82.2714 39.6998 82.5045 40.0131ZM80.1739 40.2871V41.2268H81.2227C81.4169 41.2268 81.5722 41.1876 81.6888 41.1093C81.8053 41.031 81.8442 40.9136 81.8442 40.7178C81.8442 40.522 81.7665 40.4046 81.6111 40.3263C81.4946 40.2871 81.3003 40.248 81.1061 40.248H80.1739V40.2871ZM80.1739 41.9315V43.0669H81.2227C81.4169 43.0669 81.5334 43.0277 81.6499 42.9886C81.8442 42.9103 81.9218 42.7145 81.9218 42.4405C81.9218 42.2056 81.8442 42.049 81.6499 41.9706C81.5334 41.9315 81.4169 41.8923 81.2227 41.8923H80.1739V41.9315Z" fill="#0060A8"/>
<path d="M84.4076 43.8108H83.5142V39.5041H84.4076V43.8108Z" fill="#0060A8"/>
<path d="M88.3697 40.2871H86.1168V41.1876H88.1755V41.9315H86.1168V43.0277H88.4863V43.8108H85.2622V39.5041H88.3697V40.2871Z" fill="#0060A8"/>
<path d="M91.9044 39.6607C92.0597 39.739 92.1763 39.8173 92.2928 39.9739C92.3705 40.0913 92.4482 40.2088 92.5259 40.3263C92.5647 40.4437 92.6036 40.6003 92.6036 40.7961C92.6036 40.9918 92.5647 41.1876 92.4482 41.3834C92.3316 41.5791 92.1763 41.7357 91.9432 41.814C92.1374 41.8923 92.2928 42.0098 92.3705 42.1664C92.4482 42.323 92.487 42.5188 92.487 42.832V43.106C92.487 43.3018 92.487 43.4192 92.5259 43.4975C92.5647 43.615 92.6036 43.6933 92.6812 43.7325V43.8499H91.6713C91.6325 43.7716 91.6325 43.6933 91.6325 43.615C91.5936 43.4975 91.5936 43.3801 91.5936 43.2626V42.8711C91.5936 42.5971 91.5548 42.4013 91.4382 42.323C91.3605 42.2447 91.1663 42.2055 90.9333 42.2055H90.0787V43.8891H89.2241V39.5824H91.244C91.5159 39.5432 91.749 39.5824 91.9044 39.6607ZM90.0787 40.2871V41.4225H91.0498C91.244 41.4225 91.3994 41.3834 91.4771 41.3442C91.6325 41.2659 91.7101 41.1093 91.7101 40.8744C91.7101 40.6003 91.6325 40.4437 91.4771 40.3654C91.3994 40.3263 91.244 40.2871 91.0498 40.2871H90.0787Z" fill="#0060A8"/>
<path d="M93.4197 39.5432H94.352L96.0222 42.5188V39.5432H96.838V43.8499H95.9446L94.1966 40.7961V43.8499H93.3809V39.5432H93.4197Z" fill="#0060A8"/>
<path d="M100.994 43.4584C100.683 43.8108 100.217 43.9674 99.5958 43.9674C98.9743 43.9674 98.5082 43.8108 98.1975 43.4584C97.7702 43.0669 97.5371 42.4405 97.5371 41.6966C97.5371 40.9135 97.7702 40.3263 98.1975 39.9348C98.5082 39.5824 98.9743 39.4258 99.5958 39.4258C100.217 39.4258 100.683 39.5824 100.994 39.9348C101.422 40.3263 101.655 40.9135 101.655 41.6966C101.655 42.4405 101.422 43.0277 100.994 43.4584ZM100.45 42.7928C100.645 42.5188 100.761 42.1664 100.761 41.6574C100.761 41.1876 100.645 40.7961 100.45 40.522C100.256 40.248 99.9454 40.1305 99.5958 40.1305C99.2462 40.1305 98.9743 40.248 98.7413 40.522C98.547 40.7961 98.4305 41.1485 98.4305 41.6574C98.4305 42.1664 98.547 42.5188 98.7413 42.7928C98.9355 43.0669 99.2462 43.1844 99.5958 43.1844C99.9454 43.1844 100.217 43.0669 100.45 42.7928Z" fill="#0060A8"/>
<path d="M106.432 39.6215C106.743 39.739 106.976 39.8956 107.17 40.1697C107.326 40.3654 107.403 40.6003 107.481 40.8744C107.52 41.1093 107.559 41.3442 107.559 41.5791C107.559 42.1664 107.442 42.6362 107.209 43.0277C106.898 43.5759 106.432 43.8108 105.772 43.8108H103.946V39.5041H105.772C106.044 39.5432 106.277 39.5824 106.432 39.6215ZM104.801 40.2871V43.0669H105.617C106.044 43.0669 106.316 42.8711 106.51 42.4405C106.588 42.2056 106.627 41.9315 106.627 41.6183C106.627 41.1876 106.549 40.8352 106.432 40.6003C106.277 40.3654 106.044 40.248 105.617 40.248H104.801V40.2871Z" fill="#0060A8"/>
<path d="M111.365 40.2871H109.112V41.1876H111.171V41.9315H109.112V43.0277H111.482V43.8108H108.258V39.5041H111.365V40.2871Z" fill="#0060A8"/>
<path d="M112.181 39.5432H113.075V43.0669H115.211V43.8499H112.181V39.5432Z" fill="#0060A8"/>
<path d="M120.455 40.2871H118.202V41.1876H120.261V41.9315H118.202V43.0277H120.572V43.8108H117.348V39.5041H120.455V40.2871Z" fill="#0060A8"/>
<path d="M121.892 42.5188C121.931 42.7145 121.97 42.8711 122.048 42.9494C122.203 43.1452 122.436 43.2235 122.786 43.2235C123.019 43.2235 123.174 43.1843 123.291 43.1452C123.562 43.0669 123.679 42.8711 123.679 42.6362C123.679 42.4796 123.601 42.4013 123.485 42.323C123.368 42.2447 123.174 42.1664 122.902 42.1273L122.436 42.0098C121.97 41.8923 121.659 41.814 121.504 41.6966C121.232 41.5008 121.076 41.1876 121.076 40.7569C121.076 40.3654 121.232 40.0522 121.504 39.8173C121.776 39.5824 122.203 39.4258 122.747 39.4258C123.213 39.4258 123.601 39.5432 123.912 39.7781C124.223 40.0131 124.417 40.3654 124.417 40.8352H123.562C123.562 40.5612 123.446 40.4046 123.213 40.2871C123.057 40.2088 122.902 40.1697 122.669 40.1697C122.436 40.1697 122.242 40.2088 122.125 40.3263C121.97 40.4046 121.931 40.5612 121.931 40.7178C121.931 40.8744 122.009 40.9919 122.125 41.0702C122.203 41.1093 122.397 41.1876 122.708 41.2659L123.446 41.4617C123.757 41.54 124.029 41.6574 124.184 41.7749C124.456 41.9706 124.572 42.2839 124.572 42.6362C124.572 43.0277 124.417 43.341 124.106 43.615C123.796 43.8891 123.368 44.0065 122.824 44.0065C122.281 44.0065 121.814 43.8891 121.504 43.615C121.193 43.341 121.038 43.0277 121.038 42.5579H121.892V42.5188Z" fill="#0060A8"/>
<path d="M128.301 39.5432V40.2871H127.02V43.8108H126.126V40.2871H124.844V39.5432H128.301Z" fill="#0060A8"/>
<path d="M129.584 39.5432H130.593L132.108 43.8499H131.137L130.865 42.9494H129.312L129.04 43.8499H128.107L129.584 39.5432ZM129.545 42.2056H130.632L130.088 40.522L129.545 42.2056Z" fill="#0060A8"/>
<path d="M135.138 39.6215C135.449 39.739 135.682 39.8956 135.876 40.1697C136.031 40.3654 136.109 40.6003 136.187 40.8744C136.225 41.1093 136.264 41.3442 136.264 41.5791C136.264 42.1664 136.148 42.6362 135.915 43.0277C135.604 43.5759 135.138 43.8108 134.478 43.8108H132.652V39.5041H134.478C134.749 39.5432 134.982 39.5824 135.138 39.6215ZM133.506 40.2871V43.0669H134.322C134.749 43.0669 135.021 42.8711 135.216 42.4405C135.293 42.2056 135.332 41.9315 135.332 41.6183C135.332 41.1876 135.254 40.8352 135.138 40.6003C134.982 40.3654 134.749 40.248 134.322 40.248H133.506V40.2871Z" fill="#0060A8"/>
<path d="M140.188 43.4584C139.877 43.8108 139.411 43.9674 138.789 43.9674C138.168 43.9674 137.702 43.8108 137.391 43.4584C136.964 43.0669 136.73 42.4405 136.73 41.6966C136.73 40.9135 136.964 40.3263 137.391 39.9348C137.702 39.5824 138.168 39.4258 138.789 39.4258C139.411 39.4258 139.877 39.5824 140.188 39.9348C140.615 40.3263 140.848 40.9135 140.848 41.6966C140.848 42.4405 140.615 43.0277 140.188 43.4584ZM139.644 42.7928C139.838 42.5188 139.955 42.1664 139.955 41.6574C139.955 41.1876 139.838 40.7961 139.644 40.522C139.45 40.248 139.139 40.1305 138.789 40.1305C138.44 40.1305 138.168 40.248 137.935 40.522C137.74 40.7961 137.624 41.1485 137.624 41.6574C137.624 42.1664 137.74 42.5188 137.935 42.7928C138.129 43.0669 138.44 43.1844 138.789 43.1844C139.139 43.1844 139.45 43.0669 139.644 42.7928Z" fill="#0060A8"/>
</g>
<defs>
<clipPath id="clip0">
<rect width="250" height="48" fill="white"/>
</clipPath>
</defs>
</svg>
