<svg width="348" height="398" viewBox="0 0 348 398" fill="none" xmlns="http://www.w3.org/2000/svg">
<g clip-path="url(#clip0)">
<path fill-rule="evenodd" clip-rule="evenodd" d="M41.0003 48.4001C50.3003 27.2001 67.2003 22.7001 87.8003 23.0001C113.2 23.3001 138.7 21.6001 164.1 20.7001C167.1 21.5001 170.1 23.1001 173.1 23.1001C189.3 22.6001 205.5 21.8001 221.7 21.0001C224.7 21.7001 227.7 23.1001 230.7 23.1001C244.5 23.3001 258.2 23.1001 272 23.1001C276.7 22.0001 281.3 21.0001 286 19.9001C289.3 21.0001 292.6 22.9001 296 23.1001C323.9 24.4001 336.9 36.4001 337.3 65.3001C337.8 109.3 336.5 153.4 336.5 197.4C336.5 220.3 337.7 243.3 338.4 266.3C337.6 269.2 336.1 272.1 336.2 275C336.6 296 337.4 317.1 338.1 338.1C335 368.5 323.3 379.5 293.9 379.5C268.7 379.5 243.4 379.1 218.2 379.6C200.4 380 182.6 381.6 164.8 382.7C161.2 381.7 157.5 380 153.9 379.9C140.6 379.6 127.3 379.7 114.1 379.7C102.1 379.7 90.1003 379.7 78.0003 379.6C72.1003 378.8 66.3003 378.1 60.4003 377.3C43.4003 366.7 38.4003 350.6 39.3003 330.7C40.1003 312.1 39.1003 293.5 38.8003 274.9C39.6003 254.4 40.3003 234 41.1003 213.5C41.1003 163.3 41.0003 113.2 41.0003 63.0001C40.8003 58.2001 40.9003 53.3001 41.0003 48.4001ZM322.7 202.8C322.7 155.7 322.8 108.5 322.7 61.4001C322.7 46.8001 318.4 41.5001 304.7 38.7001C300.1 37.8001 295.3 37.4001 290.6 37.4001C238.2 37.3001 185.8 37.3001 133.4 37.3001C115.1 37.3001 96.8003 37.0001 78.4003 37.5001C62.3003 37.9001 54.5003 45.3001 54.5003 60.9001C54.2003 155.5 54.2003 250.2 54.2003 344.8C54.2003 355.6 60.5003 362.7 70.8003 363.8C80.2003 364.8 89.7003 365.5 99.2003 365.5C139.9 365.7 180.5 365.5 221.2 365.5C246.5 365.5 271.8 365.7 297 365.5C315.7 365.4 322.7 357.7 322.7 338.5C322.7 293.2 322.7 248 322.7 202.8Z" fill="#AEBE9B"/>
<path fill-rule="evenodd" clip-rule="evenodd" d="M40.9002 213.5C40.1002 234 39.4002 254.4 38.6002 274.9C32.9002 249.4 26.9002 223.9 21.5002 198.3C14.5002 164.8 8.10019 131.2 1.20019 97.6C-3.89981 72.8 6.50019 55.8 30.3002 50.5C33.8002 49.7 37.4002 49.1 41.0002 48.3C40.9002 53.2 40.8002 58.0001 40.7002 62.9001C15.6002 67.2001 10.2002 74.9 15.3002 99.6C21.1002 127.9 26.8002 156.1 32.8002 184.3C35.0002 194.2 38.2002 203.8 40.9002 213.5Z" fill="#A6BE9C"/>
<path fill-rule="evenodd" clip-rule="evenodd" d="M285.9 19.9001C281.2 21.0001 276.6 22.0001 271.9 23.1001C267.2 14.5001 259.4 13.6001 251.3 14.9001C241.4 16.6001 231.5 18.9001 221.7 20.9001C205.5 21.6001 189.3 22.5001 173.1 23.0001C170.1 23.1001 167.1 21.5001 164.1 20.6001C192.8 13.9001 221.4 6.50012 250.2 0.700119C266.9 -2.59988 279.6 5.30012 285.9 19.9001Z" fill="#A6BE9C"/>
<path fill-rule="evenodd" clip-rule="evenodd" d="M113.8 379.6C127.1 379.6 140.4 379.4 153.6 379.8C157.3 379.9 160.9 381.6 164.5 382.6C138.6 387.8 112.7 394 86.6001 397.8C73.4001 399.7 64.1001 390.7 60.1001 377.3C66.0001 378.1 71.8001 378.8 77.7001 379.6C89.8001 390 101.8 383.2 113.8 379.6Z" fill="#A6BE9B"/>
<path fill-rule="evenodd" clip-rule="evenodd" d="M337.9 338.1C337.2 317.1 336.5 296.1 336 275C335.9 272.1 337.5 269.2 338.2 266.3C341.7 281.6 347 296.7 347.9 312.2C348.5 320.6 341.5 329.4 337.9 338.1Z" fill="#A6BE9C"/>
<path fill-rule="evenodd" clip-rule="evenodd" d="M322.7 202.8C322.7 248 322.7 293.2 322.7 338.4C322.7 357.7 315.7 365.3 297 365.4C271.7 365.6 246.4 365.4 221.2 365.4C180.5 365.4 139.9 365.5 99.2004 365.4C89.7004 365.4 80.2004 364.6 70.8004 363.7C60.5004 362.7 54.1004 355.5 54.2004 344.7C54.2004 250.1 54.3004 155.4 54.5004 60.8001C54.5004 45.2001 62.3004 37.8001 78.4004 37.4001C96.7004 37.0001 115 37.2001 133.4 37.2001C185.8 37.2001 238.2 37.2001 290.6 37.3001C295.3 37.3001 300.1 37.7001 304.7 38.6001C318.4 41.4001 322.7 46.7001 322.7 61.3001C322.8 108.5 322.7 155.7 322.7 202.8Z" fill="#FBFAE9"/>
<path fill-rule="evenodd" clip-rule="evenodd" d="M40.9002 213.5C38.2002 203.8 35.0002 194.2 32.9002 184.4C26.8002 156.2 21.1002 127.9 15.4002 99.7C10.3002 75 15.6002 67.3 40.7002 63C40.8002 113.2 40.8002 163.4 40.9002 213.5Z" fill="#F6F8E6"/>
<path fill-rule="evenodd" clip-rule="evenodd" d="M221.7 21.0002C231.6 19.0002 241.4 16.6002 251.3 15.0002C259.5 13.6002 267.2 14.6002 271.9 23.2002C258.1 23.2002 244.4 23.4002 230.6 23.2002C227.7 23.1002 224.7 21.7002 221.7 21.0002Z" fill="#F3F6E2"/>
<path fill-rule="evenodd" clip-rule="evenodd" d="M113.8 379.6C101.8 383.2 89.8002 390 77.7002 379.6C89.8002 379.6 101.8 379.6 113.8 379.6Z" fill="#F4F7E4"/>
<path fill-rule="evenodd" clip-rule="evenodd" d="M295.9 50C295.9 59.7 295.9 68.5 295.9 78.1C225.2 78.1 154.9 78.1 83.9004 78.1C83.9004 68.7 83.9004 59.7 83.9004 50C154.5 50 224.6 50 295.9 50Z" fill="#CF7E5D"/>
<path d="M158.2 109.2C158.2 109.5 158.3 109.8 158.3 110.1C158.3 111.9 158.3 113.7 158.3 115.5C158.3 174.6 158.3 233.7 158.3 292.9C158.2 293.4 158.1 293.8 157.9 294.3" fill="#86C5CE"/>
<path fill-rule="evenodd" clip-rule="evenodd" d="M157.8 294.2H158.1C158.1 304.3 158.1 314.4 158.1 324.5" fill="#74BDBE"/>
<path fill-rule="evenodd" clip-rule="evenodd" d="M158.2 324.6C178.1 324.6 198 324.6 217.9 324.6C243.4 324.6 268.9 324.6 294.4 324.5C294.8 324.5 295.3 324.6 295.7 324.6" fill="#FBF7F7"/>
<path fill-rule="evenodd" clip-rule="evenodd" d="M158.8 109.3C159 109.2 159.2 109.1 159.3 109C159.8 109 160.3 109.1 160.8 109.1C161.6 109.1 162.5 109.1 163.3 109.1C163.8 109.1 164.3 109.1 164.8 109.1L165.1 109.2L165.4 109.1C167.1 109.2 168.8 109.3 170.4 109.3C207.8 109.3 245.1 109.3 282.5 109.3C284 109.3 285.4 109.2 286.9 109.2H287.2L287.5 109.1C288.7 109.1 289.8 109.1 291 109.1L291.3 109.2L291.6 109.1C292.1 109.1 292.6 109.1 293.1 109.1C293.5 110.6 294.4 112.1 294.4 113.6C294.5 172.8 294.5 232 294.5 291.2C294.5 292.2 294.4 293.2 294.3 294.2C275.2 294.2 256.1 294.2 237 294.3C233.6 294.3 230.8 293.9 228.7 291C227.3 289.1 225.9 289.4 224.3 291C222.9 292.3 221.1 294.1 219.5 294.1C199.3 294.3 179.1 294.1 158.8 294.1C158.6 293.7 158.5 293.3 158.3 292.9C158.3 233.8 158.3 174.7 158.3 115.5C158.3 113.7 158.3 111.9 158.3 110.1C158.4 109.9 158.6 109.6 158.8 109.3ZM266.7 231.6H267H267.3C267.5 231.6 267.8 231.6 268 231.6C268.7 231.7 269.4 231.8 270 231.9C269.8 231.3 269.6 230.8 269.4 230.2C267.2 230 265 229.7 262.8 229.5C262.4 230.1 262 230.7 261.6 231.3C262.3 231.5 263.1 231.6 263.8 231.8C264.5 231.8 265.2 231.7 265.8 231.7C266.2 231.6 266.4 231.6 266.7 231.6ZM280.4 226.8C280.3 226.7 280.2 226.6 280.1 226.5C279.6 226.4 279.2 226.3 278.7 226.2C278 226.2 277.4 226.2 276.7 226.2C275.5 226.1 274.2 226 273 226.1C272.4 226.2 271.8 226.8 271.2 227.1C267.7 226.9 264.1 226.7 260.6 226.4C260.6 226.8 260.6 227.1 260.6 227.5C264.2 229.2 267.7 229.3 271.2 227.2C271.8 228.3 272.4 229.5 273 230.6C275 233.6 277.8 231 280.1 231.6C282.2 232.1 282 230.8 282 229.6C282 229.1 282 228.5 282.1 228C281.6 227.6 281.1 227.1 280.7 226.7L280.4 226.8ZM241.5 183.4C242 183.3 242.5 183.1 243 183C245.1 182.8 247.2 182.6 249.2 182.3C249.2 181.9 249.1 181.6 249.1 181.2C242.9 181.2 236.6 180.4 230.5 181.3C230.5 181.7 230.4 182 230.4 182.4C231.2 182.6 232 182.8 232.8 183C232.7 183.9 232.3 184.8 232.5 185.6C232.6 186.1 233.5 186.8 234 186.7C236 186.3 238 185.7 240.1 185.1C240.1 184.7 240.1 183.9 240.1 183.1C240.6 183.3 241.1 183.3 241.5 183.4ZM210.8 218.2C210.9 219.1 210.9 220.1 211 221.9C212.2 220.5 212.7 219.9 213.2 219.4C216.8 215.4 215.4 210.6 215.4 206C215.8 203.7 216.8 201.4 216.5 199.2C215.2 188.5 213.7 177.7 211.8 167.1C211 162.8 210.2 157.8 204.7 156.3C203.8 155.8 203 155.3 202.1 154.8C200.6 154.2 199.1 153.6 197.7 152.9C195.3 152.7 194.5 151.1 194.3 149C195.2 147.5 196.1 145.9 197 144.4C201.9 140.2 202.1 136.2 197.5 131.2C193.3 126.6 187.9 126.4 183.7 130.6C178.7 135.6 178.6 139.8 183.5 144.4C184.5 146 185.5 147.6 186.5 149.2C185.5 150.5 184.6 151.8 183.6 153.2C181.9 153.7 180.1 154.3 178.4 154.8C177.5 155.3 176.6 155.8 175.8 156.3C172.6 157.3 170.8 159.5 170 162.7C169.5 164.7 168.8 166.6 168.5 168.5C167 178.5 165.4 188.5 164.2 198.5C163.9 200.9 164.8 203.5 165.1 206C165.1 210.7 163.8 215.7 167.6 219.7C168.1 220.2 168.8 220.5 169.4 220.8C169.6 220.1 169.9 219.5 170.1 218.8C170.6 218.4 171 218.1 171.5 217.7C171.8 218.4 172.2 219 172.3 219.7C172.5 222.7 172.7 225.8 172.9 228.8C172.9 230.4 172.8 232 172.8 233.6C172.6 233.7 172.3 233.8 172.3 234C172.3 239.6 169.5 245.5 173.9 250.7C174.4 251.3 174.4 252.4 174.4 253.2C174.5 256 174.3 258.8 174.5 261.6C174.6 262.8 175.1 264 175.4 265.3C175.5 266.5 175.6 267.6 175.7 268.8C176.1 269.4 176.5 270.1 176.9 270.7C177.2 271 177.4 271.3 177.7 271.7C177.6 272.1 177.5 272.6 177.4 273C177.3 273.2 177.2 273.4 177.3 273.6C176.1 275.8 174.9 278 173.7 280.2C173.4 283.4 175.4 285.2 178.7 284.7C182.2 284.2 184.4 281.6 185.1 277.2C185.1 275.4 185.2 273.5 185.2 271.7C186.1 269.8 187.6 267.9 187.8 265.9C188.4 261.1 188.4 256.3 188.6 251.5C189.8 251.5 190.9 251.5 192.1 251.5C192.3 256 192.2 260.6 192.8 265.1C193.1 267.4 194.7 269.6 195.7 271.8C195.8 273.9 195.9 276 196 278.1C196.9 280 197.3 282.5 198.7 283.5C200.5 284.7 203.3 285.1 205.5 284.7C208 284.2 207.3 281.6 206.9 279.6C205.7 277 204.4 274.4 203.2 271.7C203.9 270.2 204.6 268.8 205.3 267.3C205.4 264 205.4 260.7 205.5 257.4C205.5 256.2 205.6 255 205.6 253.8C206.2 252.6 206.6 251 207.6 250.1C209.7 248.2 210 245.8 208.2 243C208.2 242.3 208.2 241.6 208.1 240.9C208.2 234.9 208.2 228.9 208.3 222.9C208.3 221 208.5 219.2 208.5 217.3C209.3 217.6 210 217.9 210.8 218.2ZM286.2 251.7C286.1 247.5 276.5 238 272.4 237.9C268.3 237.9 258.6 247.5 258.6 251.6C258.5 255.9 268.2 265.7 272.4 265.7C276.6 265.8 286.3 256 286.2 251.7ZM286.2 206.7C286.2 202.6 276.9 193.3 272.7 193.1C268.3 192.9 258.4 202.7 258.5 207.1C258.6 211.2 268.3 220.7 272.4 220.7C276.7 220.7 286.2 211 286.2 206.7ZM258.6 162.2C258.6 166.3 268.2 176 272.3 176.1C272.4 176.1 272.5 176.1 272.6 176.1C276.4 175.9 285.9 166.5 286.1 162.8C286.4 158.4 276.9 148.3 272.4 148.3C268.1 148.2 258.5 157.8 258.6 162.2ZM235.4 237.9C230.9 237.8 221.2 247.7 221.4 252.2C221.6 256.2 231.1 265.7 235 265.8C239.2 265.9 249 256.2 249 251.9C249 247.7 239.6 238 235.4 237.9ZM221.4 162.1C221.4 166.2 230.9 176 235 176C239.3 176 249 166.5 249 162.1C249 157.7 239.4 148.1 235 148.2C231 148.2 221.4 157.9 221.4 162.1ZM249 205.7C248.6 205 248 203.3 246.9 202.1C244.8 199.7 242.4 197.4 240 195.2C237.1 192.5 233.5 192.3 230.6 194.8C227.8 197.2 225.2 199.9 222.8 202.7C220.6 205.2 220.6 208.6 222.8 211C225.4 213.9 228.2 216.7 231.1 219.3C232.1 220.2 233.7 220.6 235.1 220.7C239.4 220.9 249.1 211.1 249 205.7ZM235.4 273.5C233.8 271.3 223 270.6 219.4 272.1C220.8 274.2 228.7 275 235.4 273.5ZM230.9 228.2C236.2 228.2 241.1 228.2 246.6 228.2C243.6 225.6 234.9 225.8 230.9 228.2ZM266.3 184.7C266.3 185.1 266.3 185.6 266.3 186C271.1 186 275.8 186 281.1 186C280.5 185.1 280.1 184 279.7 184C275.3 184.2 270.8 184.4 266.3 184.7ZM267.9 276.1C267.9 276.5 267.9 276.9 268 277.4C271.6 277.4 275.2 277.4 278.8 277.3C279.2 277.3 279.6 276.5 280 276C279.4 275.6 278.8 274.7 278.3 274.8C274.8 275.1 271.4 275.6 267.9 276.1ZM238.9 273.5C243 273.5 246.1 273.5 249.3 273.5C248.1 270.6 244.3 270.4 238.9 273.5ZM263.3 184C262.9 184.8 262.7 185.1 262.7 185.3C262.7 185.5 263.1 185.6 263.3 185.8C263.5 185.6 263.8 185.3 263.8 185.1C263.8 184.8 263.5 184.6 263.3 184Z" fill="#CA83B3"/>
<path fill-rule="evenodd" clip-rule="evenodd" d="M158.2 292.9C158.4 293.3 158.5 293.7 158.7 294.2C158.5 294.3 158.3 294.3 158.1 294.3H157.8C157.9 293.8 158.1 293.3 158.2 292.9Z" fill="#A7C1E4"/>
<path fill-rule="evenodd" clip-rule="evenodd" d="M158.8 109.3C158.6 109.6 158.4 109.8 158.2 110.1C158.2 109.8 158.2 109.5 158.1 109.2C158.4 109.3 158.6 109.3 158.8 109.3Z" fill="#A7C1E4"/>
<path fill-rule="evenodd" clip-rule="evenodd" d="M158.1 294.2C158.3 294.2 158.5 294.2 158.7 294.1C178.9 294.1 199.1 294.3 219.4 294.1C221 294.1 222.9 292.3 224.2 291C225.9 289.4 227.3 289.1 228.6 291C230.7 293.9 233.5 294.3 236.9 294.3C256 294.1 275.1 294.2 294.2 294.2C294.3 294.2 294.5 294.3 294.6 294.3C294.5 304.4 294.4 314.5 294.4 324.6C268.9 324.6 243.4 324.7 217.9 324.7C198 324.7 178.1 324.7 158.2 324.7C158.2 314.5 158.2 304.3 158.1 294.2ZM233 307.9C232.8 308 232.7 308 232.5 308.1C232.7 308.2 232.8 308.2 232.9 308.3C233 308.5 233.1 308.8 233.2 309C233.3 309.9 233.4 310.8 233.5 311.7C233.6 311.8 233.7 311.9 233.9 311.9C234.9 311.9 235.9 311.8 236.9 311.8C237.8 311.4 238.7 310.9 239.5 310.5C239.8 312.5 240.6 312.9 242.2 311.5C245.5 311.7 248.7 311.9 252 312.2C252.1 312.2 252.2 312.1 252.3 312.1C253.9 311.9 255.6 311.6 257.2 311.4C257.4 311.8 257.6 312.1 257.8 312.5C259 310.6 260.2 308.7 261.4 306.8C261.2 306.5 261.1 306.2 260.9 305.9C257.1 306.1 253.3 306.4 249.5 306.6C248.1 306.9 246.6 307.1 245.2 307C244.5 307 243.8 306.5 243.1 306.2C240.2 306.2 237.2 306.2 234.3 306.3C233.9 306.8 233.5 307.2 233.2 307.7L233 307.9ZM210.6 306.5C209.5 306.5 208.4 306.5 207.3 306.5H207.2C206.7 307.2 206.3 307.9 205.6 309C202.8 303.4 201.4 308.1 199.6 309.2C199.2 308 198.9 307.1 198.5 306.3C198.2 306 197.8 305.8 197.5 305.5C196.9 306.7 196.4 307.9 195.4 309.9C194.4 307.8 193.8 306.6 193.3 305.4C192.9 305.7 192.6 305.9 192.2 306.2C192 306.8 191.8 307.4 191.8 308C191.8 309.8 189.4 313.8 194.6 311.2C195.2 310.9 196.2 310.8 196.6 311.1C200.5 313.9 204.6 311.4 208.6 311.7C209 311.7 209.5 311.8 209.9 311.8C210.4 312 210.8 312.1 211.3 312.3C211.8 312.1 212.2 311.9 212.7 311.6C214.5 311.8 216.3 312.1 218 312.3C220.1 312.3 222.2 312.3 223.9 312.3C224.2 310.6 224.5 309.6 224.7 308.6C225 308.6 225.3 308.7 225.7 308.7C225.9 309.2 226.1 309.7 226.3 310.1C226.7 310.8 227.1 311.4 227.5 312.1C227.9 311.4 228.4 310.8 228.7 310.1C229.3 308.9 229.8 307.7 230.8 305.6C225.8 306 221.2 306.4 216.6 306.8C214.9 306.8 213.2 306.9 211.5 306.9C211.2 306.9 210.9 306.7 210.6 306.5Z" fill="#B05D9A"/>
<path fill-rule="evenodd" clip-rule="evenodd" d="M295.7 324.6C295.3 324.6 294.8 324.6 294.4 324.5C294.5 314.4 294.6 304.3 294.6 294.2" fill="#7098CF"/>
<path fill-rule="evenodd" clip-rule="evenodd" d="M175.7 156.2C176.6 155.7 177.5 155.2 178.3 154.7C178.7 156.3 179.2 157.9 179.4 159.6C179.7 162.4 181.2 163.3 183.9 163C186.6 162.7 189.3 162.9 191.9 162.9C200.1 163 200.1 163 201.9 154.7C202.8 155.2 203.6 155.7 204.5 156.2C202.7 165.4 203.6 174.6 204.2 183.9C204.2 187.1 204 190.4 204.2 193.6C204.9 202 205.9 210.4 206.6 218.7C207.2 226.1 207.5 233.5 207.9 240.8C207.9 241.5 207.9 242.2 208 242.9C207.2 245.2 209.2 248.7 205.1 249.7C200.6 250.2 196.2 250.7 191.7 251.3C190.5 251.3 189.4 251.3 188.2 251.3C183.7 250.8 179.2 250.3 174.7 249.7C172.7 249 172.2 247.5 172.3 245.5C172.4 241.5 172.4 237.5 172.4 233.5C172.4 231.9 172.5 230.3 172.5 228.7C172.6 228.2 172.8 227.6 172.9 227.1C173.7 217.3 174.6 207.5 175.3 197.7C175.6 193.3 175.7 188.9 175.8 184.4C176.1 180.5 176.7 176.6 176.6 172.7C176.7 167.3 176.1 161.8 175.7 156.2ZM181.2 192.4C186.4 192.6 191.4 192.8 196.4 193.1C198.1 193.2 199.1 192.7 199.2 190.7C199.3 186.8 199.6 182.9 199.8 179C199.9 177.3 199.3 176.2 197.4 176.3C192.6 176.4 187.8 176.2 183 176.4C182.1 176.5 180.4 178 180.4 178.9C180.5 183.4 180.9 188 181.2 192.4Z" fill="#DA8038"/>
<path fill-rule="evenodd" clip-rule="evenodd" d="M204.4 183.9C203.8 174.7 202.8 165.4 204.7 156.2C210.2 157.7 211 162.6 211.8 167C213.7 177.6 215.1 188.4 216.5 199.1C216.8 201.3 215.8 203.6 215.4 205.9C213.5 205.9 211.7 205.8 209.8 205.8C209.1 204.2 208.2 202.6 207.9 200.9C206.6 195.3 205.5 189.6 204.4 183.9Z" fill="#FBF7F7"/>
<path fill-rule="evenodd" clip-rule="evenodd" d="M175.7 156.2C176.1 161.7 176.7 167.3 176.8 172.8C176.9 176.7 176.3 180.6 176 184.5C174.8 190.2 173.7 195.9 172.4 201.6C172 203.6 171.6 205.7 168.8 205.7C167.5 205.8 166.2 205.8 164.9 205.9C164.6 203.4 163.7 200.8 164 198.4C165.2 188.4 166.8 178.4 168.3 168.4C168.6 166.4 169.4 164.5 169.8 162.6C170.7 159.4 172.6 157.3 175.7 156.2Z" fill="#FBF7F7"/>
<path fill-rule="evenodd" clip-rule="evenodd" d="M286.2 251.7C286.3 256 276.6 265.8 272.4 265.8C268.1 265.8 258.5 256 258.6 251.7C258.7 247.5 268.3 237.9 272.4 238C276.5 237.9 286.1 247.5 286.2 251.7ZM277.7 259.6C277.6 258 277.4 256.6 277.5 255.1C277.5 253.6 277.3 251.2 278 250.7C281.2 248.8 278.8 246.6 278.5 244.7C278.4 244.1 275.6 243.1 275 243.6C273.8 244.5 272.7 246.3 272.7 247.7C272.7 250.6 273.5 253.5 273.9 256.4C274 257.5 273.9 258.6 273.9 259.6C275.3 259.6 276.5 259.6 277.7 259.6ZM268.6 246.9C267.8 247 266.5 247.2 265.2 247.3C265.5 247.7 265.8 248 266 248.4C265.8 249.1 265.4 249.7 265.4 250.4C265.4 252.6 265.3 254.9 265.6 257.1C265.6 257.4 267.4 257.5 269 257.7C268.9 254 268.8 250.7 268.6 246.9Z" fill="#F3F4F4"/>
<path fill-rule="evenodd" clip-rule="evenodd" d="M286.2 206.7C286.3 211 276.7 220.7 272.4 220.7C268.3 220.7 258.6 211.2 258.5 207.1C258.4 202.7 268.3 192.9 272.7 193.1C276.9 193.3 286.1 202.6 286.2 206.7ZM270 201.5C269.6 201.6 269.1 201.7 268.7 201.8C268.8 205.9 268.9 210.1 268.9 214.1C271.7 214.1 273.7 214.1 275.9 214.1C276.2 210.4 276.6 206.9 276.7 203.3C276.7 202.7 275.5 202.1 274.9 201.5C273.1 199.2 271.9 199.2 270 201.5Z" fill="#FBF7F7"/>
<path fill-rule="evenodd" clip-rule="evenodd" d="M258.6 162.2C258.6 157.9 268.1 148.2 272.5 148.2C277 148.2 286.5 158.3 286.2 162.7C286 166.5 276.4 175.8 272.7 176C272.6 176 272.5 176 272.4 176C268.2 176 258.6 166.3 258.6 162.2ZM273.8 160C273.6 159.7 273.4 159.4 273.1 159.1C272.6 158.7 272.2 157.9 271.7 158C269 158.2 266.2 158.6 262.9 159.1C261 162.3 264 165.1 265.2 167.8C268.7 167.6 271.8 167.1 274.9 167.3C278.3 167.6 280.4 166.4 281.9 163.3C279.5 162.7 277.1 162.1 274.7 161.6C274.9 161.4 275 161.2 275.2 161.1C274.7 160.7 274.2 160.3 273.8 160Z" fill="#F3F4F4"/>
<path fill-rule="evenodd" clip-rule="evenodd" d="M235.4 237.9C239.6 238 249 247.6 249.1 251.8C249.1 256.1 239.3 265.8 235.1 265.7C231.2 265.6 221.6 256.1 221.5 252.1C221.2 247.7 230.9 237.8 235.4 237.9ZM244.3 251.8C243.2 250.6 242.6 249.7 241.8 249.2C237.9 247.1 234 245.2 229.9 248.7C229.6 249 229.1 249 228.6 249.2C226.4 250 225.8 252.3 227.5 253.8C228.7 254.9 230 255.9 231.4 256.8C234.1 258.4 236.8 258.3 239.2 256.3C241 254.8 242.6 253.3 244.3 251.8Z" fill="#FBF7F7"/>
<path fill-rule="evenodd" clip-rule="evenodd" d="M221.4 162.1C221.4 158 231 148.2 235.1 148.2C239.4 148.2 249.1 157.8 249.1 162.1C249.1 166.5 239.4 176 235.1 176C230.9 175.9 221.4 166.2 221.4 162.1ZM233.1 169.9C233.1 168.3 233.1 166.8 233.1 165.4C233.1 163.9 232.7 161.3 233.1 161.2C236.9 160.1 233.9 157.7 234.1 156C234.2 155.4 232.5 154.1 231.7 154.1C230.5 154.1 228.8 154.8 228.3 155.7C227.5 157.2 227.6 159 227.3 161C228.2 160.7 228.7 160.6 229.4 160.4C229.4 163.7 229.4 166.8 229.4 169.9C230.7 169.9 231.7 169.9 233.1 169.9ZM238 156.9C238.2 160.9 234.8 164.5 237.2 168.6C238.7 168.6 240.4 168.6 242.2 168.6C242.6 163.9 242.7 159.6 238 156.9Z" fill="#F3F4F4"/>
<path fill-rule="evenodd" clip-rule="evenodd" d="M249 205.7C249 211.1 239.3 220.9 235.1 220.7C233.7 220.6 232.1 220.2 231.1 219.3C228.2 216.7 225.4 213.9 222.8 211C220.7 208.6 220.7 205.2 222.8 202.7C225.2 199.9 227.8 197.2 230.6 194.8C233.5 192.2 237.2 192.5 240 195.2C242.4 197.4 244.7 199.7 246.9 202.1C248.1 203.3 248.7 205 249 205.7ZM234.6 199.5C231.6 198.1 229.1 198.3 228.3 201.4C227.5 204.6 227.4 207.9 226.9 211.4C228.2 211.7 229.4 212 230.6 212.2C231.6 210.5 232.4 209.1 233.6 206.9C235.9 209.8 237.7 212 239.8 214.6C240.4 214.4 241.8 214.1 243 213.8C242.7 211.1 242.2 208.8 242.2 206.5C242.1 203 240.2 201.1 237.2 199.9C236.6 203.5 235.4 204.9 233.4 204.7C233.7 203.1 234.1 201.4 234.6 199.5Z" fill="#F3F4F4"/>
<path fill-rule="evenodd" clip-rule="evenodd" d="M174.9 249.8C179.4 250.3 183.9 250.8 188.4 251.4C188.2 256.2 188.2 261.1 187.6 265.8C187.4 267.8 185.9 269.7 184.9 271.6C182.4 271.6 179.9 271.6 177.3 271.6C177 271.3 176.8 271 176.5 270.6C176.1 270 175.7 269.3 175.3 268.7C175.2 267.5 175.1 266.4 175 265.2C175.1 260 175 254.9 174.9 249.8Z" fill="#FBF7F7"/>
<path fill-rule="evenodd" clip-rule="evenodd" d="M191.9 251.3C196.4 250.8 200.8 250.3 205.3 249.7C205.4 251 205.5 252.4 205.5 253.7C205.5 254.9 205.4 256.1 205.4 257.3C205.3 260.6 205.3 263.9 205.2 267.2C204.5 268.7 203.8 270.1 203.1 271.6C200.6 271.6 198.1 271.6 195.6 271.6C194.6 269.4 193 267.2 192.7 264.9C192.1 260.4 192.1 255.8 191.9 251.3Z" fill="#FBF7F7"/>
<path fill-rule="evenodd" clip-rule="evenodd" d="M183.4 144.3C178.5 139.8 178.5 135.5 183.6 130.5C187.8 126.3 193.2 126.6 197.4 131.1C201.9 136.1 201.8 140.1 196.9 144.3C196.7 143.9 196.6 143.4 196.4 143C196.2 137.2 193.3 135 188 136.3C184.4 137.2 184 140.1 183.8 143.1C183.7 143.6 183.6 144 183.4 144.3Z" fill="#5E9597"/>
<path fill-rule="evenodd" clip-rule="evenodd" d="M202 154.8C200.2 163.1 200.2 163 192 163C189.3 163 186.6 162.8 184 163.1C181.2 163.4 179.8 162.4 179.5 159.7C179.3 158.1 178.7 156.4 178.4 154.8C180.1 154.3 181.9 153.7 183.6 153.2C188.3 157 193 155.9 197.6 153C199.1 153.5 200.6 154.1 202 154.8Z" fill="#FBF7F7"/>
<path fill-rule="evenodd" clip-rule="evenodd" d="M204.4 183.9C205.5 189.6 206.6 195.3 207.8 200.9C208.2 202.6 209.1 204.2 209.7 205.8C209.1 207.8 208.5 209.8 207.9 211.9C208.1 213.7 208.3 215.5 208.4 217.3C208.3 219.2 208.2 221 208.2 222.9C208.1 228.9 208.1 234.9 208 240.9C207.6 233.5 207.3 226.1 206.7 218.8C206 210.4 205 202 204.3 193.7C204.2 190.4 204.4 187.1 204.4 183.9Z" fill="#CA8BA3"/>
<path fill-rule="evenodd" clip-rule="evenodd" d="M168.9 205.8C171.7 205.8 172 203.6 172.5 201.7C173.7 196 174.9 190.3 176.1 184.6C175.9 189 175.9 193.5 175.6 197.9C174.9 207.7 174 217.5 173.2 227.3C173.2 227.8 173 228.4 172.8 228.9C172.6 225.9 172.5 222.8 172.2 219.8C172.1 219.1 171.7 218.5 171.4 217.8C170.9 218.2 170.5 218.5 170 218.9C169.4 217.2 168.9 215.4 168.3 213.7C168.6 213.6 169 213.5 169.3 213.5C169.7 214.6 170 215.8 170.4 216.9C170.7 216.9 171 216.9 171.4 216.9C171.7 215 172.6 212.9 172.1 211.3C171.5 209.2 172 206.2 168.9 205.8Z" fill="#CA8BA3"/>
<path fill-rule="evenodd" clip-rule="evenodd" d="M195.5 271.6C198 271.6 200.5 271.6 203 271.6C204.2 274.2 205.5 276.8 206.7 279.4C207.3 282.1 205.9 282.9 203.5 283.1C199.5 283.4 197.7 280.6 195.8 277.9C195.8 275.8 195.7 273.7 195.5 271.6Z" fill="#41656C"/>
<path fill-rule="evenodd" clip-rule="evenodd" d="M177.4 271.6C179.9 271.6 182.4 271.6 185 271.6C185 273.4 184.9 275.3 184.9 277.1C184 278.3 183.1 279.6 182.1 280.8C179.7 283.7 174.8 283.2 173.4 280.1C174.6 277.9 175.8 275.7 177 273.5C177.1 273.5 177.2 273.4 177.2 273.4C177.2 273.3 177.1 273.1 177.1 273C177.3 272.4 177.3 272 177.4 271.6Z" fill="#41656C"/>
<path fill-rule="evenodd" clip-rule="evenodd" d="M196.4 143.1C196.6 143.5 196.7 144 196.9 144.4C196 145.9 195.1 147.5 194.2 149C191.6 149 189.1 149.1 186.5 149.1C185.5 147.5 184.5 145.9 183.5 144.3C183.6 143.9 183.8 143.6 183.9 143.2C188 141.2 192.2 141.2 196.4 143.1Z" fill="#F3F4F4"/>
<path fill-rule="evenodd" clip-rule="evenodd" d="M168.9 205.8C172 206.3 171.5 209.2 172.1 211.1C172.6 212.7 171.7 214.8 171.4 216.7C171.1 216.7 170.8 216.7 170.4 216.7C170 215.6 169.7 214.4 169.3 213.3C169 213.4 168.6 213.5 168.3 213.5C168.9 215.2 169.4 217 170 218.7C169.8 219.4 169.5 220 169.3 220.7C168.7 220.3 168 220.1 167.5 219.6C163.7 215.6 164.9 210.6 165 205.9C166.3 205.9 167.6 205.8 168.9 205.8Z" fill="#41656C"/>
<path fill-rule="evenodd" clip-rule="evenodd" d="M208 211.9C208.6 209.9 209.2 207.9 209.8 205.8C211.7 205.8 213.5 205.9 215.4 205.9C215.3 210.5 216.8 215.3 213.2 219.3C212.7 219.9 212.2 220.4 211 221.8C210.9 219.9 210.9 219 210.8 218.1C211.3 216.5 211.7 214.8 212.2 213.2C211.8 213.1 211.5 213.1 211.1 213C210.8 214.2 210.5 215.4 210.2 216.6C209.9 216.6 209.6 216.7 209.4 216.7C208.9 215.1 208.4 213.5 208 211.9Z" fill="#41656C"/>
<path fill-rule="evenodd" clip-rule="evenodd" d="M186.5 149.2C189.1 149.2 191.6 149.1 194.2 149.1C194.4 151.2 195.3 152.8 197.6 153C193 156 188.3 157 183.6 153.2C184.6 151.8 185.5 150.5 186.5 149.2Z" fill="#DBA588"/>
<path fill-rule="evenodd" clip-rule="evenodd" d="M235.4 273.5C228.7 274.9 220.9 274.2 219.4 272.1C223 270.6 233.8 271.3 235.4 273.5Z" fill="#B47DA3"/>
<path fill-rule="evenodd" clip-rule="evenodd" d="M174.9 249.8C175 254.9 175.1 260.1 175.2 265.2C174.9 264 174.4 262.8 174.3 261.5C174.2 258.7 174.3 255.9 174.2 253.1C174.2 252.2 174.2 251.1 173.7 250.6C169.3 245.4 172.1 239.5 172.1 233.9C172.1 233.8 172.4 233.7 172.6 233.5C172.6 237.5 172.6 241.5 172.5 245.5C172.4 247.6 173 249 174.9 249.8Z" fill="#CA8BA3"/>
<path fill-rule="evenodd" clip-rule="evenodd" d="M232.8 183.1C232 182.9 231.2 182.7 230.4 182.5C230.4 182.1 230.5 181.8 230.5 181.4C236.7 180.4 242.9 181.2 249.1 181.3C249.1 181.7 249.2 182 249.2 182.4C247.1 182.6 245 182.8 243 183.1C242.5 183.2 242 183.4 241.5 183.5C241 183.5 240.6 183.4 240.1 183.4C237.7 183.2 235.3 183.1 232.8 183.1Z" fill="#905F81"/>
<path fill-rule="evenodd" clip-rule="evenodd" d="M278.701 226.2C279.201 226.3 279.6 226.4 280.1 226.5C280 226.7 279.901 226.9 279.701 227.2C279.901 227.1 280.1 227 280.3 226.8H280.5C281 227.2 281.5 227.7 281.9 228.1C281.9 228.6 281.9 229.2 281.8 229.7C278.8 230 275.8 230.4 272.8 230.7C272.2 229.6 271.6 228.4 271 227.3V227.1C271.6 226.7 272.2 226.1 272.8 226.1C274 226 275.3 226.2 276.5 226.2C276.8 226.6 277.1 227.1 277.3 227.5C278 227.1 278.401 226.6 278.701 226.2Z" fill="#B47DA3"/>
<path fill-rule="evenodd" clip-rule="evenodd" d="M230.9 228.2C234.9 225.8 243.6 225.7 246.6 228.2C241.1 228.2 236.2 228.2 230.9 228.2Z" fill="#905F81"/>
<path fill-rule="evenodd" clip-rule="evenodd" d="M195.9 277.9C197.8 280.6 199.6 283.4 203.6 283.1C206 282.9 207.4 282.1 206.8 279.4C207.2 281.4 208 284 205.4 284.5C203.3 284.9 200.4 284.5 198.6 283.3C197.2 282.4 196.7 279.8 195.9 277.9Z" fill="#D4D4D4"/>
<path fill-rule="evenodd" clip-rule="evenodd" d="M266.3 184.7C270.8 184.5 275.3 184.2 279.8 184.1C280.2 184.1 280.6 185.2 281.2 186.1C275.9 186.1 271.1 186.1 266.4 186.1C266.3 185.6 266.3 185.1 266.3 184.7Z" fill="#905F81"/>
<path fill-rule="evenodd" clip-rule="evenodd" d="M173.5 280.1C174.9 283.2 179.7 283.7 182.2 280.8C183.2 279.6 184 278.3 185 277.1C184.2 281.6 182.1 284.1 178.6 284.6C175.2 285.1 173.2 283.3 173.5 280.1Z" fill="#D4D4D4"/>
<path fill-rule="evenodd" clip-rule="evenodd" d="M267.9 276.1C271.4 275.6 274.8 275.1 278.3 274.8C278.8 274.8 279.4 275.6 280 276C279.6 276.5 279.2 277.3 278.8 277.3C275.2 277.4 271.6 277.4 268 277.4C267.9 276.9 267.9 276.5 267.9 276.1Z" fill="#B47DA3"/>
<path fill-rule="evenodd" clip-rule="evenodd" d="M232.8 183.1C235.2 183.1 237.6 183.2 240.1 183.2C240.1 184 240.1 184.7 240.1 185.1C238 185.7 236 186.3 234 186.7C233.6 186.8 232.6 186.1 232.5 185.6C232.4 184.9 232.7 184 232.8 183.1Z" fill="#B47DA3"/>
<path fill-rule="evenodd" clip-rule="evenodd" d="M238.9 273.5C244.3 270.3 248.1 270.5 249.3 273.5C246.1 273.5 243 273.5 238.9 273.5Z" fill="#B47DA3"/>
<path fill-rule="evenodd" clip-rule="evenodd" d="M271.3 227.1V227.3C267.8 229.4 264.2 229.3 260.7 227.6C260.7 227.2 260.7 226.9 260.7 226.5C264.2 226.6 267.7 226.9 271.3 227.1Z" fill="#905F81"/>
<path fill-rule="evenodd" clip-rule="evenodd" d="M273 230.7C276 230.4 279 230 282 229.7C282 230.9 282.2 232.2 280.1 231.7C277.8 231.1 275 233.7 273 230.7Z" fill="#905F81"/>
<path fill-rule="evenodd" clip-rule="evenodd" d="M205.6 253.7C205.5 252.4 205.4 251 205.4 249.7C209.5 248.8 207.5 245.3 208.3 242.9C210.1 245.6 209.7 248.1 207.7 250C206.6 251 206.2 252.5 205.6 253.7Z" fill="#CA8BA3"/>
<path fill-rule="evenodd" clip-rule="evenodd" d="M208 211.9C208.4 213.5 208.9 215.1 209.3 216.7C209.6 216.7 209.9 216.6 210.1 216.6C210.4 215.4 210.7 214.2 211 213C211.4 213.1 211.7 213.1 212.1 213.2C211.6 214.8 211.2 216.5 210.7 218.1C210 217.8 209.2 217.5 208.5 217.2C208.4 215.5 208.2 213.7 208 211.9Z" fill="#B47DA3"/>
<path fill-rule="evenodd" clip-rule="evenodd" d="M263.9 231.7C263.2 231.5 262.4 231.4 261.7 231.2C262.1 230.6 262.5 230 262.9 229.4C265.1 229.6 267.3 229.9 269.5 230.1C269 230.6 268.5 231 268 231.5C267.8 231.5 267.5 231.5 267.3 231.5C267.2 231.3 267 231.1 266.9 230.9C266.8 231.1 266.8 231.3 266.7 231.5C266.5 231.5 266.2 231.5 266 231.5C265.3 231.7 264.6 231.7 263.9 231.7Z" fill="#905F81"/>
<path fill-rule="evenodd" clip-rule="evenodd" d="M205.2 267.2C205.3 263.9 205.3 260.6 205.4 257.3C205.4 260.6 205.3 263.9 205.2 267.2Z" fill="#CA8BA3"/>
<path fill-rule="evenodd" clip-rule="evenodd" d="M268 231.6C268.5 231.1 269 230.7 269.5 230.2C269.7 230.8 269.9 231.3 270.1 231.9C269.3 231.8 268.6 231.7 268 231.6Z" fill="#B47DA3"/>
<path fill-rule="evenodd" clip-rule="evenodd" d="M278.7 226.2C278.3 226.6 278 227.1 277.6 227.5C277.3 227.1 277 226.6 276.8 226.2C277.4 226.2 278.1 226.2 278.7 226.2Z" fill="#905F81"/>
<path fill-rule="evenodd" clip-rule="evenodd" d="M175.5 268.7C175.9 269.3 176.3 270 176.7 270.6C176.3 270 175.9 269.3 175.5 268.7Z" fill="#CA8BA3"/>
<path fill-rule="evenodd" clip-rule="evenodd" d="M263.3 184C263.5 184.6 263.8 184.9 263.8 185.1C263.8 185.3 263.5 185.6 263.3 185.8C263.1 185.6 262.7 185.5 262.7 185.3C262.7 185.1 262.9 184.8 263.3 184Z" fill="#905F81"/>
<path fill-rule="evenodd" clip-rule="evenodd" d="M263.9 231.7C264.6 231.7 265.3 231.6 265.9 231.6C265.3 231.7 264.6 231.7 263.9 231.7Z" fill="#B47DA3"/>
<path fill-rule="evenodd" clip-rule="evenodd" d="M282.1 228.1C281.6 227.7 281.1 227.2 280.7 226.8C281.1 227.2 281.6 227.6 282.1 228.1Z" fill="#905F81"/>
<path fill-rule="evenodd" clip-rule="evenodd" d="M266.7 231.6C266.8 231.4 266.8 231.2 266.9 231C267 231.2 267.2 231.4 267.3 231.6H267H266.7Z" fill="#B47DA3"/>
<path fill-rule="evenodd" clip-rule="evenodd" d="M241.5 183.4C242 183.3 242.5 183.1 243 183C242.5 183.1 242 183.2 241.5 183.4Z" fill="#B47DA3"/>
<path fill-rule="evenodd" clip-rule="evenodd" d="M177.2 272.9C177.2 273 177.3 273.2 177.3 273.3C177.3 273.3 177.2 273.4 177.1 273.4C177 273.2 177 273.1 177.2 272.9Z" fill="#CA8BA3"/>
<path fill-rule="evenodd" clip-rule="evenodd" d="M286.9 109.2C287.1 109.1 287.3 109 287.5 109.2L287.2 109.3L286.9 109.2Z" fill="#A7C1E4"/>
<path fill-rule="evenodd" clip-rule="evenodd" d="M164.9 109.1C165.1 109 165.2 109 165.4 109.1L165.1 109.2L164.9 109.1Z" fill="#A7C1E4"/>
<path fill-rule="evenodd" clip-rule="evenodd" d="M290.9 109.2C291.1 109.1 291.3 109 291.5 109.2L291.2 109.3L290.9 109.2Z" fill="#A7C1E4"/>
<path fill-rule="evenodd" clip-rule="evenodd" d="M243.1 306.3C243.8 306.6 244.5 307 245.2 307.1C246.6 307.2 248 307 249.5 306.7C253.3 306.5 257.1 306.2 260.9 306C261.1 306.3 261.2 306.6 261.4 306.9C260.2 308.8 259 310.7 257.8 312.6C257.6 312.2 257.4 311.9 257.2 311.5C255.6 311.7 253.9 312 252.3 312.2C252.2 312.2 252.1 312.3 252 312.3C248.8 312.1 245.5 311.9 242.2 311.6C242.6 309.8 242.8 308 243.1 306.3Z" fill="#EDDAE8"/>
<path fill-rule="evenodd" clip-rule="evenodd" d="M208.601 311.8C204.601 311.5 200.501 313.9 196.601 311.2C196.201 310.9 195.101 311 194.601 311.3C189.401 313.9 191.801 309.9 191.801 308.1C191.801 307.5 192.101 306.9 192.201 306.3C192.601 306 192.901 305.8 193.301 305.5C193.901 306.7 194.401 307.9 195.401 310C196.301 308 196.901 306.8 197.501 305.6C197.801 305.9 198.201 306.1 198.501 306.4C198.801 307.3 199.101 308.2 199.601 309.3C201.401 308.2 202.701 303.4 205.601 309.1C206.301 308 206.801 307.3 207.201 306.6C207.701 308.3 208.201 310 208.601 311.8Z" fill="#EDDAE8"/>
<path fill-rule="evenodd" clip-rule="evenodd" d="M216.6 306.9C221.2 306.5 225.8 306.1 230.8 305.7C229.9 307.7 229.3 309 228.7 310.2C228.4 310.9 227.9 311.5 227.5 312.2C227.1 311.5 226.6 310.9 226.3 310.2C226 309.7 225.9 309.2 225.7 308.8C225.4 308.8 225.1 308.7 224.7 308.7C224.5 309.7 224.3 310.8 223.9 312.4C222.2 312.4 220.1 312.4 218 312.4C217.6 310.6 217.1 308.8 216.6 306.9Z" fill="#EDDAE8"/>
<path fill-rule="evenodd" clip-rule="evenodd" d="M216.6 306.9C217.1 308.7 217.6 310.5 218.1 312.3C216.3 312.1 214.5 311.8 212.8 311.6C212.6 311.1 212.4 310.5 212.3 310C212.1 310 211.9 310 211.8 310.1C211.7 310.8 211.6 311.6 211.5 312.3C211 312.1 210.6 312 210.1 311.8C210.2 310.6 210.3 309.5 210.4 308.3C210.1 308.2 209.8 308.2 209.5 308.1C209.3 309.3 209 310.5 208.8 311.6C208.4 309.8 207.9 308.1 207.5 306.3H207.6C208.7 306.3 209.7 306.3 210.8 306.3H210.9C211.2 306.5 211.5 306.7 211.8 306.9C213.2 307 214.9 307 216.6 306.9Z" fill="#FBF7F7"/>
<path fill-rule="evenodd" clip-rule="evenodd" d="M243.1 306.3C242.8 308 242.6 309.8 242.3 311.5C240.7 312.9 239.9 312.5 239.6 310.5C239.3 309.6 239.1 308.6 238.8 307.7C238.6 307.7 238.4 307.8 238.2 307.8C237.8 309.1 237.4 310.4 237 311.8C236 311.8 235 311.9 234 311.9C233.8 311.9 233.7 311.9 233.6 311.7C234.5 310.8 235.4 310 236.3 309.1C236.3 309 236.4 309 236.4 308.9C236.4 309 236.3 309 236.3 309.1C235.3 309.1 234.3 309.1 233.3 309C233.2 308.8 233.1 308.5 233 308.3C233 308.2 233 308 233 307.9L233.1 307.8C233.5 307.3 233.9 306.9 234.2 306.4C237.2 306.3 240.1 306.3 243.1 306.3Z" fill="#FBF7F7"/>
<path fill-rule="evenodd" clip-rule="evenodd" d="M233.3 309C234.3 309 235.3 309 236.3 309.1C235.4 310 234.5 310.8 233.6 311.7C233.5 310.8 233.4 309.9 233.3 309Z" fill="#EDDAE8"/>
<path fill-rule="evenodd" clip-rule="evenodd" d="M237 311.8C237.4 310.5 237.8 309.2 238.2 307.8C238.4 307.8 238.6 307.7 238.8 307.7C239.1 308.6 239.3 309.6 239.6 310.5C238.7 311 237.9 311.4 237 311.8Z" fill="#EDDAE8"/>
<path fill-rule="evenodd" clip-rule="evenodd" d="M208.6 311.8C208.8 310.6 209.1 309.4 209.3 308.3C209.6 308.4 209.9 308.4 210.2 308.5C210.1 309.7 210 310.8 209.9 312C209.5 311.8 209.1 311.8 208.6 311.8Z" fill="#EDDAE8"/>
<path fill-rule="evenodd" clip-rule="evenodd" d="M211.3 312.3C211.4 311.6 211.5 310.8 211.6 310.1C211.8 310.1 212 310.1 212.1 310C212.3 310.5 212.5 311.1 212.6 311.6C212.2 311.9 211.8 312.1 211.3 312.3Z" fill="#EDDAE8"/>
<path fill-rule="evenodd" clip-rule="evenodd" d="M234 311.9C235 311.9 236 311.8 237 311.8C236 311.9 235 311.9 234 311.9Z" fill="#EDDAE8"/>
<path fill-rule="evenodd" clip-rule="evenodd" d="M234.2 306.4C233.8 306.9 233.4 307.3 233.1 307.8C233.5 307.3 233.9 306.8 234.2 306.4Z" fill="#EDDAE8"/>
<path fill-rule="evenodd" clip-rule="evenodd" d="M233 307.9C233 308 233 308.2 233 308.3C232.9 308.2 232.7 308.2 232.6 308.1C232.7 308 232.8 308 233 307.9Z" fill="#EDDAE8"/>
<path fill-rule="evenodd" clip-rule="evenodd" d="M211.5 307C211.2 306.8 210.9 306.6 210.6 306.4C210.9 306.7 211.2 306.9 211.5 307Z" fill="#EDDAE8"/>
<path fill-rule="evenodd" clip-rule="evenodd" d="M181.2 192.4C180.9 188 180.5 183.4 180.4 178.9C180.4 178 182 176.4 183 176.4C187.8 176.1 192.6 176.3 197.4 176.3C199.4 176.3 199.9 177.3 199.8 179C199.6 182.9 199.3 186.8 199.2 190.7C199.1 192.7 198.1 193.2 196.4 193.1C191.5 192.8 186.5 192.6 181.2 192.4Z" fill="#E09451"/>
<path fill-rule="evenodd" clip-rule="evenodd" d="M277.7 259.6C276.4 259.6 275.3 259.6 273.8 259.6C273.8 258.6 273.9 257.5 273.8 256.4C273.4 253.5 272.6 250.6 272.6 247.7C272.6 246.3 273.8 244.5 274.9 243.6C275.5 243.1 278.4 244.1 278.4 244.7C278.7 246.6 281.1 248.8 277.9 250.7C277.1 251.2 277.4 253.6 277.4 255.1C277.4 256.5 277.6 257.9 277.7 259.6Z" fill="#4C4C4C"/>
<path fill-rule="evenodd" clip-rule="evenodd" d="M268.6 246.9C268.8 250.7 268.9 254 269.1 257.8C267.5 257.5 265.7 257.5 265.7 257.2C265.4 255 265.4 252.7 265.5 250.5C265.5 249.8 265.9 249.1 266.1 248.5C265.8 248.1 265.5 247.8 265.3 247.4C266.5 247.2 267.8 247 268.6 246.9Z" fill="#4C4C4C"/>
<path fill-rule="evenodd" clip-rule="evenodd" d="M274.8 201.5C275.4 202.1 276.6 202.7 276.6 203.3C276.5 206.8 276.1 210.4 275.8 214.1C273.6 214.1 271.6 214.1 268.8 214.1C268.7 210 268.6 205.9 268.6 201.8C270.4 201.8 272.2 201.8 274 201.8C274.3 201.7 274.6 201.6 274.8 201.5ZM272.4 205.3C271.3 207.3 270.6 208.7 269.6 210.4C271.7 210.4 273.2 210.4 275.3 210.4C274.2 208.6 273.5 207.2 272.4 205.3Z" fill="#4C4C4C"/>
<path fill-rule="evenodd" clip-rule="evenodd" d="M274.8 201.5C274.5 201.6 274.3 201.7 274 201.8C272.6 201.7 271.3 201.6 269.9 201.5C271.9 199.2 273.1 199.2 274.8 201.5Z" fill="#B5B5B5"/>
<path fill-rule="evenodd" clip-rule="evenodd" d="M270 201.5C271.4 201.6 272.7 201.7 274.1 201.8C272.3 201.8 270.5 201.8 268.7 201.8C269.1 201.7 269.5 201.6 270 201.5Z" fill="#444547"/>
<path fill-rule="evenodd" clip-rule="evenodd" d="M273.8 160C274.3 160.4 274.7 160.7 275.2 161.1C275 161.3 274.9 161.4 274.7 161.6C277.1 162.2 279.5 162.7 281.9 163.3C280.4 166.4 278.3 167.6 274.9 167.3C271.8 167 268.7 167.6 265.2 167.8C263.9 165 260.9 162.3 262.9 159.1C266.2 158.7 268.9 158.3 271.7 158C272.1 158 272.6 158.7 273.1 159.1C272.8 159.5 272.5 160 272.2 160.4C272.7 160.3 273.3 160.1 273.8 160Z" fill="#4C4C4C"/>
<path fill-rule="evenodd" clip-rule="evenodd" d="M244.3 251.8C242.6 253.3 241 254.8 239.3 256.2C236.8 258.2 234.2 258.4 231.5 256.7C230.1 255.9 228.8 254.8 227.6 253.7C225.9 252.2 226.5 249.9 228.7 249.1C229.1 249 229.6 248.9 230 248.6C234.1 245.2 238.1 247.1 241.9 249.1C242.6 249.6 243.2 250.6 244.3 251.8Z" fill="#4C4C4C"/>
<path fill-rule="evenodd" clip-rule="evenodd" d="M233.1 169.9C231.7 169.9 230.7 169.9 229.4 169.9C229.4 166.9 229.4 163.7 229.4 160.4C228.8 160.6 228.3 160.7 227.3 161C227.6 159 227.5 157.1 228.3 155.7C228.8 154.8 230.5 154.1 231.7 154.1C232.5 154.1 234.2 155.4 234.1 156C233.9 157.7 236.9 160 233.1 161.2C232.7 161.3 233.1 163.9 233.1 165.4C233.1 166.8 233.1 168.3 233.1 169.9Z" fill="#4C4C4C"/>
<path fill-rule="evenodd" clip-rule="evenodd" d="M238 156.9C242.7 159.6 242.6 163.9 242.2 168.6C240.4 168.6 238.8 168.6 237.2 168.6C234.8 164.5 238.2 160.9 238 156.9Z" fill="#575656"/>
<path fill-rule="evenodd" clip-rule="evenodd" d="M234.6 199.5C234.2 201.4 233.7 203.1 233.3 204.8C235.4 204.9 236.5 203.5 237.1 200C240.1 201.2 242 203.1 242.1 206.6C242.1 208.9 242.6 211.2 242.9 213.9C241.7 214.2 240.4 214.5 239.7 214.7C237.6 212 235.8 209.9 233.5 207C232.3 209.1 231.5 210.6 230.5 212.3C229.4 212 228.1 211.7 226.8 211.5C227.2 208.1 227.4 204.7 228.2 201.5C229.1 198.3 231.6 198.1 234.6 199.5Z" fill="#4C4C4C"/>
<path fill-rule="evenodd" clip-rule="evenodd" d="M196.4 143.1C192.2 141.2 188 141.2 183.9 143.2C184.1 140.2 184.5 137.4 188.1 136.4C193.3 135.1 196.2 137.4 196.4 143.1Z" fill="#DBA588"/>
<path fill-rule="evenodd" clip-rule="evenodd" d="M280.4 226.8C280.2 226.9 280 227 279.8 227.2C279.9 227 280 226.8 280.2 226.5C280.3 226.6 280.3 226.7 280.4 226.8Z" fill="#905F81"/>
<path fill-rule="evenodd" clip-rule="evenodd" d="M236.3 309.1C236.3 309 236.4 309 236.4 308.9C236.4 309 236.3 309 236.3 309.1Z" fill="#EDDAE8"/>
<path fill-rule="evenodd" clip-rule="evenodd" d="M272.4 205.3C273.5 207.3 274.201 208.6 275.201 210.4C273.101 210.4 271.6 210.4 269.5 210.4C270.6 208.6 271.3 207.2 272.4 205.3Z" fill="#8F8F8F"/>
<path fill-rule="evenodd" clip-rule="evenodd" d="M273.8 160C273.3 160.2 272.7 160.3 272.2 160.5C272.5 160.1 272.8 159.6 273.1 159.2C273.3 159.4 273.6 159.7 273.8 160Z" fill="#F3F4F4"/>
<path d="M192 99.8002C194.7 125.6 217.3 144 243 141.5C268.4 139 287.3 116 284.8 90.9002C282 64.6002 259.5 46.0002 233.5 48.7002C207.7 51.4002 189.3 74.0002 192 99.8002Z" fill="#5E5F5F"/>
<path fill-rule="evenodd" clip-rule="evenodd" d="M192 99.8002C189.3 74.1002 207.8 51.4002 233.5 48.7002C259.5 46.0002 282 64.6002 284.7 90.9002C287.3 116 268.3 138.9 242.9 141.5C217.2 144 194.6 125.5 192 99.8002ZM274.5 109.5C274.2 107.4 273.3 106.3 270.9 105C270.4 106.3 269.9 107.6 269.4 109C271 109.2 272.7 109.4 274.5 109.5ZM269.3 91.5002C267.5 73.9002 252.2 61.5002 234.7 63.3002C217.3 65.1002 204.7 80.6002 206.5 98.1002C208.3 115.5 223.9 128.1 241.3 126.2C258.8 124.2 271.1 108.9 269.3 91.5002ZM233.3 55.8002C233 55.8002 232.6 55.9002 232.3 55.9002C231.7 56.8002 230.8 57.7002 230.7 58.7002C230.5 60.3002 231.7 61.1002 233.2 61.0002C234.7 60.9002 235.8 59.8002 235.4 58.3002C235.1 57.4002 234 56.7002 233.3 55.8002ZM240.4 60.6002C243.7 61.0002 244.6 60.5002 244.8 58.8002C245 57.0002 244 56.3002 241 56.2002C240.8 57.6002 240.6 59.0002 240.4 60.6002ZM224.2 58.5002C224.8 60.1002 225.2 61.5002 225.7 62.9002C227.6 62.3002 229.5 61.9002 228.8 59.5002C228 56.9002 226.1 57.9002 224.2 58.5002ZM226.9 126.8C226.7 126.9 226.4 126.9 226.2 127C225.8 128.4 225.5 129.8 225.1 131.2C225.3 131.3 225.5 131.4 225.7 131.5C226.2 131 226.7 130.6 227.1 130.2C227.7 131 228.2 131.7 229 132.8C229.4 131.5 229.8 130.7 229.9 129.9C230 129.2 229.9 128.5 229.9 127.8C229.4 128.2 228.8 128.6 228.3 129C227.9 128.4 227.4 127.6 226.9 126.8ZM272 76.1002C271.9 75.9002 271.8 75.7002 271.8 75.5002C271.1 75.3002 270.5 75.2002 270 75.0002C270 74.1002 270 73.3002 270 72.1002C268.3 73.3002 267.1 74.1002 265.3 75.3002C266.7 75.5002 267.4 75.6002 268 75.7002C267.9 76.6002 267.9 77.4002 267.7 78.8002C269.5 77.7002 270.8 76.9002 272 76.1002ZM253.3 64.7002C254.8 65.0002 256.1 65.8002 256.8 65.4002C257.6 65.0002 258.4 63.4002 258.3 62.5002C258.2 61.7002 256.8 61.0002 255.9 60.2002C255 61.7002 254.3 62.9002 253.3 64.7002ZM204.4 87.2002C204.8 85.9002 205.2 84.8002 205.6 83.6002C205 83.7002 204.3 83.9002 203.9 83.7002C201.1 82.6002 200.8 82.7002 200.5 86.0002C201.8 86.5002 203.2 86.9002 204.4 87.2002ZM272 99.5002C271.7 100.9 271.5 101.9 271.3 102.8C272.4 103.1 273.8 103.9 274.6 103.5C275.5 103.1 275.9 101.6 276.7 100.4C274.7 100 273.4 99.7002 272 99.5002ZM210.8 115.5C210.5 116 210.3 116.6 210 116.9C207.5 118.7 207.4 118.9 210 121.1C211.1 120.2 212.1 119.3 213.2 118.3C212.3 117.3 211.6 116.5 210.8 115.5ZM250.8 126.2C252.1 127.4 253 128.4 254.1 129.1C254.4 129.3 255.8 128.8 255.8 128.6C255.8 127.2 255.6 125.7 255.4 124.3C255.1 124.1 254.8 123.9 254.5 123.7C254.5 126.6 252.6 125.7 250.8 126.2ZM232 128.7C232.3 129.8 232.5 131 232.9 132.1C233 132.5 233.6 133.1 233.9 133.1C234.3 133.1 234.8 132.6 235 132.2C235.6 131.2 236.1 130.1 236.6 129.1C235 129 233.7 128.8 232 128.7ZM276 88.1002C275.9 87.4002 275.8 85.9002 275.5 85.9002C274.1 85.6002 272.7 85.7002 271.2 85.7002C270.6 91.0002 274 88.0002 276 88.1002ZM205.3 105C205.3 103.7 205.3 103.7 200.7 103.6C200.7 105.8 201.4 106.8 202.7 106.3C203.4 105.9 204.1 105.5 205.3 105ZM213.8 119.2C213.6 121.1 213.4 122.8 213.2 124.4C214.6 123.8 216.1 123.2 217.5 122.6C217.6 122.6 217.6 122.3 217.5 122.5C216.4 121.5 215.3 120.6 213.8 119.2ZM205.7 106.8C204.7 108.4 203.8 109.7 202.9 111.1C204.5 111.2 206.1 111.3 207.7 111.3C207.7 111.3 207.8 111.2 207.7 111.3C207.1 109.9 206.5 108.7 205.7 106.8ZM238.9 133.3C239.9 133.3 241.5 133.9 241.6 131.6C241.6 130.7 241.4 129.9 241.3 128.6C240.5 128.7 239.5 128.8 238.6 129.1C238.3 129.2 238.3 130.2 238.4 130.8C238.4 131.6 238.7 132.3 238.9 133.3ZM203.9 92.1002C204 90.9002 204.1 90.0002 204.2 89.1002C202.5 89.0002 201.1 88.9002 199.7 88.8002C199.6 89.6002 199.5 90.4002 199.4 91.4002C200.9 91.7002 202.2 91.9002 203.9 92.1002ZM219.8 65.3002C221.4 64.5002 222.7 63.9002 224.1 63.2002C223.1 62.3002 222.2 61.4002 221.2 60.6002C220.1 59.8002 219.4 60.2002 219.4 61.5002C219.4 62.8002 219.6 64.0002 219.8 65.3002ZM270.8 84.2002C271.7 83.4002 272.7 82.6002 273.5 81.6002C273.8 81.3002 273.3 79.8002 273.1 79.8002C271.7 79.7002 270.3 79.9002 269.2 79.9002C269.8 81.5002 270.3 82.8002 270.8 84.2002ZM258.8 126.7C260.6 126.6 261.7 125.8 261.6 124.3C261.6 123.5 260.8 122.3 260.1 122C258.6 121.3 257.5 122.2 256.8 123.6C259.3 124.6 259.5 125 258.8 126.7ZM262.3 64.1002C260.2 63.8002 259.5 65.2002 259.1 66.3002C258.9 67.0002 259.5 68.4002 260.1 68.7002C262.5 69.8002 262.9 67.3002 264.1 66.3002C264 66.1002 263.9 65.8002 263.7 65.6002C262.7 66.2002 261.7 66.7002 260.7 67.3002C260.6 67.2002 260.5 67.1002 260.4 67.0002C261 66.2002 261.5 65.4002 262.3 64.1002ZM249.2 128.6C249.4 128.4 249.7 127.9 250.2 127.2C244.3 126.8 248.1 130.2 247.7 132.6C248.9 131.8 249.9 131.3 250.4 130.6C250.5 130.3 249.6 129.2 249.2 128.6ZM264.6 73.3002C265.8 72.2002 266.8 71.2002 268 70.2002C267.4 69.5002 266.8 68.9002 266.1 68.1002C264.9 69.2002 263.8 70.1002 262.6 71.2002C263.4 72.0002 264 72.7002 264.6 73.3002ZM216.4 63.4002C214.9 62.9002 213.9 63.8002 213.8 65.0002C213.8 66.0002 214.6 67.5002 215.4 67.9002C216.8 68.6002 217.9 67.6002 218.8 65.7002C217.4 66.0002 216.5 66.2002 215.5 66.4002C215.7 65.4002 216 64.5002 216.4 63.4002ZM271.8 94.2002C272.6 95.5002 273 96.3002 273.5 96.9002C273.9 97.4002 274.6 97.8002 275.2 97.8002C275.6 97.8002 276.3 97.2002 276.5 96.7002C276.7 96.0002 276.6 95.1002 276.7 94.1002C274.9 94.2002 273.5 94.2002 271.8 94.2002ZM246.1 61.5002C247.2 61.8002 248.1 62.1002 248.6 62.2002C249.2 60.5002 249.6 59.3002 250.1 57.8002C249.2 57.5002 248.3 57.3002 247.4 57.0002C247 58.6002 246.6 59.9002 246.1 61.5002ZM204 94.2002C203.7 94.1002 203.3 94.0002 203 93.9002C202.8 94.2002 202.6 94.6002 202.4 94.9002C202.1 95.4002 201.9 96.0002 201.6 96.5002C201.3 96.0002 200.9 95.5002 200.6 95.0002C200.4 94.6002 200.1 94.2002 199.9 93.9002C199.6 94.0002 199.3 94.1002 199 94.2002C199.3 95.3002 199.4 96.7002 200.1 97.4002C200.6 97.9002 202.5 97.9002 202.9 97.4002C203.7 96.7002 203.7 95.3002 204 94.2002ZM266.4 113C266.6 113.3 266.8 113.7 267 114C267.4 113.8 267.8 113.6 268.2 113.4C268.7 113.1 269.2 112.9 269.7 112.6C269.7 113.1 269.7 113.7 269.7 114.2C269.7 114.7 269.7 115.2 269.7 115.6C270 115.6 270.4 115.7 270.7 115.7C270.9 114.5 271.4 113.3 271.3 112.2C271.2 111.6 269.8 110.7 269.2 110.9C268.2 111.3 267.3 112.3 266.4 113ZM206.8 71.9002C207.8 72.8002 208.6 73.6002 209.5 74.4002C209.7 74.6002 210.2 74.6002 210.5 74.5002C210.7 74.4002 210.9 73.9002 210.8 73.7002C210.2 72.3002 209.6 71.0002 208.7 69.0002C207.8 70.3002 207.3 71.1002 206.8 71.9002ZM216.4 126.8C217.2 127.3 218.2 127.9 219.3 128.6C219.7 126.7 220 125.2 220.3 123.7C220.1 123.7 219.9 123.7 219.8 123.7C218.7 124.6 217.7 125.6 216.4 126.8ZM202.6 78.9002C202.9 78.4002 203.2 77.8002 203.5 77.3002C203 78.4002 202.5 79.4002 202 80.5002C204 80.6002 205.5 80.7002 207.4 80.8002C205.3 80.0002 204 79.5002 202.6 78.9002ZM267 120.4C267.7 119.5 268.4 118.6 268.9 117.9C267.6 117.2 266.6 116.7 265.6 116.3C265.2 116.2 264.8 116.2 264.4 116.2C264.5 116.6 264.4 117.1 264.6 117.4C265.3 118.3 266 119.2 267 120.4ZM223.4 124.9C222.5 126.8 221.9 128.2 221.2 129.9C223.3 129.4 224.4 127.3 223.4 124.9ZM261.8 119C261.6 119.3 261.5 119.5 261.3 119.8C263.6 122.9 263.8 123 265.2 121.9C264.1 120.9 262.9 119.9 261.8 119ZM213.7 71.4002C213.8 69.7002 211.8 67.0002 211 67.2002C210.8 67.3002 210.5 68.2002 210.6 68.3002C211.5 69.3002 212.4 70.2002 213.7 71.4002ZM205.3 74.2002C205.1 74.4002 204.9 74.6002 204.7 74.8002C205.2 75.4002 205.7 76.1002 206.4 76.4002C207.1 76.8002 208 78.2002 209.2 76.5002C207.8 75.6002 206.6 74.9002 205.3 74.2002ZM205.7 116.4C207.2 115.5 208.5 114.7 210 113.7C208 112.7 205.7 114.2 205.7 116.4Z" fill="#F9F8FA"/>
<path fill-rule="evenodd" clip-rule="evenodd" d="M269.3 91.5001C271.1 108.9 258.7 124.3 241.3 126.1C223.9 128 208.3 115.4 206.5 98.0001C204.7 80.6001 217.2 65.1001 234.7 63.2001C252.2 61.4001 267.5 73.9001 269.3 91.5001ZM268 91.7001C266.4 75.2001 251.7 63.0001 235.3 64.6001C218.6 66.2001 206.3 80.8001 207.9 97.0001C209.6 113.9 224.1 126.3 240.3 124.7C257.6 123.1 269.7 108.6 268 91.7001Z" fill="#BF9852"/>
<path fill-rule="evenodd" clip-rule="evenodd" d="M233.3 55.8003C234 56.6003 235.1 57.4003 235.3 58.3003C235.7 59.8003 234.6 60.9003 233.1 61.0003C231.6 61.1003 230.4 60.2003 230.6 58.7003C230.7 57.7003 231.7 56.8003 232.2 55.9003C232.6 55.9003 233 55.9003 233.3 55.8003Z" fill="#4D62A8"/>
<path fill-rule="evenodd" clip-rule="evenodd" d="M240.4 60.6002C240.6 59.0002 240.8 57.6002 241 56.2002C244 56.3002 245 57.0002 244.8 58.8002C244.6 60.6002 243.6 61.0002 240.4 60.6002Z" fill="#5466AB"/>
<path fill-rule="evenodd" clip-rule="evenodd" d="M224.2 58.5003C226.1 57.9003 228 56.9003 228.8 59.5003C229.5 61.9003 227.6 62.3003 225.7 62.9003C225.2 61.5003 224.7 60.1003 224.2 58.5003Z" fill="#4A60A7"/>
<path fill-rule="evenodd" clip-rule="evenodd" d="M226.9 126.8C227.4 127.6 227.9 128.4 228.4 129C228.9 128.6 229.5 128.2 230 127.8C230 128.5 230.1 129.2 230 129.9C229.9 130.7 229.5 131.5 229.1 132.8C228.3 131.7 227.7 131 227.2 130.2C226.8 130.6 226.3 131 225.8 131.5C225.6 131.4 225.4 131.3 225.2 131.2C225.6 129.8 225.9 128.4 226.3 127C226.4 126.9 226.6 126.9 226.9 126.8Z" fill="#4A60A7"/>
<path fill-rule="evenodd" clip-rule="evenodd" d="M272 76.1001C270.7 76.9001 269.4 77.7001 267.6 78.8001C267.7 77.4001 267.8 76.6001 267.9 75.7001C267.3 75.6001 266.6 75.5001 265.2 75.3001C267 74.1001 268.2 73.3001 269.9 72.1001C269.9 73.4001 269.9 74.1001 269.9 75.0001C270.4 75.1001 271 75.3001 271.7 75.5001C271.9 75.7001 272 75.9001 272 76.1001Z" fill="#4B60A8"/>
<path fill-rule="evenodd" clip-rule="evenodd" d="M253.3 64.7002C254.3 63.0002 255 61.8002 255.9 60.2002C256.8 61.0002 258.2 61.7002 258.3 62.5002C258.4 63.5002 257.6 65.0002 256.8 65.4002C256.1 65.8002 254.8 65.0002 253.3 64.7002Z" fill="#4B60A8"/>
<path fill-rule="evenodd" clip-rule="evenodd" d="M204.4 87.2001C203.2 86.9001 201.8 86.5001 200.5 86.1001C200.8 82.8001 201.1 82.6001 203.9 83.8001C204.4 84.0001 205 83.7001 205.6 83.7001C205.2 84.8001 204.8 85.9001 204.4 87.2001Z" fill="#4C61A8"/>
<path fill-rule="evenodd" clip-rule="evenodd" d="M272 99.5002C273.3 99.7002 274.7 100 276.7 100.4C275.9 101.7 275.5 103.2 274.6 103.5C273.7 103.9 272.4 103.1 271.3 102.8C271.5 101.9 271.7 100.9 272 99.5002Z" fill="#475EA6"/>
<path fill-rule="evenodd" clip-rule="evenodd" d="M210.8 115.5C211.7 116.6 212.3 117.4 213.1 118.4C212.1 119.3 211 120.2 209.9 121.2C207.3 119 207.4 118.8 209.9 117C210.3 116.6 210.4 116 210.8 115.5Z" fill="#4A60A7"/>
<path fill-rule="evenodd" clip-rule="evenodd" d="M250.8 126.2C252.6 125.8 254.5 126.6 254.5 123.8C254.8 124 255.1 124.2 255.4 124.4C255.5 125.8 255.8 127.3 255.8 128.7C255.8 128.9 254.5 129.4 254.1 129.2C253 128.4 252.1 127.4 250.8 126.2Z" fill="#5265AA"/>
<path fill-rule="evenodd" clip-rule="evenodd" d="M232 128.7C233.7 128.9 235 129.1 236.6 129.2C236.1 130.1 235.6 131.2 235 132.3C234.8 132.7 234.2 133.2 233.9 133.2C233.5 133.2 233 132.6 232.9 132.2C232.5 130.9 232.3 129.7 232 128.7Z" fill="#4B60A8"/>
<path fill-rule="evenodd" clip-rule="evenodd" d="M276 88.1001C274 88.0001 270.5 91.0001 271.3 85.7001C272.7 85.7001 274.2 85.6001 275.6 85.9001C275.9 86.0001 275.9 87.4001 276 88.1001Z" fill="#4D62A8"/>
<path fill-rule="evenodd" clip-rule="evenodd" d="M205.3 105C204.1 105.6 203.4 105.9 202.7 106.3C201.4 106.8 200.7 105.8 200.7 103.6C205.3 103.7 205.3 103.7 205.3 105Z" fill="#4D62A8"/>
<path fill-rule="evenodd" clip-rule="evenodd" d="M213.8 119.2C215.3 120.5 216.4 121.5 217.6 122.5C217.6 122.4 217.6 122.6 217.6 122.6C216.2 123.2 214.7 123.8 213.3 124.4C213.4 122.8 213.6 121.2 213.8 119.2Z" fill="#4B60A8"/>
<path fill-rule="evenodd" clip-rule="evenodd" d="M205.7 106.8C206.5 108.7 207.1 109.9 207.7 111.3C207.8 111.2 207.7 111.3 207.7 111.3C206.1 111.2 204.5 111.1 202.9 111.1C203.8 109.7 204.7 108.4 205.7 106.8Z" fill="#4D62A8"/>
<path fill-rule="evenodd" clip-rule="evenodd" d="M238.9 133.3C238.7 132.3 238.4 131.6 238.3 130.8C238.2 130.2 238.3 129.2 238.5 129.1C239.4 128.7 240.5 128.7 241.2 128.6C241.3 129.9 241.5 130.7 241.5 131.6C241.5 133.9 240 133.4 238.9 133.3Z" fill="#4B60A8"/>
<path fill-rule="evenodd" clip-rule="evenodd" d="M203.9 92.1001C202.2 91.9001 200.8 91.7001 199.3 91.5001C199.4 90.5001 199.5 89.7001 199.6 88.9001C201.1 89.0001 202.4 89.1001 204.1 89.2001C204.1 90.0001 204.1 91.0001 203.9 92.1001Z" fill="#495FA7"/>
<path fill-rule="evenodd" clip-rule="evenodd" d="M274.5 109.5C272.8 109.3 271 109.1 269.4 109C269.9 107.6 270.4 106.3 270.9 105C273.3 106.3 274.2 107.4 274.5 109.5Z" fill="#495FA7"/>
<path fill-rule="evenodd" clip-rule="evenodd" d="M219.8 65.3002C219.7 64.0002 219.5 62.8002 219.4 61.6002C219.4 60.3002 220.1 59.9002 221.2 60.7002C222.2 61.5002 223.2 62.4002 224.1 63.3002C222.7 63.9002 221.4 64.5002 219.8 65.3002Z" fill="#4B60A8"/>
<path fill-rule="evenodd" clip-rule="evenodd" d="M270.8 84.2002C270.3 82.8002 269.8 81.5002 269.2 79.9002C270.3 79.8002 271.7 79.7002 273.1 79.8002C273.3 79.8002 273.8 81.3002 273.5 81.6002C272.8 82.6002 271.7 83.4002 270.8 84.2002Z" fill="#495FA7"/>
<path fill-rule="evenodd" clip-rule="evenodd" d="M258.8 126.7C259.5 125 259.3 124.6 256.8 123.6C257.5 122.2 258.6 121.3 260.1 122C260.8 122.3 261.6 123.5 261.6 124.3C261.7 125.8 260.6 126.6 258.8 126.7Z" fill="#4C61A8"/>
<path fill-rule="evenodd" clip-rule="evenodd" d="M262.3 64.1001C261.5 65.3001 261 66.1001 260.5 66.9001C260.6 67.0001 260.7 67.1001 260.8 67.2001C261.8 66.6001 262.8 66.1001 263.8 65.5001C263.9 65.7001 264.1 66.0001 264.2 66.2001C263 67.3001 262.6 69.8001 260.2 68.6001C259.6 68.3001 259 66.8001 259.2 66.2001C259.5 65.2001 260.2 63.8001 262.3 64.1001Z" fill="#445CA5"/>
<path fill-rule="evenodd" clip-rule="evenodd" d="M249.2 128.6C249.6 129.2 250.6 130.3 250.4 130.6C249.9 131.4 248.9 131.8 247.7 132.6C248 130.2 244.3 126.9 250.2 127.2C249.7 127.9 249.3 128.4 249.2 128.6Z" fill="#495FA7"/>
<path fill-rule="evenodd" clip-rule="evenodd" d="M264.6 73.3001C264 72.7001 263.4 72.0001 262.6 71.2001C263.8 70.2001 264.8 69.2001 266.1 68.1001C266.8 68.8001 267.4 69.5001 268 70.2001C266.8 71.2001 265.8 72.2001 264.6 73.3001Z" fill="#465DA6"/>
<path fill-rule="evenodd" clip-rule="evenodd" d="M216.4 63.4002C216.1 64.5002 215.8 65.4002 215.5 66.3002C216.5 66.1002 217.4 65.9002 218.8 65.6002C218 67.5002 216.9 68.5002 215.4 67.8002C214.6 67.4002 213.8 65.9002 213.8 64.9002C213.8 63.8002 214.9 62.9002 216.4 63.4002Z" fill="#4C61A8"/>
<path fill-rule="evenodd" clip-rule="evenodd" d="M271.8 94.2002C273.5 94.2002 274.9 94.2002 276.6 94.2002C276.6 95.2002 276.7 96.0002 276.4 96.8002C276.2 97.3002 275.6 97.9002 275.1 97.9002C274.5 97.9002 273.9 97.4002 273.4 97.0002C273 96.3002 272.6 95.5002 271.8 94.2002Z" fill="#4B60A8"/>
<path fill-rule="evenodd" clip-rule="evenodd" d="M246.1 61.5001C246.6 59.8001 247 58.6001 247.4 57.1001C248.3 57.4001 249.2 57.6001 250.1 57.9001C249.6 59.3001 249.2 60.6001 248.6 62.3001C248.1 62.1001 247.2 61.8001 246.1 61.5001Z" fill="#495FA7"/>
<path fill-rule="evenodd" clip-rule="evenodd" d="M204 94.2002C203.7 95.3002 203.7 96.7002 203 97.5002C202.5 98.0002 200.7 98.0002 200.2 97.5002C199.5 96.8002 199.4 95.4002 199.1 94.3002C199.4 94.2002 199.7 94.1002 200 94.0002C200.2 94.4002 200.4 94.8002 200.7 95.1002C201 95.6002 201.4 96.1002 201.7 96.6002C202 96.1002 202.2 95.5002 202.5 95.0002C202.7 94.6002 202.9 94.3002 203.1 94.0002C203.4 94.0002 203.7 94.1002 204 94.2002Z" fill="#4B60A8"/>
<path fill-rule="evenodd" clip-rule="evenodd" d="M266.4 113C267.3 112.3 268.2 111.3 269.3 111C269.9 110.8 271.3 111.8 271.4 112.3C271.6 113.4 271.1 114.6 270.8 115.8C270.5 115.8 270.1 115.7 269.8 115.7C269.8 115.2 269.8 114.7 269.8 114.3C269.8 113.8 269.8 113.2 269.8 112.7C269.3 113 268.8 113.2 268.3 113.5C267.9 113.7 267.5 113.9 267.1 114.1C266.8 113.7 266.6 113.3 266.4 113Z" fill="#4B60A8"/>
<path fill-rule="evenodd" clip-rule="evenodd" d="M206.8 71.9001C207.3 71.1001 207.8 70.3001 208.7 68.9001C209.6 71.0001 210.3 72.3001 210.8 73.6001C210.9 73.8001 210.7 74.3001 210.5 74.4001C210.2 74.5001 209.7 74.5001 209.5 74.3001C208.6 73.6001 207.8 72.8001 206.8 71.9001Z" fill="#5064AA"/>
<path fill-rule="evenodd" clip-rule="evenodd" d="M216.4 126.8C217.7 125.6 218.7 124.6 219.7 123.7C219.9 123.7 220.1 123.7 220.2 123.7C219.9 125.2 219.6 126.7 219.2 128.6C218.3 128 217.3 127.3 216.4 126.8Z" fill="#4F63A9"/>
<path fill-rule="evenodd" clip-rule="evenodd" d="M202.6 78.9003C204 79.5003 205.3 80.0003 207.3 80.8003C205.4 80.7003 203.9 80.6003 201.9 80.5003C202.4 79.4003 202.9 78.3003 203.4 77.3003C203.2 77.8003 202.9 78.4003 202.6 78.9003Z" fill="#4D62A8"/>
<path fill-rule="evenodd" clip-rule="evenodd" d="M267 120.4C266.1 119.2 265.3 118.3 264.6 117.3C264.4 117 264.4 116.5 264.4 116.1C264.8 116.1 265.3 116.1 265.6 116.2C266.6 116.6 267.6 117.2 268.9 117.8C268.4 118.6 267.7 119.5 267 120.4Z" fill="#4F63A9"/>
<path fill-rule="evenodd" clip-rule="evenodd" d="M223.4 124.9C224.3 127.3 223.3 129.4 221.2 129.9C221.9 128.2 222.6 126.8 223.4 124.9Z" fill="#5064AA"/>
<path fill-rule="evenodd" clip-rule="evenodd" d="M261.8 119C262.9 120 264.1 120.9 265.3 121.9C263.9 123 263.7 122.9 261.4 119.8C261.5 119.5 261.6 119.2 261.8 119Z" fill="#4B60A8"/>
<path fill-rule="evenodd" clip-rule="evenodd" d="M213.7 71.4001C212.4 70.2001 211.5 69.3001 210.6 68.4001C210.5 68.2001 210.7 67.3001 211 67.3001C211.8 67.0001 213.7 69.7001 213.7 71.4001Z" fill="#4C61A8"/>
<path fill-rule="evenodd" clip-rule="evenodd" d="M205.3 74.2002C206.5 74.9002 207.8 75.7002 209.2 76.6002C208 78.3002 207.1 76.9002 206.4 76.5002C205.7 76.1002 205.3 75.4002 204.7 74.9002C204.9 74.5002 205.1 74.4002 205.3 74.2002Z" fill="#4B60A8"/>
<path fill-rule="evenodd" clip-rule="evenodd" d="M205.7 116.4C205.7 114.2 208 112.8 210 113.7C208.4 114.6 207.1 115.4 205.7 116.4Z" fill="#4F63A9"/>
<path fill-rule="evenodd" clip-rule="evenodd" d="M268 91.7003C269.7 108.6 257.5 123 240.3 124.7C224.1 126.3 209.6 113.9 207.9 97.0003C206.3 80.8003 218.7 66.2003 235.3 64.6003C251.7 63.0003 266.4 75.2003 268 91.7003ZM258.3 109.6C258.6 109.7 259 109.7 259.3 109.8C259.1 109.6 258.8 109.3 258.6 109.1C258.4 108.8 258.1 108.5 257.9 108.2C257.7 108.4 257.5 108.6 257.3 108.7C257.7 109 258 109.3 258.3 109.6ZM223.5 79.7003C219.5 75.9003 219.8 76.1003 215.7 79.5003C221.3 83.9003 226.9 88.3003 229 95.6003C230 95.1003 230.5 94.8003 231.1 94.5003C233.8 92.9003 233.8 92.9003 232.3 90.1003C230.7 87.0003 228.8 84.1003 228.8 80.3003C228.8 77.5003 228.3 74.8003 228 71.9003C223.2 73.1003 222.4 74.8003 223.9 79.2003C223.7 79.5003 223.6 79.6003 223.5 79.7003ZM238.2 100.1C237.1 99.6003 235.6 98.4003 234.8 98.7003C232.4 99.5003 230.2 101.1 227.8 102.2C226.3 102.9 224.6 103.2 223 103.9C221 104.8 219.1 105.8 217.2 106.8C217.1 107.1 217.1 107.4 217 107.7C218.6 108.8 220.2 110 221.8 111C222.2 111.3 222.8 111.4 223.3 111.3C226 110.7 228.1 112.9 227.5 115.1C229.3 116.7 231 118.2 233 120.1C234.8 113.5 236.4 107.1 238.2 100.1ZM249.7 110.4C248.3 107.9 247.4 105.6 245.8 104C244.8 103 242.8 102.8 241.3 102.5C241.1 102.5 240.4 104.1 240.3 105C239.8 108.9 239.4 112.9 238.9 116.9C238.5 120.3 239 120.8 242.7 120.1C243 118.1 243.2 116 243.6 113.3C245.3 116 246.5 118.2 247.9 120.2C248.4 120.8 249.3 121.1 250.1 121.6C250.5 121 251 120.4 251.1 119.8C251.8 115.2 252.4 110.5 253 105.9C253.1 105.4 252.4 104.8 252 104.2C251.5 104.6 250.6 104.9 250.5 105.4C250 106.7 250 108.3 249.7 110.4ZM247.8 75.5003C248.2 75.6003 248.5 75.7003 248.9 75.8003C248.8 76.6003 248.7 77.4003 248.5 78.2003C248 79.8003 248.5 80.3003 250.1 80.8003C253.3 81.8003 252.9 79.3003 253.3 77.7003C254 74.6003 252.8 72.3003 249.9 71.6003C246.7 70.7003 244 72.2003 243.1 75.3003C242.1 79.1003 241.4 83.1003 240.1 86.9003C238.9 90.4003 242.6 93.7003 246 93.3003C249 92.9003 249.9 90.8003 250.5 88.3003C250.8 87.0003 251.3 85.9003 249.4 85.4003C247.8 84.9003 246.7 85.0003 246.2 86.9003C246 87.7003 245.5 88.4003 245.1 89.1003C244.8 89.0003 244.5 88.9003 244.3 88.8003C245.5 84.2003 246.6 79.9003 247.8 75.5003ZM263.1 90.6003C263.5 90.7003 263.9 90.7003 264.3 90.8003C264.2 89.5003 264.5 87.7003 263.8 86.9003C262.7 85.6003 260.9 84.8003 259.4 83.9003C258.4 83.3003 254.9 85.6003 255.5 86.3003C256.7 87.9003 255.2 88.2003 254.6 88.8003C252.3 91.1003 249.8 93.4003 247.2 95.9003C249.5 96.8003 250.6 99.6003 253.3 97.7003C253.4 97.6003 254.6 98.4003 254.5 98.6003C253.6 101.8 256.5 101.4 258 102.7C259.3 99.0003 260.4 95.7003 261.6 92.3003C261.8 91.7003 262.6 91.2003 263.1 90.6003ZM231.3 67.4003C231.4 73.0003 231.3 78.5003 231.6 83.9003C231.7 85.0003 232.9 86.6003 233.9 86.9003C235.2 87.3003 237.1 86.9003 238.1 86.1003C238.9 85.5003 239.3 83.8003 239.3 82.5003C239.3 78.0003 239.1 73.6003 239 69.1003C239 66.8003 238 66.5003 236 67.2003C235.7 72.6003 236.6 78.1003 235.9 83.4003C235.6 83.4003 235.4 83.4003 235.1 83.4003C234.9 78.0003 234.8 72.6003 234.6 67.0003C233.4 67.2003 232.4 67.3003 231.3 67.4003ZM213.2 104.1C216.8 101.9 220.3 99.7003 223.8 97.5003C224.2 98.0003 224.6 98.4003 224.9 98.8003C225.8 100.1 226.7 99.9003 227.9 99.2003C229.3 98.4003 228.6 97.5003 228.1 96.7003C226.9 94.7003 225.7 92.7003 224.5 90.7003C223.9 89.6003 223.1 89.3003 222 90.0003C221 90.6003 220.2 91.3003 221.1 92.6003C221.5 93.2003 221.8 93.9003 222.2 94.7003C219.2 96.1003 216.6 97.3003 213.9 98.6003C210.5 100.2 210.4 100.7 213.2 104.1ZM236.8 92.9003C236.6 93.3003 236 94.1003 236.1 94.7003C236.6 97.1003 239.4 99.0003 241.8 98.4003C242.3 98.3003 243.1 97.3003 243 96.8003C242.7 94.5003 239.9 92.5003 236.8 92.9003Z" fill="#F9F8FA"/>
<path fill-rule="evenodd" clip-rule="evenodd" d="M238.2 100.1C236.4 107.1 234.8 113.5 233.1 120.2C231 118.3 229.4 116.8 227.6 115.2C228.2 112.9 226.1 110.8 223.4 111.4C223 111.5 222.3 111.3 221.9 111.1C220.3 110 218.7 108.9 217.1 107.8C217.2 107.5 217.2 107.2 217.3 106.9C219.2 105.9 221.1 104.8 223.1 104C224.6 103.3 226.4 103 227.9 102.3C230.3 101.2 232.4 99.6002 234.9 98.8002C235.6 98.4002 237.1 99.6002 238.2 100.1ZM233 105.6C230.6 103.7 230.2 106 229 106.9C229.8 107.4 230.3 107.8 231 108.3C231.7 107.4 232.3 106.6 233 105.6Z" fill="#3F59A3"/>
<path fill-rule="evenodd" clip-rule="evenodd" d="M249.7 110.4C250 108.3 250.1 106.7 250.5 105.3C250.6 104.8 251.5 104.5 252 104.1C252.3 104.7 253 105.3 253 105.8C252.5 110.5 251.8 115.1 251.1 119.7C251 120.3 250.4 120.9 250.1 121.5C249.4 121.1 248.4 120.8 247.9 120.1C246.5 118.1 245.3 115.9 243.6 113.2C243.2 115.9 243 118 242.7 120C239 120.7 238.5 120.2 238.9 116.8C239.4 112.8 239.8 108.9 240.3 104.9C240.4 104 241.1 102.4 241.3 102.4C242.9 102.7 244.8 102.9 245.8 103.9C247.3 105.6 248.2 107.9 249.7 110.4Z" fill="#405AA3"/>
<path fill-rule="evenodd" clip-rule="evenodd" d="M247.8 75.5003C246.6 79.9003 245.5 84.2003 244.3 88.6003C244.6 88.7003 244.9 88.8003 245.1 88.9003C245.5 88.2003 246 87.5003 246.2 86.7003C246.7 84.8003 247.8 84.8003 249.4 85.2003C251.3 85.7003 250.8 86.9003 250.5 88.1003C249.9 90.6003 249.1 92.6003 246 93.1003C242.6 93.6003 238.9 90.2003 240.1 86.7003C241.4 82.9003 242 79.0003 243.1 75.1003C243.9 72.0003 246.6 70.5003 249.9 71.4003C252.8 72.2003 254 74.4003 253.3 77.5003C252.9 79.1003 253.3 81.6003 250.1 80.6003C248.6 80.1003 248 79.6003 248.5 78.0003C248.8 77.2003 248.8 76.4003 248.9 75.6003C248.5 75.7003 248.1 75.6003 247.8 75.5003Z" fill="#415AA4"/>
<path fill-rule="evenodd" clip-rule="evenodd" d="M263.1 90.6003C262.6 91.2003 261.8 91.7003 261.5 92.4003C260.2 95.7003 259.1 99.1003 257.9 102.8C256.3 101.6 253.5 101.9 254.4 98.7003C254.5 98.5003 253.3 97.7003 253.2 97.8003C250.5 99.7003 249.4 96.9003 247.1 96.0003C249.8 93.5003 252.2 91.3003 254.5 88.9003C255.1 88.3003 256.6 88.0003 255.4 86.4003C254.8 85.6003 258.3 83.4003 259.3 84.0003C260.9 84.9003 262.6 85.7003 263.7 87.0003C264.4 87.9003 264.1 89.6003 264.2 90.9003C263.9 90.8003 263.5 90.7003 263.1 90.6003Z" fill="#415AA4"/>
<path fill-rule="evenodd" clip-rule="evenodd" d="M223.9 79.4001C222.4 75.0001 223.2 73.3001 228 72.1001C228.3 74.9001 228.8 77.7001 228.8 80.5001C228.8 84.2001 230.7 87.2001 232.3 90.3001C233.7 93.1001 233.8 93.1001 231.1 94.7001C230.6 95.0001 230 95.3001 229 95.8001C226.9 88.4001 221.3 84.0001 215.7 79.7001C219.8 76.3001 219.5 76.2001 223.5 79.9001C223.7 80.1001 223.8 80.4001 224 80.6001C224.1 80.5001 224.2 80.5001 224.3 80.4001C224.1 80.0001 224 79.7001 223.9 79.4001Z" fill="#405AA3"/>
<path fill-rule="evenodd" clip-rule="evenodd" d="M231.3 67.4002C232.4 67.3002 233.4 67.2002 234.7 67.0002C234.9 72.6002 235 78.0002 235.2 83.4002C235.5 83.4002 235.7 83.4002 236 83.4002C236.7 78.0002 235.8 72.6002 236.1 67.2002C238 66.5002 239 66.8002 239.1 69.1002C239.1 73.6002 239.4 78.0002 239.4 82.5002C239.4 83.7002 239.1 85.5002 238.2 86.1002C237.1 86.9002 235.2 87.3002 234 86.9002C233 86.6003 231.7 85.0002 231.7 83.9002C231.3 78.5002 231.4 73.0002 231.3 67.4002Z" fill="#435CA4"/>
<path fill-rule="evenodd" clip-rule="evenodd" d="M213.2 104.1C210.4 100.7 210.5 100.2 213.9 98.5002C216.6 97.2002 219.2 96.0002 222.2 94.6002C221.8 93.8002 221.5 93.1002 221.1 92.5002C220.2 91.2002 220.9 90.5002 222 89.9002C223.1 89.2002 223.9 89.5002 224.5 90.6002C225.7 92.6002 226.9 94.6002 228.1 96.6002C228.6 97.5002 229.3 98.3002 227.9 99.1002C226.7 99.8002 225.8 100 224.9 98.7002C224.6 98.3002 224.2 97.9002 223.8 97.4002C220.3 99.7002 216.8 101.9 213.2 104.1Z" fill="#425BA4"/>
<path fill-rule="evenodd" clip-rule="evenodd" d="M236.8 92.9001C239.9 92.5001 242.7 94.5001 243 96.9001C243.1 97.4001 242.3 98.4001 241.8 98.5001C239.4 99.0001 236.6 97.2001 236.1 94.8001C235.9 94.1001 236.6 93.3001 236.8 92.9001ZM238.9 95.3001C239 95.2001 239.1 95.2001 239.2 95.1001C239 94.8001 238.9 94.4001 238.7 94.1001C238.6 94.2001 238.5 94.2001 238.3 94.3001C238.5 94.7001 238.7 95.0001 238.9 95.3001Z" fill="#BD944C"/>
<path fill-rule="evenodd" clip-rule="evenodd" d="M258.3 109.6C258 109.3 257.7 109.1 257.3 108.8C257.5 108.6 257.7 108.4 257.9 108.3C258.1 108.6 258.4 108.9 258.6 109.2C258.6 109.3 258.4 109.4 258.3 109.6Z" fill="#C5A263"/>
<path fill-rule="evenodd" clip-rule="evenodd" d="M258.3 109.6C258.4 109.4 258.5 109.3 258.6 109.1C258.8 109.3 259.1 109.6 259.3 109.8C259 109.7 258.7 109.6 258.3 109.6Z" fill="#D8C095"/>
<path fill-rule="evenodd" clip-rule="evenodd" d="M233 105.6C232.3 106.6 231.7 107.4 231 108.3C230.3 107.8 229.8 107.4 229 106.9C230.2 106 230.6 103.7 233 105.6Z" fill="#E5E6F3"/>
<path fill-rule="evenodd" clip-rule="evenodd" d="M223.9 79.4001C224 79.7001 224.1 80.0001 224.2 80.3001C224.1 80.4001 224 80.4001 223.9 80.5001C223.7 80.3001 223.6 80.0001 223.4 79.8001C223.6 79.6001 223.7 79.5001 223.9 79.4001Z" fill="#F9F8FA"/>
<path fill-rule="evenodd" clip-rule="evenodd" d="M238.9 95.3002C238.7 95.0002 238.5 94.7002 238.3 94.4002C238.4 94.3002 238.5 94.3002 238.7 94.2002C238.9 94.5002 239 94.9002 239.2 95.2002C239.1 95.2002 239 95.3002 238.9 95.3002Z" fill="#E5D6BA"/>
<path d="M140 129C140 130.4 137.4 131.6 134.3 131.6H68.8001C65.6001 131.6 63.1001 130.5 63.1001 129V128.7C63.1001 127.3 65.7001 126.1 68.8001 126.1H134.2C137.4 126.1 139.9 127.2 139.9 128.7V129H140Z" fill="#929496"/>
<path d="M140 158C140 159.4 137.4 160.6 134.3 160.6H68.8001C65.6001 160.6 63.1001 159.5 63.1001 158V157.7C63.1001 156.3 65.7001 155.1 68.8001 155.1H134.2C137.4 155.1 139.9 156.2 139.9 157.7V158H140Z" fill="#929496"/>
<path d="M149.4 139.1C149.4 140.5 146.5 141.7 143 141.7H69.5001C65.9001 141.7 63.1001 140.6 63.1001 139.1V138.8C63.1001 137.4 66.0001 136.2 69.5001 136.2H143C146.6 136.2 149.4 137.3 149.4 138.8V139.1Z" fill="#929496"/>
<path d="M118.4 148.6C118.4 150 116.6 151.2 114.3 151.2H67.2001C64.9001 151.2 63.1001 150.1 63.1001 148.6V148.3C63.1001 146.9 64.9001 145.7 67.2001 145.7H114.3C116.6 145.7 118.4 146.8 118.4 148.3V148.6Z" fill="#929496"/>
<path d="M150.1 148.6C150.1 150 149.2 151.2 148 151.2H123.9C122.7 151.2 121.8 150.1 121.8 148.6V148.3C121.8 146.9 122.7 145.7 123.9 145.7H148C149.2 145.7 150.1 146.8 150.1 148.3V148.6Z" fill="#929496"/>
<path d="M140 174.8C140 176.2 137.4 177.4 134.3 177.4H68.8001C65.6001 177.4 63.1001 176.3 63.1001 174.8V174.5C63.1001 173.1 65.7001 171.9 68.8001 171.9H134.2C137.4 171.9 139.9 173 139.9 174.5V174.8H140Z" fill="#929496"/>
<path d="M140 203.8C140 205.2 137.4 206.4 134.3 206.4H68.8001C65.6001 206.4 63.1001 205.3 63.1001 203.8V203.5C63.1001 202.1 65.7001 200.9 68.8001 200.9H134.2C137.4 200.9 139.9 202 139.9 203.5V203.8H140Z" fill="#929496"/>
<path d="M149.4 184.9C149.4 186.3 146.5 187.5 143 187.5H69.5001C65.9001 187.5 63.1001 186.4 63.1001 184.9V184.6C63.1001 183.2 66.0001 182 69.5001 182H143C146.6 182 149.4 183.1 149.4 184.6V184.9Z" fill="#929496"/>
<path d="M118.4 194.3C118.4 195.7 116.6 196.9 114.3 196.9H67.2001C64.9001 196.9 63.1001 195.8 63.1001 194.3V194C63.1001 192.6 64.9001 191.4 67.2001 191.4H114.3C116.6 191.4 118.4 192.5 118.4 194V194.3Z" fill="#929496"/>
<path d="M150.1 194.3C150.1 195.7 149.2 196.9 148 196.9H123.9C122.7 196.9 121.8 195.8 121.8 194.3V194C121.8 192.6 122.7 191.4 123.9 191.4H148C149.2 191.4 150.1 192.5 150.1 194V194.3Z" fill="#929496"/>
<path d="M140 203.8C140 205.2 137.4 206.4 134.3 206.4H68.8001C65.6001 206.4 63.1001 205.3 63.1001 203.8V203.5C63.1001 202.1 65.7001 200.9 68.8001 200.9H134.2C137.4 200.9 139.9 202 139.9 203.5V203.8H140Z" fill="#929496"/>
<path d="M140 232.7C140 234.1 137.4 235.3 134.3 235.3H68.8001C65.6001 235.3 63.1001 234.2 63.1001 232.7V232.4C63.1001 231 65.7001 229.8 68.8001 229.8H134.2C137.4 229.8 139.9 230.9 139.9 232.4V232.7H140Z" fill="#929496"/>
<path d="M149.4 213.9C149.4 215.3 146.5 216.5 143 216.5H69.5001C65.9001 216.5 63.1001 215.4 63.1001 213.9V213.6C63.1001 212.2 66.0001 211 69.5001 211H143C146.6 211 149.4 212.1 149.4 213.6V213.9Z" fill="#929496"/>
<path d="M118.4 223.3C118.4 224.7 116.6 225.9 114.3 225.9H67.2001C64.9001 225.9 63.1001 224.8 63.1001 223.3V223C63.1001 221.6 64.9001 220.4 67.2001 220.4H114.3C116.6 220.4 118.4 221.5 118.4 223V223.3Z" fill="#929496"/>
<path d="M150.1 223.3C150.1 224.7 149.2 225.9 148 225.9H123.9C122.7 225.9 121.8 224.8 121.8 223.3V223C121.8 221.6 122.7 220.4 123.9 220.4H148C149.2 220.4 150.1 221.5 150.1 223V223.3Z" fill="#929496"/>
<path d="M140 232.7C140 234.1 137.4 235.3 134.3 235.3H68.8001C65.6001 235.3 63.1001 234.2 63.1001 232.7V232.4C63.1001 231 65.7001 229.8 68.8001 229.8H134.2C137.4 229.8 139.9 230.9 139.9 232.4V232.7H140Z" fill="#929496"/>
<path d="M140 261.7C140 263.1 137.4 264.3 134.3 264.3H68.8001C65.6001 264.3 63.1001 263.2 63.1001 261.7V261.4C63.1001 260 65.7001 258.8 68.8001 258.8H134.2C137.4 258.8 139.9 259.9 139.9 261.4V261.7H140Z" fill="#929496"/>
<path d="M149.4 242.8C149.4 244.2 146.5 245.4 143 245.4H69.5001C65.9001 245.4 63.1001 244.3 63.1001 242.8V242.5C63.1001 241.1 66.0001 239.9 69.5001 239.9H143C146.6 239.9 149.4 241 149.4 242.5V242.8Z" fill="#929496"/>
<path d="M118.4 252.3C118.4 253.7 116.6 254.9 114.3 254.9H67.2001C64.9001 254.9 63.1001 253.8 63.1001 252.3V252C63.1001 250.6 64.9001 249.4 67.2001 249.4H114.3C116.6 249.4 118.4 250.5 118.4 252V252.3Z" fill="#929496"/>
<path d="M150.1 252.3C150.1 253.7 149.2 254.9 148 254.9H123.9C122.7 254.9 121.8 253.8 121.8 252.3V252C121.8 250.6 122.7 249.4 123.9 249.4H148C149.2 249.4 150.1 250.5 150.1 252V252.3Z" fill="#929496"/>
<path d="M140 261.7C140 263.1 137.4 264.3 134.3 264.3H68.8001C65.6001 264.3 63.1001 263.2 63.1001 261.7V261.4C63.1001 260 65.7001 258.8 68.8001 258.8H134.2C137.4 258.8 139.9 259.9 139.9 261.4V261.7H140Z" fill="#929496"/>
<path d="M140 290.6C140 292 137.4 293.2 134.3 293.2H68.8001C65.6001 293.2 63.1001 292.1 63.1001 290.6V290.3C63.1001 288.9 65.7001 287.7 68.8001 287.7H134.2C137.4 287.7 139.9 288.8 139.9 290.3V290.6H140Z" fill="#929496"/>
<path d="M149.4 271.8C149.4 273.2 146.5 274.4 143 274.4H69.5001C65.9001 274.4 63.1001 273.3 63.1001 271.8V271.5C63.1001 270.1 66.0001 268.9 69.5001 268.9H143C146.6 268.9 149.4 270 149.4 271.5V271.8Z" fill="#929496"/>
<path d="M118.4 281.2C118.4 282.6 116.6 283.8 114.3 283.8H67.2001C64.9001 283.8 63.1001 282.7 63.1001 281.2V280.9C63.1001 279.5 64.9001 278.3 67.2001 278.3H114.3C116.6 278.3 118.4 279.4 118.4 280.9V281.2Z" fill="#929496"/>
<path d="M150.1 281.2C150.1 282.6 149.2 283.8 148 283.8H123.9C122.7 283.8 121.8 282.7 121.8 281.2V280.9C121.8 279.5 122.7 278.3 123.9 278.3H148C149.2 278.3 150.1 279.4 150.1 280.9V281.2Z" fill="#929496"/>
</g>
<defs>
<clipPath id="clip0">
<rect width="348" height="398" fill="white"/>
</clipPath>
</defs>
</svg>
